<svg width="907" height="163" viewBox="0 0 907 163" fill="none" xmlns="http://www.w3.org/2000/svg">
<path d="M260.756 161.489V29.6854H316.327C320.602 29.6854 324.936 30.2197 329.329 31.2884C333.841 32.2383 337.938 34.2569 341.619 37.3442C345.419 40.3127 348.447 44.8249 350.703 50.8807C353.077 56.9366 354.265 64.9516 354.265 74.9259C354.265 84.9002 353.077 92.9747 350.703 99.1492C348.447 105.324 345.478 110.014 341.797 113.22C338.116 116.426 334.138 118.563 329.863 119.632C325.589 120.701 321.433 121.235 317.396 121.235C315.258 121.235 312.765 121.176 309.915 121.057C307.065 120.82 304.156 120.523 301.187 120.167C298.338 119.81 295.666 119.513 293.172 119.276C290.679 118.92 288.66 118.623 287.117 118.385V161.489H260.756ZM287.117 97.5462H313.299C316.386 97.5462 318.999 96.8338 321.136 95.4089C323.392 93.8652 325.054 91.4904 326.123 88.2844C327.192 84.9596 327.726 80.5662 327.726 75.104C327.726 69.7607 327.132 65.5453 325.945 62.4581C324.876 59.252 323.273 56.9366 321.136 55.5117C319.117 54.0868 316.683 53.3743 313.833 53.3743H287.117V97.5462Z" fill="#263238"/>
<path d="M410.387 162.379C399.819 162.379 391.388 161.014 385.095 158.283C378.802 155.433 374.23 150.446 371.38 143.321C368.649 136.197 367.284 126.341 367.284 113.754C367.284 100.812 368.59 90.7779 371.202 83.6534C373.815 76.5289 378.208 71.5418 384.383 68.692C390.557 65.8422 398.928 64.4173 409.496 64.4173C418.996 64.4173 426.595 65.3672 432.295 67.2671C437.994 69.167 442.091 72.4917 444.585 77.2414C447.197 81.9911 448.503 88.7 448.503 97.3681C448.503 103.78 447.197 108.886 444.585 112.686C442.091 116.367 438.529 119.038 433.898 120.701C429.267 122.244 423.805 123.016 417.512 123.016H393.466C393.704 127.885 394.416 131.803 395.604 134.772C396.91 137.622 399.225 139.7 402.55 141.006C405.994 142.193 410.921 142.787 417.333 142.787H445.297V158.283C440.666 159.233 435.56 160.182 429.979 161.132C424.517 161.964 417.986 162.379 410.387 162.379ZM393.11 107.342H414.84C418.402 107.342 421.014 106.63 422.677 105.205C424.339 103.78 425.17 101.227 425.17 97.5462C425.17 94.1027 424.636 91.3717 423.567 89.353C422.499 87.2157 420.836 85.7314 418.58 84.9002C416.324 83.9503 413.296 83.4753 409.496 83.4753C405.459 83.4753 402.253 84.1878 399.878 85.6127C397.504 86.9188 395.782 89.2937 394.713 92.7372C393.644 96.1807 393.11 101.049 393.11 107.342Z" fill="#263238"/>
<path d="M500.531 162.557C497.563 162.557 494.357 162.439 490.913 162.201C487.47 162.082 484.026 161.845 480.583 161.489C477.139 161.132 473.933 160.717 470.965 160.242C467.996 159.648 465.503 158.995 463.484 158.283V142.787H505.875C508.368 142.787 510.387 142.609 511.931 142.252C513.593 141.777 514.78 141.006 515.493 139.937C516.324 138.75 516.74 137.087 516.74 134.95V131.922C516.74 129.547 515.968 127.707 514.424 126.4C512.881 125.094 510.031 124.441 505.875 124.441H490.913C485.451 124.441 480.523 123.61 476.13 121.948C471.737 120.285 468.234 117.554 465.621 113.754C463.128 109.955 461.881 104.849 461.881 98.4368V92.9153C461.881 86.8595 463.068 81.7536 465.443 77.5976C467.818 73.4417 471.796 70.295 477.377 68.1577C482.958 66.0203 490.616 64.9516 500.353 64.9516C504.272 64.9516 508.428 65.1891 512.821 65.6641C517.333 66.0203 521.549 66.5546 525.467 67.2671C529.504 67.8608 532.71 68.5733 535.085 69.4044V84.9002H495.01C491.566 84.9002 488.954 85.4939 487.173 86.6814C485.392 87.75 484.501 89.828 484.501 92.9153V95.7651C484.501 97.9025 484.917 99.5055 485.748 100.574C486.579 101.524 487.826 102.237 489.488 102.711C491.27 103.068 493.466 103.246 496.079 103.246H511.396C521.133 103.246 528.198 105.502 532.592 110.014C537.104 114.408 539.36 120.523 539.36 128.36V136.909C539.36 143.321 537.816 148.427 534.729 152.227C531.76 155.908 527.367 158.579 521.549 160.242C515.849 161.785 508.843 162.557 500.531 162.557Z" fill="#263238"/>
<path d="M592.06 161.489C584.698 161.489 578.702 160.42 574.071 158.283C569.559 156.145 566.293 152.583 564.275 147.596C562.256 142.609 561.366 135.9 561.603 127.469L562.494 87.0376H547.532V70.1169L563.384 65.8422L566.947 39.1253H587.786V65.8422H610.228V87.0376H587.786V127.291C587.786 129.903 588.023 132.041 588.498 133.703C588.973 135.365 589.626 136.731 590.457 137.8C591.407 138.75 592.476 139.462 593.663 139.937C594.851 140.412 596.038 140.709 597.226 140.828L609.337 141.896V161.489H592.06Z" fill="#263238"/>
<path d="M645.258 162.557C638.014 162.557 632.137 160.42 627.624 156.145C623.112 151.871 620.856 145.933 620.856 138.334V129.785C620.856 122.541 623.409 116.604 628.515 111.973C633.621 107.224 641.577 104.849 652.382 104.849H676.783V98.2587C676.783 95.2901 676.249 92.8559 675.18 90.9561C674.112 88.9374 672.093 87.5126 669.125 86.6814C666.275 85.7314 661.881 85.2565 655.944 85.2565H627.268V69.9388C631.899 68.5139 637.243 67.2671 643.298 66.1984C649.473 65.1297 656.894 64.5954 665.562 64.5954C673.518 64.5954 680.286 65.5453 685.867 67.4452C691.567 69.3451 695.841 72.6105 698.691 77.2414C701.66 81.8723 703.144 88.2844 703.144 96.4775V161.489H682.305L678.03 151.336C677.199 152.286 675.774 153.355 673.756 154.542C671.737 155.73 669.243 156.976 666.275 158.283C663.425 159.47 660.16 160.479 656.479 161.31C652.916 162.142 649.176 162.557 645.258 162.557ZM658.616 144.212C659.803 144.212 661.11 144.093 662.534 143.855C664.078 143.499 665.622 143.143 667.165 142.787C668.828 142.312 670.312 141.896 671.618 141.54C673.043 141.065 674.171 140.649 675.002 140.293C675.952 139.937 676.546 139.7 676.783 139.581V117.317L660.753 118.385C656.122 118.742 652.679 119.929 650.423 121.948C648.285 123.966 647.217 126.697 647.217 130.141V134.059C647.217 136.434 647.692 138.393 648.642 139.937C649.71 141.481 651.076 142.609 652.738 143.321C654.519 143.915 656.479 144.212 658.616 144.212Z" fill="#263238"/>
<path d="M722.88 161.489V65.8422H744.61L749.24 75.6384C752.803 72.6698 757.256 70.0575 762.599 67.8014C768.061 65.4266 773.642 64.2392 779.341 64.2392C787.178 64.2392 793.234 65.7828 797.509 68.8701C801.784 71.9574 804.752 76.1134 806.415 81.338C808.196 86.4439 809.086 92.1435 809.086 98.4368V161.489H782.726V101.821C782.726 98.7336 782.132 96.1807 780.944 94.1621C779.876 92.1435 778.332 90.5998 776.314 89.5312C774.295 88.4625 771.861 87.9281 769.011 87.9281C766.517 87.9281 764.083 88.225 761.708 88.8187C759.452 89.4124 757.256 90.2436 755.118 91.3123C753.1 92.381 751.14 93.6277 749.24 95.0526V161.489H722.88Z" fill="#263238"/>
<path d="M849.113 162.557C841.87 162.557 835.992 160.42 831.48 156.145C826.968 151.871 824.711 145.933 824.711 138.334V129.785C824.711 122.541 827.264 116.604 832.37 111.973C837.476 107.224 845.432 104.849 856.237 104.849H880.639V98.2587C880.639 95.2901 880.104 92.8559 879.036 90.9561C877.967 88.9374 875.948 87.5126 872.98 86.6814C870.13 85.7314 865.737 85.2565 859.8 85.2565H831.123V69.9388C835.754 68.5139 841.098 67.2671 847.154 66.1984C853.328 65.1297 860.75 64.5954 869.418 64.5954C877.373 64.5954 884.142 65.5453 889.722 67.4452C895.422 69.3451 899.697 72.6105 902.547 77.2414C905.515 81.8723 906.999 88.2844 906.999 96.4775V161.489H886.16L881.886 151.336C881.054 152.286 879.629 153.355 877.611 154.542C875.592 155.73 873.099 156.976 870.13 158.283C867.28 159.47 864.015 160.479 860.334 161.31C856.772 162.142 853.031 162.557 849.113 162.557ZM862.471 144.212C863.659 144.212 864.965 144.093 866.39 143.855C867.933 143.499 869.477 143.143 871.021 142.787C872.683 142.312 874.167 141.896 875.473 141.54C876.898 141.065 878.026 140.649 878.858 140.293C879.808 139.937 880.401 139.7 880.639 139.581V117.317L864.609 118.385C859.978 118.742 856.534 119.929 854.278 121.948C852.141 123.966 851.072 126.697 851.072 130.141V134.059C851.072 136.434 851.547 138.393 852.497 139.937C853.566 141.481 854.931 142.609 856.594 143.321C858.375 143.915 860.334 144.212 862.471 144.212Z" fill="#263238"/>
<path d="M201.003 48.2244C201.003 48.2244 200.15 51.831 195.786 52.1135C191.421 52.3961 184.166 52.4321 184.166 52.4321L178.155 49.649L175.901 41.3958L182.627 44.4554L201.003 48.2244Z" fill="#263238"/>
<path d="M201.003 48.2242C201.003 48.2242 204.249 42.8864 198.112 39.4901C191.975 36.0939 182.099 38.7207 182.099 38.7207L182.976 48.6931L201.003 48.2242Z" fill="#FF725E"/>
<path d="M183.553 96.9747H180.969C174.409 96.9747 169.091 102.293 169.091 108.853V147.089C169.091 153.649 174.409 158.967 180.969 158.967H183.553C190.113 158.967 195.431 153.649 195.431 147.089V108.853C195.431 102.293 190.113 96.9747 183.553 96.9747Z" fill="#263238"/>
<path d="M21.7898 96.9747H19.205C12.6451 96.9747 7.32715 102.293 7.32715 108.853V147.089C7.32715 153.649 12.6451 158.967 19.205 158.967H21.7898C28.3497 158.967 33.6677 153.649 33.6677 147.089V108.853C33.6677 102.293 28.3497 96.9747 21.7898 96.9747Z" fill="#263238"/>
<path d="M15.0439 135.818C15.0439 135.818 6.02733 118.524 5.73278 98.0387C5.43824 77.553 8.1372 69.3058 12.916 65.3145C17.6948 61.3231 23.0266 52.541 23.0266 52.541C23.0266 52.541 28.4907 30.847 36.0646 16.8893C42.9774 4.15185 55.7509 5.46827 55.7509 5.46827C55.7509 5.46827 111.888 0.43701 147.011 5.34805C147.011 5.34805 156.587 4.6688 163.505 15.3144C170.424 25.96 178.136 44.5763 180 54.1579C180 54.1579 188.247 62.1406 190.645 65.8615C193.044 69.5824 197.294 76.2366 196.765 82.6264C196.236 89.0161 196.494 124.926 187.748 136.9L15.0439 135.818Z" fill="#FF725E"/>
<path d="M30.8843 42.712C30.8843 42.712 36.0718 17.7661 43.0988 13.6485C50.1257 9.53092 100.631 9.71125 100.631 9.71125L149.585 11.0998C149.585 11.0998 158.187 11.3463 160.976 15.9507C163.765 20.5552 171.88 42.3634 170.906 43.9383L95.5393 44.7858C95.5393 44.7858 42.4736 45.7536 40.2976 45.2667C38.1216 44.7798 31.3471 45.405 30.8843 42.712Z" fill="#263238"/>
<path d="M39.5701 42.7122C39.5701 42.7122 34.9776 42.039 35.5727 37.0017C36.0356 33.0945 40.7062 22.1724 42.786 17.4898C43.0814 16.8199 43.5449 16.2376 44.1315 15.7995C44.7181 15.3614 45.408 15.0823 46.1342 14.9892C52.4819 14.1717 68.5435 11.4847 97.1261 11.7372C133.553 12.0558 155.812 12.723 157.838 15.3438C159.449 17.4297 165.694 34.1044 166.422 36.5509C167.263 39.3821 163.416 42.5319 157.958 42.6822C152.5 42.8324 39.5701 42.7122 39.5701 42.7122Z" fill="#455A64"/>
<g opacity="0.4">
<path d="M150.083 98.0743C145.918 90.332 134.533 91.4621 134.533 91.4621C134.533 91.4621 75.8526 91.2638 69.6672 91.4621C63.4818 91.6605 61.8828 91.6905 58.0899 95.6699C54.2969 99.6492 42.7075 123.363 42.7075 123.363H162.057C162.057 123.363 154.802 106.85 150.083 98.0743Z" fill="black"/>
</g>
<path d="M56.4678 68.0735L59.5154 75.1004C59.5154 75.1004 60.8078 77.8294 66.1276 78.2622C70.2872 78.5928 138.032 78.5748 138.032 78.5748C138.032 78.5748 142.54 78.9716 144.308 75.8338C145.639 73.3206 146.818 70.7291 147.836 68.0735H56.4678Z" fill="#263238"/>
<path d="M14.8819 77.0898C14.8786 73.9791 15.0472 70.8707 15.3868 67.7786C15.5792 66.4682 18.0858 61.7676 25.4554 60.9741C27.3729 60.7637 29.0139 60.6675 30.3904 60.6315C32.7735 60.556 35.1446 60.9961 37.3419 61.9215C39.5392 62.8469 41.5108 64.2358 43.1219 65.9933C44.2081 67.1846 45.0896 68.5475 45.7307 70.0268C48.3635 76.2422 49.68 83.8522 49.68 83.8522L14.8819 77.0898Z" fill="#EAEAEA"/>
<g opacity="0.3">
<path d="M15.4356 77.0893H14.8826C14.8826 77.0893 12.9951 82.7818 17.4133 85.2223C20.3286 86.8332 30.1267 88.4202 36.4503 89.3098C38.1957 89.5558 39.973 89.4405 41.6719 88.971C43.3708 88.5016 44.9551 87.688 46.3265 86.5808L49.6807 83.8758L15.4356 77.0893Z" fill="black"/>
</g>
<path d="M45.4238 12.2608C45.4238 12.2608 47.0889 5.01745 49.4332 2.59499C51.7775 0.172527 54.5366 0.23865 56.0875 1.07419C57.47 1.81956 59.4717 5.14369 59.4717 5.14369L55.6186 5.42621C55.387 5.04393 55.0393 4.74561 54.6262 4.57477C54.2132 4.40393 53.7564 4.36949 53.3224 4.47646C51.9278 4.87319 50.966 7.43991 50.966 7.43991L49.301 11.6477L45.4238 12.2608Z" fill="#E0E0E0"/>
<path d="M153.173 11.7196C153.173 11.7196 151.508 4.50634 149.164 2.05382C146.82 -0.398695 144.061 -0.302517 142.51 0.533021C141.127 1.27839 139.125 4.60251 139.125 4.60251L142.979 4.89105C143.209 4.50767 143.557 4.20813 143.97 4.03617C144.383 3.86422 144.84 3.82887 145.275 3.93528C146.669 4.33201 147.631 6.89874 147.631 6.89874L149.296 11.1065L153.173 11.7196Z" fill="#E0E0E0"/>
<path d="M144.024 64.8699C144.024 64.9601 124.308 65.0262 99.9873 65.0262C75.6665 65.0262 55.9502 64.9601 55.9502 64.8699C55.9502 64.7797 75.6605 64.7136 99.9873 64.7136C124.314 64.7136 144.024 64.7857 144.024 64.8699Z" fill="#263238"/>
<g opacity="0.3">
<path d="M14.4792 100.485C14.4792 100.485 14.0945 114.485 21.8848 115.182L27.1746 115.681C28.376 115.795 29.5855 115.574 30.6695 115.044C31.7535 114.513 32.67 113.694 33.3179 112.676L38.1267 105.126L14.4792 100.485Z" fill="black"/>
</g>
<g opacity="0.3">
<path d="M10.0854 123.375L193.014 123.261C191.974 128.316 190.309 132.933 187.719 136.882L15.0446 135.818C13.0851 131.799 11.4275 127.64 10.0854 123.375V123.375Z" fill="black"/>
</g>
<path d="M0.85791 48.2244C0.85791 48.2244 1.70548 51.831 6.07553 52.1135C10.4456 52.3961 17.6949 52.4321 17.6949 52.4321L23.7421 49.8474L26.2427 41.3958L19.2398 44.4554L0.85791 48.2244Z" fill="#263238"/>
<path d="M0.858522 48.2242C0.858522 48.2242 -2.38744 42.8864 3.74385 39.4901C9.87514 36.0939 19.7393 38.7207 19.7393 38.7207L18.8677 48.6931L0.858522 48.2242Z" fill="#FF725E"/>
<path d="M125.81 99.6737H77.8419C74.6118 99.6737 71.9932 102.292 71.9932 105.522V106.797C71.9932 110.027 74.6118 112.646 77.8419 112.646H125.81C129.04 112.646 131.659 110.027 131.659 106.797V105.522C131.659 102.292 129.04 99.6737 125.81 99.6737Z" fill="#EAEAEA"/>
<path d="M31.6106 42.8568C31.6467 42.9169 30.5407 43.494 29.0138 44.7683C28.5948 45.1145 28.1936 45.4816 27.8116 45.8684C27.3788 46.2711 26.9821 46.752 26.5493 47.2389C25.6538 48.3442 24.8649 49.5316 24.193 50.7854C23.5418 52.0528 23.0182 53.3817 22.6301 54.7527C22.4654 55.3466 22.331 55.9485 22.2274 56.556C22.1232 57.0864 22.049 57.6223 22.005 58.161C21.8306 60.1446 22.0049 61.3829 21.9208 61.3829C21.8493 61.1017 21.809 60.8134 21.8006 60.5234C21.7637 60.184 21.7477 59.8428 21.7525 59.5015C21.7365 59.0504 21.7465 58.5989 21.7825 58.149C21.8133 57.6009 21.8756 57.055 21.9689 56.514C22.0655 55.8907 22.1939 55.2728 22.3536 54.6626C22.7318 53.2679 23.2535 51.9162 23.9105 50.6291C24.5871 49.3482 25.3927 48.1397 26.3149 47.0225C26.7234 46.5414 27.1568 46.0819 27.6133 45.646C28.004 45.2609 28.4175 44.8995 28.8515 44.564C29.2014 44.2759 29.5666 44.007 29.9456 43.7585C30.2222 43.5598 30.5114 43.3791 30.8112 43.2175C31.0661 43.0732 31.3337 42.9524 31.6106 42.8568V42.8568Z" fill="#263238"/>
<path d="M151.49 83.8761C151.49 83.9663 128.792 84.0805 100.805 84.1346C72.8172 84.1887 50.1074 84.1647 50.1074 84.0745C50.1074 83.9843 72.7992 83.8761 100.805 83.822C128.81 83.7679 151.49 83.792 151.49 83.8761Z" fill="#263238"/>
<path d="M109.917 16.2886C109.959 16.3607 101.784 21.2718 91.6616 27.2468C81.539 33.2218 73.2978 38.0126 73.2497 37.9344C73.2016 37.8563 81.3767 32.9573 91.5053 26.9763C101.634 20.9953 109.869 16.2165 109.917 16.2886Z" fill="#E0E0E0"/>
<path d="M92.9114 18.0195C92.9595 18.0916 86.9003 22.0469 79.3925 26.8558C71.8847 31.6646 65.7474 35.4997 65.7053 35.4276C65.6632 35.3554 71.7164 31.4001 79.2242 26.5913C86.732 21.7824 92.8693 17.9474 92.9114 18.0195Z" fill="#E0E0E0"/>
<path d="M118.886 17.118C118.934 17.1902 113.53 20.8749 106.822 25.3412C100.114 29.8074 94.6314 33.378 94.5833 33.3058C94.5352 33.2337 99.9332 29.5549 106.648 25.0827C113.362 20.6105 118.838 17.0459 118.886 17.118Z" fill="#E0E0E0"/>
<path d="M193.014 123.262C193.014 123.346 152.061 123.442 101.556 123.472C51.0509 123.502 10.0854 123.472 10.0854 123.376C10.0854 123.28 51.0269 123.195 101.556 123.159C152.085 123.123 193.014 123.177 193.014 123.262Z" fill="#263238"/>
<path d="M179.31 64.8822C179.37 64.5524 179.452 64.2271 179.556 63.9084C179.807 63.031 180.008 62.1399 180.157 61.2395C180.372 59.9084 180.436 58.5575 180.35 57.2121C180.276 55.5668 179.895 53.9499 179.225 52.4453C178.505 50.9601 177.604 49.5692 176.545 48.3037C175.698 47.2578 174.738 46.3083 173.683 45.4725C172.973 44.8834 172.157 44.4347 171.279 44.15C171.047 44.0711 170.807 44.0187 170.563 43.9937C170.477 43.9871 170.392 43.9689 170.311 43.9396C170.311 43.9396 170.395 43.9396 170.57 43.9396C170.822 43.9408 171.073 43.9772 171.315 44.0478C172.207 44.2975 173.041 44.7225 173.767 45.2981C174.859 46.1248 175.851 47.0748 176.725 48.1294C177.814 49.4092 178.735 50.8233 179.466 52.3371C179.851 53.1137 180.13 53.9386 180.295 54.7896C180.457 55.5825 180.559 56.3861 180.602 57.194C180.681 58.5597 180.596 59.93 180.35 61.2756C180.185 62.1798 179.958 63.0716 179.67 63.9445C179.568 64.251 179.478 64.4855 179.418 64.6478C179.358 64.8101 179.322 64.8882 179.31 64.8822Z" fill="#263238"/>
<path d="M186.306 77.0903C186.309 73.9795 186.139 70.8709 185.795 67.7792C185.609 66.4687 183.102 61.7681 175.726 60.9746C173.815 60.7643 172.174 60.6681 170.797 60.632C168.412 60.554 166.038 60.9929 163.839 61.9184C161.639 62.8439 159.666 64.2342 158.054 65.9939C156.966 67.1849 156.082 68.5478 155.439 70.0273C152.806 76.2428 151.49 83.8528 151.49 83.8528L186.306 77.0903Z" fill="#EAEAEA"/>
<g opacity="0.3">
<path d="M185.734 77.0893H186.306C186.306 77.0893 188.187 82.7818 183.769 85.2223C180.854 86.8332 171.055 88.4202 164.732 89.3098C162.986 89.5554 161.209 89.44 159.51 88.9705C157.812 88.5011 156.227 87.6877 154.856 86.5808L151.501 83.8758L185.734 77.0893Z" fill="black"/>
</g>
<g opacity="0.3">
<path d="M186.691 100.485C186.691 100.485 187.082 114.485 179.291 115.182L173.996 115.681C172.794 115.793 171.585 115.572 170.502 115.042C169.418 114.512 168.501 113.693 167.852 112.676L163.043 105.126L186.691 100.485Z" fill="black"/>
</g>
</svg>
