<svg width="153" height="28" viewBox="0 0 153 28" fill="none" xmlns="http://www.w3.org/2000/svg">
<path d="M43.92 27.2V5H53.28C54 5 54.73 5.09 55.47 5.27C56.23 5.43 56.92 5.77 57.54 6.29C58.18 6.79 58.69 7.55 59.07 8.57C59.47 9.59 59.67 10.94 59.67 12.62C59.67 14.3 59.47 15.66 59.07 16.7C58.69 17.74 58.19 18.53 57.57 19.07C56.95 19.61 56.28 19.97 55.56 20.15C54.84 20.33 54.14 20.42 53.46 20.42C53.1 20.42 52.68 20.41 52.2 20.39C51.72 20.35 51.23 20.3 50.73 20.24C50.25 20.18 49.8 20.13 49.38 20.09C48.96 20.03 48.62 19.98 48.36 19.94V27.2H43.92ZM48.36 16.43H52.77C53.29 16.43 53.73 16.31 54.09 16.07C54.47 15.81 54.75 15.41 54.93 14.87C55.11 14.31 55.2 13.57 55.2 12.65C55.2 11.75 55.1 11.04 54.9 10.52C54.72 9.98 54.45 9.59 54.09 9.35C53.75 9.11 53.34 8.99 52.86 8.99H48.36V16.43Z" fill="#263238"/>
<path d="M69.1228 27.35C67.3428 27.35 65.9228 27.12 64.8628 26.66C63.8028 26.18 63.0328 25.34 62.5528 24.14C62.0928 22.94 61.8628 21.28 61.8628 19.16C61.8628 16.98 62.0828 15.29 62.5228 14.09C62.9628 12.89 63.7028 12.05 64.7428 11.57C65.7828 11.09 67.1928 10.85 68.9728 10.85C70.5728 10.85 71.8528 11.01 72.8128 11.33C73.7728 11.65 74.4628 12.21 74.8828 13.01C75.3228 13.81 75.5428 14.94 75.5428 16.4C75.5428 17.48 75.3228 18.34 74.8828 18.98C74.4628 19.6 73.8628 20.05 73.0828 20.33C72.3028 20.59 71.3828 20.72 70.3228 20.72H66.2728C66.3128 21.54 66.4328 22.2 66.6328 22.7C66.8528 23.18 67.2428 23.53 67.8028 23.75C68.3828 23.95 69.2128 24.05 70.2928 24.05H75.0028V26.66C74.2228 26.82 73.3628 26.98 72.4228 27.14C71.5028 27.28 70.4028 27.35 69.1228 27.35ZM66.2128 18.08H69.8728C70.4728 18.08 70.9128 17.96 71.1928 17.72C71.4728 17.48 71.6128 17.05 71.6128 16.43C71.6128 15.85 71.5228 15.39 71.3428 15.05C71.1628 14.69 70.8828 14.44 70.5028 14.3C70.1228 14.14 69.6128 14.06 68.9728 14.06C68.2928 14.06 67.7528 14.18 67.3528 14.42C66.9528 14.64 66.6628 15.04 66.4828 15.62C66.3028 16.2 66.2128 17.02 66.2128 18.08Z" fill="#263238"/>
<path d="M84.3061 27.38C83.8061 27.38 83.2661 27.36 82.6861 27.32C82.1061 27.3 81.5261 27.26 80.9461 27.2C80.3661 27.14 79.8261 27.07 79.3261 26.99C78.8261 26.89 78.4061 26.78 78.0661 26.66V24.05H85.2061C85.6261 24.05 85.9661 24.02 86.2261 23.96C86.5061 23.88 86.7061 23.75 86.8261 23.57C86.9661 23.37 87.0361 23.09 87.0361 22.73V22.22C87.0361 21.82 86.9061 21.51 86.6461 21.29C86.3861 21.07 85.9061 20.96 85.2061 20.96H82.6861C81.7661 20.96 80.9361 20.82 80.1961 20.54C79.4561 20.26 78.8661 19.8 78.4261 19.16C78.0061 18.52 77.7961 17.66 77.7961 16.58V15.65C77.7961 14.63 77.9961 13.77 78.3961 13.07C78.7961 12.37 79.4661 11.84 80.4061 11.48C81.3461 11.12 82.6361 10.94 84.2761 10.94C84.9361 10.94 85.6361 10.98 86.3761 11.06C87.1361 11.12 87.8461 11.21 88.5061 11.33C89.1861 11.43 89.7261 11.55 90.1261 11.69V14.3H83.3761C82.7961 14.3 82.3561 14.4 82.0561 14.6C81.7561 14.78 81.6061 15.13 81.6061 15.65V16.13C81.6061 16.49 81.6761 16.76 81.8161 16.94C81.9561 17.1 82.1661 17.22 82.4461 17.3C82.7461 17.36 83.1161 17.39 83.5561 17.39H86.1361C87.7761 17.39 88.9661 17.77 89.7061 18.53C90.4661 19.27 90.8461 20.3 90.8461 21.62V23.06C90.8461 24.14 90.5861 25 90.0661 25.64C89.5661 26.26 88.8261 26.71 87.8461 26.99C86.8861 27.25 85.7061 27.38 84.3061 27.38Z" fill="#263238"/>
<path d="M99.7226 27.2C98.4826 27.2 97.4726 27.02 96.6926 26.66C95.9326 26.3 95.3826 25.7 95.0426 24.86C94.7026 24.02 94.5526 22.89 94.5926 21.47L94.7426 14.66H92.2226V11.81L94.8926 11.09L95.4926 6.59H99.0026V11.09H102.783V14.66H99.0026V21.44C99.0026 21.88 99.0426 22.24 99.1226 22.52C99.2026 22.8 99.3126 23.03 99.4526 23.21C99.6126 23.37 99.7926 23.49 99.9926 23.57C100.193 23.65 100.393 23.7 100.593 23.72L102.633 23.9V27.2H99.7226Z" fill="#263238"/>
<path d="M108.683 27.38C107.463 27.38 106.473 27.02 105.713 26.3C104.953 25.58 104.573 24.58 104.573 23.3V21.86C104.573 20.64 105.003 19.64 105.863 18.86C106.723 18.06 108.063 17.66 109.883 17.66H113.993V16.55C113.993 16.05 113.903 15.64 113.723 15.32C113.543 14.98 113.203 14.74 112.703 14.6C112.223 14.44 111.483 14.36 110.483 14.36H105.653V11.78C106.433 11.54 107.333 11.33 108.353 11.15C109.393 10.97 110.643 10.88 112.103 10.88C113.443 10.88 114.583 11.04 115.523 11.36C116.483 11.68 117.203 12.23 117.683 13.01C118.183 13.79 118.433 14.87 118.433 16.25V27.2H114.923L114.203 25.49C114.063 25.65 113.823 25.83 113.483 26.03C113.143 26.23 112.723 26.44 112.223 26.66C111.743 26.86 111.193 27.03 110.573 27.17C109.973 27.31 109.343 27.38 108.683 27.38ZM110.933 24.29C111.133 24.29 111.353 24.27 111.593 24.23C111.853 24.17 112.113 24.11 112.373 24.05C112.653 23.97 112.903 23.9 113.123 23.84C113.363 23.76 113.553 23.69 113.693 23.63C113.853 23.57 113.953 23.53 113.993 23.51V19.76L111.293 19.94C110.513 20 109.933 20.2 109.553 20.54C109.193 20.88 109.013 21.34 109.013 21.92V22.58C109.013 22.98 109.093 23.31 109.253 23.57C109.433 23.83 109.663 24.02 109.943 24.14C110.243 24.24 110.573 24.29 110.933 24.29Z" fill="#263238"/>
<path d="M121.757 27.2V11.09H125.417L126.197 12.74C126.797 12.24 127.547 11.8 128.447 11.42C129.367 11.02 130.307 10.82 131.267 10.82C132.587 10.82 133.607 11.08 134.327 11.6C135.047 12.12 135.547 12.82 135.827 13.7C136.127 14.56 136.277 15.52 136.277 16.58V27.2H131.837V17.15C131.837 16.63 131.737 16.2 131.537 15.86C131.357 15.52 131.097 15.26 130.757 15.08C130.417 14.9 130.007 14.81 129.527 14.81C129.107 14.81 128.697 14.86 128.297 14.96C127.917 15.06 127.547 15.2 127.187 15.38C126.847 15.56 126.517 15.77 126.197 16.01V27.2H121.757Z" fill="#263238"/>
<path d="M143.019 27.38C141.799 27.38 140.809 27.02 140.049 26.3C139.289 25.58 138.909 24.58 138.909 23.3V21.86C138.909 20.64 139.339 19.64 140.199 18.86C141.059 18.06 142.399 17.66 144.219 17.66H148.329V16.55C148.329 16.05 148.239 15.64 148.059 15.32C147.879 14.98 147.539 14.74 147.039 14.6C146.559 14.44 145.819 14.36 144.819 14.36H139.989V11.78C140.769 11.54 141.669 11.33 142.689 11.15C143.729 10.97 144.979 10.88 146.439 10.88C147.779 10.88 148.919 11.04 149.859 11.36C150.819 11.68 151.539 12.23 152.019 13.01C152.519 13.79 152.769 14.87 152.769 16.25V27.2H149.259L148.539 25.49C148.399 25.65 148.159 25.83 147.819 26.03C147.479 26.23 147.059 26.44 146.559 26.66C146.079 26.86 145.529 27.03 144.909 27.17C144.309 27.31 143.679 27.38 143.019 27.38ZM145.269 24.29C145.469 24.29 145.689 24.27 145.929 24.23C146.189 24.17 146.449 24.11 146.709 24.05C146.989 23.97 147.239 23.9 147.459 23.84C147.699 23.76 147.889 23.69 148.029 23.63C148.189 23.57 148.289 23.53 148.329 23.51V19.76L145.629 19.94C144.849 20 144.269 20.2 143.889 20.54C143.529 20.88 143.349 21.34 143.349 21.92V22.58C143.349 22.98 143.429 23.31 143.589 23.57C143.769 23.83 143.999 24.02 144.279 24.14C144.579 24.24 144.909 24.29 145.269 24.29Z" fill="#263238"/>
<path d="M33.8555 8.12269C33.8555 8.12269 33.7118 8.73017 32.9767 8.77775C32.2417 8.82534 31.0196 8.83141 31.0196 8.83141L30.0072 8.36265L29.6275 6.97253L30.7604 7.48788L33.8555 8.12269Z" fill="#263238"/>
<path d="M33.8555 8.12268C33.8555 8.12268 34.4022 7.22362 33.3685 6.65158C32.3348 6.07953 30.6713 6.52198 30.6713 6.52198L30.8191 8.20165L33.8555 8.12268Z" fill="#FF725E"/>
<path d="M30.9163 16.3337H30.481C29.3761 16.3337 28.4803 17.2295 28.4803 18.3344V24.7746C28.4803 25.8795 29.3761 26.7753 30.481 26.7753H30.9163C32.0212 26.7753 32.917 25.8795 32.917 24.7746V18.3344C32.917 17.2295 32.0212 16.3337 30.9163 16.3337Z" fill="#263238"/>
<path d="M3.66999 16.3337H3.23463C2.12972 16.3337 1.23401 17.2295 1.23401 18.3344V24.7746C1.23401 25.8795 2.12972 26.7753 3.23463 26.7753H3.66999C4.77491 26.7753 5.67062 25.8795 5.67062 24.7746V18.3344C5.67062 17.2295 4.77491 16.3337 3.66999 16.3337Z" fill="#263238"/>
<path d="M2.53402 22.8763C2.53402 22.8763 1.01533 19.9634 0.965716 16.513C0.916105 13.0625 1.3707 11.6734 2.17561 11.0011C2.98051 10.3288 3.87857 8.84963 3.87857 8.84963C3.87857 8.84963 4.7989 5.19565 6.0746 2.84472C7.23893 0.699309 9.39041 0.921038 9.39041 0.921038C9.39041 0.921038 18.8458 0.0736076 24.7616 0.900789C24.7616 0.900789 26.3745 0.786381 27.5398 2.57945C28.7051 4.37252 30.0041 7.50812 30.318 9.12198C30.318 9.12198 31.7071 10.4665 32.1111 11.0932C32.515 11.72 33.2309 12.8408 33.1418 13.917C33.0527 14.9932 33.0962 21.0417 31.6231 23.0585L2.53402 22.8763Z" fill="#FF725E"/>
<path d="M5.20184 7.19423C5.20184 7.19423 6.0756 2.99252 7.25917 2.29898C8.44273 1.60544 16.9494 1.63582 16.9494 1.63582L25.1949 1.8697C25.1949 1.8697 26.6438 1.91121 27.1135 2.68675C27.5833 3.4623 28.9501 7.13551 28.7861 7.40078L16.0919 7.54353C16.0919 7.54353 7.15387 7.70654 6.78736 7.62453C6.42085 7.54252 5.2798 7.64782 5.20184 7.19423Z" fill="#263238"/>
<path d="M6.66486 7.19427C6.66486 7.19427 5.89133 7.08087 5.99157 6.23243C6.06953 5.57433 6.85621 3.73468 7.20652 2.94598C7.25628 2.83314 7.33434 2.73507 7.43315 2.66128C7.53195 2.58749 7.64815 2.54047 7.77046 2.52479C8.83962 2.3871 11.5449 1.93453 16.3592 1.97705C22.4947 2.03071 26.2438 2.14309 26.585 2.58453C26.8564 2.93585 27.9083 5.74442 28.0308 6.15649C28.1726 6.63336 27.5246 7.16389 26.6053 7.1892C25.686 7.21451 6.66486 7.19427 6.66486 7.19427Z" fill="#455A64"/>
<g opacity="0.4">
<path d="M25.279 16.5189C24.5773 15.2149 22.6597 15.4052 22.6597 15.4052C22.6597 15.4052 12.7761 15.3718 11.7343 15.4052C10.6924 15.4386 10.4231 15.4437 9.78425 16.114C9.14539 16.7842 7.19336 20.7784 7.19336 20.7784H27.2958C27.2958 20.7784 26.0737 17.9971 25.279 16.5189Z" fill="black"/>
</g>
<path d="M9.51086 11.4658L10.0242 12.6494C10.0242 12.6494 10.2419 13.109 11.1379 13.1819C11.8385 13.2376 23.249 13.2346 23.249 13.2346C23.249 13.2346 24.0083 13.3014 24.306 12.7729C24.5303 12.3496 24.7288 11.9131 24.9003 11.4658H9.51086Z" fill="#263238"/>
<path d="M2.50666 12.9845C2.50611 12.4605 2.5345 11.937 2.59171 11.4161C2.62411 11.1954 3.0463 10.4037 4.28758 10.27C4.61056 10.2346 4.88696 10.2184 5.11881 10.2123C5.52019 10.1996 5.91958 10.2737 6.28967 10.4296C6.65977 10.5855 6.99185 10.8194 7.2632 11.1155C7.44616 11.3161 7.59464 11.5457 7.70262 11.7948C8.14607 12.8417 8.3678 14.1235 8.3678 14.1235L2.50666 12.9845Z" fill="#EAEAEA"/>
<g opacity="0.3">
<path d="M2.59984 12.9845H2.5067C2.5067 12.9845 2.18878 13.9433 2.93294 14.3544C3.42399 14.6257 5.0743 14.893 6.13941 15.0428C6.43338 15.0843 6.73274 15.0648 7.01889 14.9858C7.30504 14.9067 7.5719 14.7697 7.80289 14.5832L8.36784 14.1276L2.59984 12.9845Z" fill="black"/>
</g>
<path d="M7.651 2.06513C7.651 2.06513 7.93145 0.84511 8.32631 0.437088C8.72117 0.0290656 9.18589 0.0402029 9.44711 0.180935C9.67997 0.30648 10.0171 0.866372 10.0171 0.866372L9.36814 0.913958C9.32912 0.849569 9.27056 0.799324 9.20099 0.770549C9.13142 0.741773 9.05447 0.735972 8.98137 0.753989C8.74648 0.820811 8.58449 1.25313 8.58449 1.25313L8.30404 1.96186L7.651 2.06513Z" fill="#E0E0E0"/>
<path d="M25.7994 1.97397C25.7994 1.97397 25.5189 0.759016 25.124 0.345931C24.7292 -0.0671534 24.2645 -0.0509539 24.0032 0.0897783C23.7704 0.215324 23.4332 0.775214 23.4332 0.775214L24.0822 0.823813C24.1211 0.75924 24.1796 0.708787 24.2492 0.679824C24.3187 0.650862 24.3958 0.644908 24.469 0.662831C24.7039 0.729653 24.8659 1.16198 24.8659 1.16198L25.1463 1.8707L25.7994 1.97397Z" fill="#E0E0E0"/>
<path d="M24.2584 10.9261C24.2584 10.9413 20.9375 10.9524 16.8411 10.9524C12.7447 10.9524 9.42383 10.9413 9.42383 10.9261C9.42383 10.9109 12.7437 10.8998 16.8411 10.8998C20.9386 10.8998 24.2584 10.9119 24.2584 10.9261Z" fill="#263238"/>
<g opacity="0.3">
<path d="M2.43882 16.925C2.43882 16.925 2.37402 19.2831 3.68617 19.4005L4.57714 19.4846C4.7795 19.5036 4.98321 19.4665 5.1658 19.3772C5.34838 19.2878 5.50275 19.1498 5.61187 18.9783L6.42184 17.7067L2.43882 16.925Z" fill="black"/>
</g>
<g opacity="0.3">
<path d="M1.69873 20.7805L32.51 20.7612C32.3348 21.6127 32.0544 22.3903 31.618 23.0555L2.53401 22.8763C2.20397 22.1994 1.92477 21.4988 1.69873 20.7805V20.7805Z" fill="black"/>
</g>
<path d="M0.144592 8.12269C0.144592 8.12269 0.287352 8.73017 1.02341 8.77775C1.75947 8.82534 2.9805 8.83141 2.9805 8.83141L3.99904 8.39606L4.42022 6.97253L3.2407 7.48788L0.144592 8.12269Z" fill="#263238"/>
<path d="M0.144603 8.12268C0.144603 8.12268 -0.402124 7.22362 0.630587 6.65158C1.6633 6.07953 3.32475 6.52198 3.32475 6.52198L3.17794 8.20165L0.144603 8.12268Z" fill="#FF725E"/>
<path d="M21.1907 16.7883H13.1112C12.5672 16.7883 12.1261 17.2294 12.1261 17.7735V17.9881C12.1261 18.5322 12.5672 18.9732 13.1112 18.9732H21.1907C21.7347 18.9732 22.1758 18.5322 22.1758 17.9881V17.7735C22.1758 17.2294 21.7347 16.7883 21.1907 16.7883Z" fill="#EAEAEA"/>
<path d="M5.32434 7.21851C5.33041 7.22863 5.14412 7.32583 4.88695 7.54047C4.81637 7.59877 4.74879 7.66061 4.68446 7.72575C4.61156 7.79359 4.54474 7.87458 4.47184 7.95659C4.32102 8.14275 4.18813 8.34276 4.07496 8.55394C3.96527 8.76741 3.87709 8.99125 3.81172 9.22217C3.78398 9.3222 3.76134 9.42358 3.74388 9.52591C3.72634 9.61524 3.71384 9.70549 3.70642 9.79623C3.67706 10.1303 3.70642 10.3389 3.69225 10.3389C3.68021 10.2915 3.67342 10.243 3.672 10.1941C3.66579 10.137 3.66309 10.0795 3.6639 10.022C3.66121 9.94604 3.6629 9.86998 3.66896 9.79421C3.67415 9.70189 3.68463 9.60994 3.70035 9.51882C3.71663 9.41384 3.73825 9.30976 3.76514 9.20698C3.82884 8.97207 3.91672 8.7444 4.02737 8.52762C4.14134 8.31187 4.27704 8.10832 4.43236 7.92014C4.50117 7.83911 4.57417 7.76172 4.65105 7.68829C4.71686 7.62343 4.78651 7.56257 4.85962 7.50604C4.91854 7.45753 4.98006 7.41224 5.04388 7.37038C5.09049 7.33692 5.13918 7.30648 5.18968 7.27925C5.23262 7.25495 5.27769 7.23461 5.32434 7.21851V7.21851Z" fill="#263238"/>
<path d="M25.5159 14.1275C25.5159 14.1427 21.6928 14.1619 16.9788 14.171C12.2648 14.1802 8.4397 14.1761 8.4397 14.1609C8.4397 14.1457 12.2617 14.1275 16.9788 14.1184C21.6959 14.1093 25.5159 14.1133 25.5159 14.1275Z" fill="#263238"/>
<path d="M18.5137 2.74342C18.5208 2.75557 17.1438 3.58275 15.4389 4.58914C13.7339 5.59553 12.3458 6.40246 12.3377 6.3893C12.3296 6.37613 13.7065 5.55098 15.4125 4.54358C17.1185 3.53618 18.5056 2.73127 18.5137 2.74342Z" fill="#E0E0E0"/>
<path d="M15.6495 3.03508C15.6576 3.04723 14.637 3.71343 13.3724 4.5234C12.1079 5.33337 11.0741 5.97932 11.0671 5.96717C11.06 5.95502 12.0795 5.28882 13.3441 4.47885C14.6086 3.66888 15.6424 3.02293 15.6495 3.03508Z" fill="#E0E0E0"/>
<path d="M20.0243 2.88312C20.0324 2.89527 19.1222 3.5159 17.9923 4.26816C16.8624 5.02042 15.939 5.62183 15.9309 5.60968C15.9228 5.59753 16.832 4.9779 17.9629 4.22463C19.0938 3.47136 20.0162 2.87097 20.0243 2.88312Z" fill="#E0E0E0"/>
<path d="M32.51 20.7612C32.51 20.7754 25.6121 20.7916 17.1054 20.7966C8.59866 20.8017 1.69873 20.7966 1.69873 20.7804C1.69873 20.7642 8.59461 20.7501 17.1054 20.744C25.6161 20.7379 32.51 20.747 32.51 20.7612Z" fill="#263238"/>
<path d="M30.2016 10.9282C30.2117 10.8726 30.2256 10.8178 30.2431 10.7642C30.2854 10.6164 30.3192 10.4663 30.3443 10.3146C30.3804 10.0904 30.3913 9.86289 30.3767 9.63627C30.3644 9.35916 30.3002 9.08682 30.1874 8.83339C30.066 8.58324 29.9144 8.34896 29.7358 8.1358C29.5932 7.95964 29.4316 7.79973 29.2539 7.65893C29.1342 7.55972 28.9968 7.48414 28.8489 7.43619C28.8099 7.4229 28.7695 7.41407 28.7284 7.40987C28.7139 7.40876 28.6996 7.40569 28.6859 7.40076C28.6859 7.40076 28.7001 7.40076 28.7294 7.40076C28.7719 7.40095 28.8142 7.40708 28.855 7.41898C29.0053 7.46103 29.1457 7.53262 29.2681 7.62957C29.4519 7.7688 29.6191 7.92882 29.7662 8.10644C29.9497 8.32202 30.1049 8.5602 30.2279 8.81517C30.2928 8.94596 30.3398 9.08491 30.3676 9.22825C30.3948 9.36179 30.412 9.49715 30.4192 9.63323C30.4325 9.86326 30.4182 10.0941 30.3767 10.3207C30.349 10.473 30.3108 10.6232 30.2623 10.7702C30.2451 10.8219 30.2299 10.8613 30.2198 10.8887C30.2097 10.916 30.2036 10.9292 30.2016 10.9282Z" fill="#263238"/>
<path d="M31.38 12.9845C31.3806 12.4606 31.3519 11.937 31.294 11.4162C31.2626 11.1955 30.8404 10.4038 29.5981 10.2701C29.2762 10.2347 28.9998 10.2185 28.7679 10.2124C28.3662 10.1993 27.9663 10.2732 27.5959 10.4291C27.2254 10.585 26.893 10.8191 26.6215 11.1155C26.4382 11.3162 26.2894 11.5457 26.1811 11.7949C25.7376 12.8418 25.5159 14.1236 25.5159 14.1236L31.38 12.9845Z" fill="#EAEAEA"/>
<g opacity="0.3">
<path d="M31.2839 12.9845H31.38C31.38 12.9845 31.6969 13.9433 30.9528 14.3544C30.4617 14.6257 28.8114 14.893 27.7463 15.0428C27.4523 15.0842 27.153 15.0648 26.8669 14.9857C26.5807 14.9066 26.3139 14.7696 26.0828 14.5832L25.5179 14.1276L31.2839 12.9845Z" fill="black"/>
</g>
<g opacity="0.3">
<path d="M31.4449 16.925C31.4449 16.925 31.5107 19.2831 30.1985 19.4005L29.3066 19.4846C29.1042 19.5034 28.9006 19.4662 28.7181 19.3768C28.5355 19.2875 28.3811 19.1496 28.2718 18.9783L27.4619 17.7067L31.4449 16.925Z" fill="black"/>
</g>
</svg>
