<svg width="34" height="27" viewBox="0 0 34 27" fill="none" xmlns="http://www.w3.org/2000/svg">
<path d="M33.8555 8.12263C33.8555 8.12263 33.7117 8.73011 32.9767 8.77769C32.2416 8.82528 31.0196 8.83135 31.0196 8.83135L30.0071 8.36258L29.6274 6.97247L30.7604 7.48782L33.8555 8.12263Z" fill="#263238"/>
<path d="M33.8556 8.12262C33.8556 8.12262 34.4023 7.22356 33.3686 6.65151C32.3349 6.07947 30.6714 6.52192 30.6714 6.52192L30.8192 8.20159L33.8556 8.12262Z" fill="#FF725E"/>
<path d="M30.9163 16.3337H30.481C29.3761 16.3337 28.4803 17.2295 28.4803 18.3344V24.7746C28.4803 25.8795 29.3761 26.7753 30.481 26.7753H30.9163C32.0212 26.7753 32.917 25.8795 32.917 24.7746V18.3344C32.917 17.2295 32.0212 16.3337 30.9163 16.3337Z" fill="#263238"/>
<path d="M3.66999 16.3337H3.23463C2.12972 16.3337 1.23401 17.2295 1.23401 18.3344V24.7746C1.23401 25.8795 2.12972 26.7753 3.23463 26.7753H3.66999C4.77491 26.7753 5.67062 25.8795 5.67062 24.7746V18.3344C5.67062 17.2295 4.77491 16.3337 3.66999 16.3337Z" fill="#263238"/>
<path d="M2.53402 22.8763C2.53402 22.8763 1.01533 19.9634 0.965716 16.513C0.916105 13.0625 1.3707 11.6734 2.17561 11.0011C2.98051 10.3288 3.87857 8.84963 3.87857 8.84963C3.87857 8.84963 4.7989 5.19565 6.0746 2.84472C7.23893 0.699309 9.39041 0.921038 9.39041 0.921038C9.39041 0.921038 18.8458 0.0736076 24.7616 0.900789C24.7616 0.900789 26.3745 0.786381 27.5398 2.57945C28.7051 4.37252 30.0041 7.50812 30.318 9.12198C30.318 9.12198 31.7071 10.4665 32.1111 11.0932C32.515 11.72 33.2309 12.8408 33.1418 13.917C33.0527 14.9932 33.0962 21.0417 31.6231 23.0585L2.53402 22.8763Z" fill="#FF725E"/>
<path d="M5.2019 7.19423C5.2019 7.19423 6.07566 2.99252 7.25923 2.29898C8.4428 1.60544 16.9495 1.63582 16.9495 1.63582L25.195 1.8697C25.195 1.8697 26.6438 1.91121 27.1136 2.68675C27.5834 3.4623 28.9502 7.13551 28.7862 7.40078L16.0919 7.54353C16.0919 7.54353 7.15393 7.70654 6.78742 7.62453C6.42091 7.54252 5.27986 7.64782 5.2019 7.19423Z" fill="#263238"/>
<path d="M6.66492 7.19421C6.66492 7.19421 5.8914 7.08081 5.99163 6.23237C6.06959 5.57427 6.85627 3.73462 7.20658 2.94591C7.25634 2.83308 7.33441 2.73501 7.43321 2.66122C7.53201 2.58743 7.64821 2.54041 7.77053 2.52473C8.83969 2.38704 11.545 1.93447 16.3592 1.97699C22.4948 2.03065 26.2439 2.14303 26.5851 2.58447C26.8564 2.93579 27.9084 5.74436 28.0309 6.15643C28.1726 6.6333 27.5247 7.16383 26.6054 7.18914C25.686 7.21445 6.66492 7.19421 6.66492 7.19421Z" fill="#455A64"/>
<g opacity="0.4">
<path d="M25.279 16.519C24.5773 15.2149 22.6597 15.4053 22.6597 15.4053C22.6597 15.4053 12.7761 15.3719 11.7343 15.4053C10.6924 15.4387 10.4231 15.4438 9.78425 16.114C9.14539 16.7843 7.19336 20.7784 7.19336 20.7784H27.2958C27.2958 20.7784 26.0737 17.9972 25.279 16.519Z" fill="black"/>
</g>
<path d="M9.51086 11.4658L10.0242 12.6494C10.0242 12.6494 10.2419 13.109 11.1379 13.1819C11.8385 13.2376 23.249 13.2346 23.249 13.2346C23.249 13.2346 24.0083 13.3014 24.306 12.7729C24.5303 12.3496 24.7288 11.9131 24.9003 11.4658H9.51086Z" fill="#263238"/>
<path d="M2.50672 12.9845C2.50617 12.4606 2.53456 11.937 2.59177 11.4162C2.62417 11.1955 3.04636 10.4038 4.28764 10.2701C4.61062 10.2347 4.88702 10.2185 5.11887 10.2124C5.52025 10.1997 5.91964 10.2738 6.28973 10.4297C6.65983 10.5855 6.99191 10.8195 7.26327 11.1155C7.44622 11.3162 7.5947 11.5457 7.70268 11.7949C8.14613 12.8418 8.36786 14.1235 8.36786 14.1235L2.50672 12.9845Z" fill="#EAEAEA"/>
<g opacity="0.3">
<path d="M2.59984 12.9845H2.5067C2.5067 12.9845 2.18878 13.9433 2.93294 14.3544C3.42399 14.6257 5.0743 14.893 6.13941 15.0428C6.43338 15.0843 6.73274 15.0648 7.01889 14.9858C7.30504 14.9067 7.5719 14.7697 7.80289 14.5832L8.36784 14.1276L2.59984 12.9845Z" fill="black"/>
</g>
<path d="M7.651 2.06507C7.651 2.06507 7.93145 0.845049 8.32631 0.437027C8.72117 0.0290046 9.18589 0.0401418 9.44711 0.180874C9.67997 0.306419 10.0171 0.866311 10.0171 0.866311L9.36814 0.913897C9.32912 0.849508 9.27056 0.799263 9.20099 0.770488C9.13142 0.741712 9.05447 0.735911 8.98137 0.753928C8.74648 0.82075 8.58449 1.25307 8.58449 1.25307L8.30404 1.96179L7.651 2.06507Z" fill="#E0E0E0"/>
<path d="M25.7994 1.97397C25.7994 1.97397 25.5189 0.759016 25.124 0.345931C24.7292 -0.0671534 24.2645 -0.0509539 24.0032 0.0897783C23.7704 0.215324 23.4332 0.775214 23.4332 0.775214L24.0822 0.823813C24.1211 0.75924 24.1796 0.708787 24.2492 0.679824C24.3187 0.650862 24.3958 0.644908 24.469 0.662831C24.7039 0.729653 24.8659 1.16198 24.8659 1.16198L25.1463 1.8707L25.7994 1.97397Z" fill="#E0E0E0"/>
<path d="M24.2584 10.9262C24.2584 10.9414 20.9375 10.9525 16.8411 10.9525C12.7447 10.9525 9.42383 10.9414 9.42383 10.9262C9.42383 10.911 12.7437 10.8998 16.8411 10.8998C20.9386 10.8998 24.2584 10.912 24.2584 10.9262Z" fill="#263238"/>
<g opacity="0.3">
<path d="M2.43888 16.925C2.43888 16.925 2.37408 19.283 3.68623 19.4005L4.5772 19.4845C4.77956 19.5036 4.98327 19.4664 5.16586 19.3771C5.34844 19.2878 5.50281 19.1497 5.61193 18.9783L6.4219 17.7066L2.43888 16.925Z" fill="black"/>
</g>
<g opacity="0.3">
<path d="M1.69873 20.7805L32.51 20.7612C32.3348 21.6127 32.0544 22.3903 31.618 23.0555L2.53401 22.8763C2.20397 22.1994 1.92477 21.4988 1.69873 20.7805V20.7805Z" fill="black"/>
</g>
<path d="M0.144653 8.12263C0.144653 8.12263 0.287413 8.73011 1.02347 8.77769C1.75953 8.82528 2.98056 8.83135 2.98056 8.83135L3.9991 8.39599L4.42028 6.97247L3.24076 7.48782L0.144653 8.12263Z" fill="#263238"/>
<path d="M0.144603 8.12262C0.144603 8.12262 -0.402124 7.22356 0.630587 6.65151C1.6633 6.07947 3.32475 6.52192 3.32475 6.52192L3.17794 8.20159L0.144603 8.12262Z" fill="#FF725E"/>
<path d="M21.1907 16.7883H13.1112C12.5672 16.7883 12.1261 17.2294 12.1261 17.7735V17.9881C12.1261 18.5322 12.5672 18.9732 13.1112 18.9732H21.1907C21.7347 18.9732 22.1758 18.5322 22.1758 17.9881V17.7735C22.1758 17.2294 21.7347 16.7883 21.1907 16.7883Z" fill="#EAEAEA"/>
<path d="M5.3244 7.21851C5.33047 7.22863 5.14418 7.32583 4.88701 7.54047C4.81643 7.59877 4.74885 7.66061 4.68452 7.72575C4.61162 7.79359 4.5448 7.87458 4.47191 7.95659C4.32108 8.14275 4.18819 8.34276 4.07502 8.55394C3.96534 8.76741 3.87715 8.99125 3.81178 9.22217C3.78404 9.3222 3.7614 9.42358 3.74394 9.52591C3.7264 9.61524 3.7139 9.70549 3.70648 9.79623C3.67712 10.1303 3.70648 10.3389 3.69231 10.3389C3.68028 10.2915 3.67348 10.243 3.67206 10.1941C3.66586 10.137 3.66315 10.0795 3.66396 10.022C3.66127 9.94604 3.66296 9.86998 3.66902 9.79421C3.67421 9.70189 3.68469 9.60994 3.70041 9.51882C3.71669 9.41384 3.73832 9.30976 3.76521 9.20698C3.8289 8.97207 3.91678 8.7444 4.02743 8.52762C4.1414 8.31187 4.2771 8.10832 4.43242 7.92014C4.50123 7.83911 4.57423 7.76172 4.65111 7.68829C4.71693 7.62343 4.78657 7.56257 4.85968 7.50604C4.9186 7.45753 4.98012 7.41224 5.04395 7.37038C5.09055 7.33692 5.13925 7.30648 5.18974 7.27925C5.23268 7.25495 5.27775 7.23461 5.3244 7.21851V7.21851Z" fill="#263238"/>
<path d="M25.5159 14.1276C25.5159 14.1428 21.6928 14.162 16.9788 14.1711C12.2648 14.1802 8.4397 14.1762 8.4397 14.161C8.4397 14.1458 12.2617 14.1276 16.9788 14.1185C21.6959 14.1093 25.5159 14.1134 25.5159 14.1276Z" fill="#263238"/>
<path d="M18.5137 2.74342C18.5208 2.75557 17.1438 3.58275 15.4389 4.58914C13.7339 5.59553 12.3458 6.40246 12.3377 6.3893C12.3296 6.37613 13.7065 5.55098 15.4125 4.54358C17.1185 3.53618 18.5056 2.73127 18.5137 2.74342Z" fill="#E0E0E0"/>
<path d="M15.6495 3.03502C15.6576 3.04717 14.637 3.71337 13.3724 4.52334C12.1079 5.33331 11.0741 5.97926 11.0671 5.96711C11.06 5.95496 12.0795 5.28876 13.3441 4.47879C14.6086 3.66882 15.6424 3.02287 15.6495 3.03502Z" fill="#E0E0E0"/>
<path d="M20.0243 2.88318C20.0324 2.89533 19.1222 3.51596 17.9923 4.26822C16.8624 5.02048 15.9391 5.62189 15.931 5.60974C15.9229 5.59759 16.8321 4.97796 17.963 4.22469C19.0939 3.47142 20.0162 2.87103 20.0243 2.88318Z" fill="#E0E0E0"/>
<path d="M32.51 20.7612C32.51 20.7754 25.6121 20.7916 17.1054 20.7966C8.59866 20.8017 1.69873 20.7966 1.69873 20.7804C1.69873 20.7642 8.59461 20.7501 17.1054 20.744C25.6161 20.7379 32.51 20.747 32.51 20.7612Z" fill="#263238"/>
<path d="M30.2016 10.9282C30.2117 10.8726 30.2256 10.8178 30.2431 10.7642C30.2854 10.6164 30.3192 10.4663 30.3443 10.3146C30.3804 10.0904 30.3913 9.86289 30.3767 9.63627C30.3644 9.35916 30.3002 9.08682 30.1874 8.83339C30.066 8.58324 29.9144 8.34896 29.7358 8.1358C29.5932 7.95964 29.4316 7.79973 29.2539 7.65893C29.1342 7.55972 28.9968 7.48414 28.8489 7.43619C28.8099 7.4229 28.7695 7.41407 28.7284 7.40987C28.7139 7.40876 28.6996 7.40569 28.6859 7.40076C28.6859 7.40076 28.7001 7.40076 28.7294 7.40076C28.7719 7.40095 28.8142 7.40708 28.855 7.41898C29.0053 7.46103 29.1457 7.53262 29.2681 7.62957C29.4519 7.7688 29.6191 7.92882 29.7662 8.10644C29.9497 8.32202 30.1049 8.5602 30.2279 8.81517C30.2928 8.94596 30.3398 9.08491 30.3676 9.22825C30.3948 9.36179 30.412 9.49715 30.4192 9.63323C30.4325 9.86326 30.4182 10.0941 30.3767 10.3207C30.349 10.473 30.3108 10.6232 30.2623 10.7702C30.2451 10.8219 30.2299 10.8613 30.2198 10.8887C30.2097 10.916 30.2036 10.9292 30.2016 10.9282Z" fill="#263238"/>
<path d="M31.38 12.9845C31.3806 12.4605 31.3519 11.9369 31.294 11.4162C31.2626 11.1955 30.8404 10.4037 29.5981 10.2701C29.2762 10.2346 28.9998 10.2184 28.7679 10.2124C28.3662 10.1992 27.9663 10.2731 27.5959 10.429C27.2254 10.5849 26.893 10.8191 26.6215 11.1155C26.4382 11.3161 26.2894 11.5456 26.1811 11.7948C25.7376 12.8417 25.5159 14.1235 25.5159 14.1235L31.38 12.9845Z" fill="#EAEAEA"/>
<g opacity="0.3">
<path d="M31.2839 12.9845H31.3801C31.3801 12.9845 31.697 13.9433 30.9528 14.3544C30.4618 14.6257 28.8115 14.893 27.7464 15.0428C27.4524 15.0842 27.1531 15.0648 26.8669 14.9857C26.5808 14.9066 26.3139 14.7696 26.0829 14.5832L25.5179 14.1276L31.2839 12.9845Z" fill="black"/>
</g>
<g opacity="0.3">
<path d="M31.4448 16.925C31.4448 16.925 31.5106 19.283 30.1985 19.4005L29.3065 19.4845C29.1042 19.5034 28.9005 19.4661 28.718 19.3768C28.5355 19.2875 28.3811 19.1496 28.2718 18.9783L27.4618 17.7066L31.4448 16.925Z" fill="black"/>
</g>
</svg>
