<svg width="20" height="22" viewBox="0 0 20 22" fill="none" xmlns="http://www.w3.org/2000/svg">
<path d="M17.5 19.5L19 21M12 17C12 17.7956 12.3161 18.5587 12.8787 19.1213C13.4413 19.6839 14.2044 20 15 20C15.7956 20 16.5587 19.6839 17.1213 19.1213C17.6839 18.5587 18 17.7956 18 17C18 16.2044 17.6839 15.4413 17.1213 14.8787C16.5587 14.3161 15.7956 14 15 14C14.2044 14 13.4413 14.3161 12.8787 14.8787C12.3161 15.4413 12 16.2044 12 17Z" stroke="#263238" stroke-width="1.91667" stroke-linecap="round" stroke-linejoin="round"/>
<path d="M17 11V4.749C17.0001 4.67006 16.9845 4.59189 16.9543 4.51896C16.9241 4.44603 16.8798 4.37978 16.824 4.324L13.676 1.176C13.5636 1.06345 13.4111 1.00014 13.252 1H1.6C1.44087 1 1.28826 1.06321 1.17574 1.17574C1.06321 1.28826 1 1.44087 1 1.6V20.4C1 20.5591 1.06321 20.7117 1.17574 20.8243C1.28826 20.9368 1.44087 21 1.6 21H8" stroke="#263238" stroke-width="1.91667" stroke-linecap="round" stroke-linejoin="round"/>
<path d="M13 4.39998V1.35398C13.0001 1.28406 13.021 1.21574 13.0599 1.15764C13.0988 1.09954 13.154 1.05426 13.2186 1.02752C13.2832 1.00078 13.3543 0.993771 13.4229 1.00738C13.4915 1.02099 13.5545 1.0546 13.604 1.10398L16.896 4.39598C16.9459 4.4453 16.9799 4.50835 16.9938 4.5771C17.0077 4.64585 17.0008 4.71718 16.974 4.78199C16.9471 4.84679 16.9016 4.90214 16.8432 4.94097C16.7848 4.97979 16.7161 5.00034 16.646 4.99998H13.6C13.4409 4.99998 13.2883 4.93677 13.1757 4.82424C13.0632 4.71172 13 4.55911 13 4.39998V4.39998Z" fill="#263238" stroke="#263238" stroke-width="1.91667" stroke-linecap="round" stroke-linejoin="round"/>
</svg>
