<svg width="158" height="40" viewBox="0 0 158 40" fill="none" xmlns="http://www.w3.org/2000/svg">
<path d="M57.5399 30.18C56.2199 30.18 55.0699 30.03 54.0899 29.73C53.1099 29.43 52.2999 28.89 51.6599 28.11C51.0199 27.31 50.5399 26.17 50.2199 24.69C49.9199 23.21 49.7699 21.28 49.7699 18.9C49.7699 16.66 49.9299 14.82 50.2499 13.38C50.5699 11.92 51.0499 10.78 51.6899 9.96C52.3499 9.14 53.1799 8.57 54.1799 8.25C55.1799 7.91 56.3599 7.74 57.7199 7.74C58.3399 7.74 59.0299 7.78 59.7899 7.86C60.5499 7.94 61.2999 8.04 62.0399 8.16C62.7799 8.26 63.4499 8.39 64.0499 8.55V10.32C63.7099 10.26 63.2299 10.2 62.6099 10.14C61.9899 10.08 61.2799 10.03 60.4799 9.99C59.6999 9.93 58.8999 9.9 58.0799 9.9C57.0199 9.9 56.1099 10.02 55.3499 10.26C54.5899 10.5 53.9699 10.95 53.4899 11.61C53.0299 12.25 52.6899 13.16 52.4699 14.34C52.2499 15.52 52.1399 17.05 52.1399 18.93C52.1399 20.83 52.2399 22.39 52.4399 23.61C52.6599 24.81 52.9999 25.73 53.4599 26.37C53.9199 27.01 54.5199 27.45 55.2599 27.69C55.9999 27.93 56.9199 28.05 58.0199 28.05C59.5199 28.05 60.7499 28.01 61.7099 27.93C62.6699 27.85 63.4499 27.76 64.0499 27.66V29.46C63.4499 29.6 62.7799 29.73 62.0399 29.85C61.3199 29.95 60.5699 30.03 59.7899 30.09C59.0299 30.15 58.2799 30.18 57.5399 30.18ZM71.9116 30.03C70.9916 30.03 70.2216 29.87 69.6016 29.55C68.9816 29.21 68.5116 28.67 68.1916 27.93C67.8716 27.17 67.7116 26.15 67.7116 24.87V7.11H70.0816V24.57C70.0816 25.53 70.1716 26.26 70.3516 26.76C70.5316 27.24 70.7916 27.58 71.1316 27.78C71.4716 27.96 71.8716 28.08 72.3316 28.14L73.9516 28.32V30.03H71.9116ZM76.8899 11.13C76.5699 11.13 76.4099 10.97 76.4099 10.65V8.31C76.4099 7.99 76.5699 7.83 76.8899 7.83H78.5699C78.7299 7.83 78.8399 7.88 78.8999 7.98C78.9799 8.06 79.0199 8.17 79.0199 8.31V10.65C79.0199 10.97 78.8699 11.13 78.5699 11.13H76.8899ZM76.5299 30V13.98H78.8999V30H76.5299ZM89.5933 30.18C87.9133 30.18 86.5833 29.93 85.6033 29.43C84.6433 28.93 83.9533 28.08 83.5333 26.88C83.1133 25.68 82.9033 24.04 82.9033 21.96C82.9033 19.84 83.1133 18.19 83.5333 17.01C83.9733 15.81 84.6833 14.97 85.6633 14.49C86.6433 14.01 87.9633 13.77 89.6233 13.77C91.0433 13.77 92.1933 13.93 93.0733 14.25C93.9733 14.57 94.6333 15.12 95.0533 15.9C95.4933 16.66 95.7133 17.72 95.7133 19.08C95.7133 20.02 95.5233 20.78 95.1433 21.36C94.7833 21.92 94.2533 22.33 93.5533 22.59C92.8733 22.83 92.0633 22.95 91.1233 22.95H85.2733C85.2933 24.25 85.4333 25.3 85.6933 26.1C85.9533 26.88 86.4233 27.45 87.1033 27.81C87.8033 28.15 88.8233 28.32 90.1633 28.32H95.3233V29.76C94.4033 29.88 93.5033 29.98 92.6233 30.06C91.7433 30.14 90.7333 30.18 89.5933 30.18ZM85.2433 21.39H90.9433C91.8433 21.39 92.5033 21.23 92.9233 20.91C93.3633 20.57 93.5833 19.97 93.5833 19.11C93.5833 18.19 93.4433 17.48 93.1633 16.98C92.9033 16.46 92.4833 16.1 91.9033 15.9C91.3433 15.68 90.5833 15.57 89.6233 15.57C88.5033 15.57 87.6233 15.74 86.9833 16.08C86.3433 16.4 85.8933 16.98 85.6333 17.82C85.3733 18.66 85.2433 19.85 85.2433 21.39ZM99.7038 30V13.98H101.564L102.074 15.75C102.834 15.21 103.724 14.74 104.744 14.34C105.764 13.92 106.824 13.71 107.924 13.71C109.104 13.71 110.054 13.96 110.774 14.46C111.494 14.96 112.024 15.62 112.364 16.44C112.704 17.26 112.874 18.15 112.874 19.11V30H110.504V19.38C110.504 18.7 110.364 18.1 110.084 17.58C109.824 17.04 109.444 16.62 108.944 16.32C108.464 16.02 107.864 15.87 107.144 15.87C106.484 15.87 105.864 15.94 105.284 16.08C104.724 16.2 104.184 16.38 103.664 16.62C103.164 16.84 102.634 17.11 102.074 17.43V30H99.7038ZM122.65 30C121.61 30 120.75 29.83 120.07 29.49C119.39 29.15 118.89 28.6 118.57 27.84C118.25 27.08 118.1 26.07 118.12 24.81L118.21 15.93H115.66V14.4L118.24 13.98L118.63 9.51H120.46V13.98H125.08V15.93H120.46V24.81C120.46 25.51 120.53 26.07 120.67 26.49C120.83 26.91 121.03 27.23 121.27 27.45C121.53 27.67 121.8 27.83 122.08 27.93C122.36 28.01 122.63 28.06 122.89 28.08L124.84 28.26V30H122.65ZM134.476 30.18C132.796 30.18 131.466 29.93 130.486 29.43C129.526 28.93 128.836 28.08 128.416 26.88C127.996 25.68 127.786 24.04 127.786 21.96C127.786 19.84 127.996 18.19 128.416 17.01C128.856 15.81 129.566 14.97 130.546 14.49C131.526 14.01 132.846 13.77 134.506 13.77C135.926 13.77 137.076 13.93 137.956 14.25C138.856 14.57 139.516 15.12 139.936 15.9C140.376 16.66 140.596 17.72 140.596 19.08C140.596 20.02 140.406 20.78 140.026 21.36C139.666 21.92 139.136 22.33 138.436 22.59C137.756 22.83 136.946 22.95 136.006 22.95H130.156C130.176 24.25 130.316 25.3 130.576 26.1C130.836 26.88 131.306 27.45 131.986 27.81C132.686 28.15 133.706 28.32 135.046 28.32H140.206V29.76C139.286 29.88 138.386 29.98 137.506 30.06C136.626 30.14 135.616 30.18 134.476 30.18ZM130.126 21.39H135.826C136.726 21.39 137.386 21.23 137.806 20.91C138.246 20.57 138.466 19.97 138.466 19.11C138.466 18.19 138.326 17.48 138.046 16.98C137.786 16.46 137.366 16.1 136.786 15.9C136.226 15.68 135.466 15.57 134.506 15.57C133.386 15.57 132.506 15.74 131.866 16.08C131.226 16.4 130.776 16.98 130.516 17.82C130.256 18.66 130.126 19.85 130.126 21.39ZM150.107 30.18C149.707 30.18 149.217 30.17 148.637 30.15C148.057 30.13 147.447 30.1 146.807 30.06C146.187 30.02 145.617 29.98 145.097 29.94C144.597 29.88 144.207 29.82 143.927 29.76V28.32H150.497C151.157 28.32 151.727 28.27 152.207 28.17C152.687 28.07 153.057 27.85 153.317 27.51C153.597 27.17 153.737 26.66 153.737 25.98V25.26C153.737 24.56 153.507 24.02 153.047 23.64C152.587 23.24 151.847 23.04 150.827 23.04H148.577C147.637 23.04 146.797 22.92 146.057 22.68C145.337 22.44 144.777 22.03 144.377 21.45C143.977 20.87 143.777 20.07 143.777 19.05V18.21C143.777 17.21 143.967 16.39 144.347 15.75C144.747 15.11 145.357 14.63 146.177 14.31C147.017 13.99 148.097 13.83 149.417 13.83C149.977 13.83 150.617 13.85 151.337 13.89C152.077 13.93 152.797 13.99 153.497 14.07C154.197 14.13 154.767 14.2 155.207 14.28V15.72H149.027C148.007 15.72 147.217 15.89 146.657 16.23C146.117 16.57 145.847 17.23 145.847 18.21V18.87C145.847 19.49 145.977 19.96 146.237 20.28C146.497 20.58 146.857 20.78 147.317 20.88C147.797 20.98 148.347 21.03 148.967 21.03H151.247C152.707 21.03 153.837 21.37 154.637 22.05C155.437 22.73 155.837 23.71 155.837 24.99V26.1C155.837 27.18 155.587 28.02 155.087 28.62C154.607 29.2 153.937 29.61 153.077 29.85C152.237 30.07 151.247 30.18 150.107 30.18Z" fill="white"/>
<path fill-rule="evenodd" clip-rule="evenodd" d="M23.5049 21.695C25.5599 23.09 26.9999 24.98 26.9999 27.5V32H32.9999V27.5C32.9999 24.23 27.6449 22.295 23.5049 21.695Z" fill="white"/>
<path d="M12 20C15.3137 20 18 17.3137 18 14C18 10.6863 15.3137 8 12 8C8.68629 8 6 10.6863 6 14C6 17.3137 8.68629 20 12 20Z" fill="white"/>
<path fill-rule="evenodd" clip-rule="evenodd" d="M21 20C24.315 20 27 17.315 27 14C27 10.685 24.315 8 21 8C20.295 8 19.635 8.15 19.005 8.36C20.2958 9.95632 20.9999 11.9471 20.9999 14C20.9999 16.0529 20.2958 18.0437 19.005 19.64C19.635 19.85 20.295 20 21 20ZM12 21.5C7.995 21.5 0 23.51 0 27.5V32H24V27.5C24 23.51 16.005 21.5 12 21.5Z" fill="white"/>
</svg>
