<svg width="163" height="40" viewBox="0 0 163 40" fill="none" xmlns="http://www.w3.org/2000/svg">
<path d="M48.54 30.18C47.22 30.18 46.07 30.03 45.09 29.73C44.11 29.43 43.3 28.89 42.66 28.11C42.02 27.31 41.54 26.17 41.22 24.69C40.92 23.21 40.77 21.28 40.77 18.9C40.77 16.66 40.93 14.82 41.25 13.38C41.57 11.92 42.05 10.78 42.69 9.96C43.35 9.14 44.18 8.57 45.18 8.25C46.18 7.91 47.36 7.74 48.72 7.74C49.34 7.74 50.03 7.78 50.79 7.86C51.55 7.94 52.3 8.04 53.04 8.16C53.78 8.26 54.45 8.39 55.05 8.55V10.32C54.71 10.26 54.23 10.2 53.61 10.14C52.99 10.08 52.28 10.03 51.48 9.99C50.7 9.93 49.9 9.9 49.08 9.9C48.02 9.9 47.11 10.02 46.35 10.26C45.59 10.5 44.97 10.95 44.49 11.61C44.03 12.25 43.69 13.16 43.47 14.34C43.25 15.52 43.14 17.05 43.14 18.93C43.14 20.83 43.24 22.39 43.44 23.61C43.66 24.81 44 25.73 44.46 26.37C44.92 27.01 45.52 27.45 46.26 27.69C47 27.93 47.92 28.05 49.02 28.05C50.52 28.05 51.75 28.01 52.71 27.93C53.67 27.85 54.45 27.76 55.05 27.66V29.46C54.45 29.6 53.78 29.73 53.04 29.85C52.32 29.95 51.57 30.03 50.79 30.09C50.03 30.15 49.28 30.18 48.54 30.18ZM61.8316 30.18C60.6516 30.18 59.6816 29.83 58.9216 29.13C58.1616 28.43 57.7816 27.44 57.7816 26.16V25.02C57.7816 23.76 58.1916 22.74 59.0116 21.96C59.8516 21.18 61.1116 20.79 62.7916 20.79H68.2216V18.81C68.2216 18.15 68.1016 17.59 67.8616 17.13C67.6416 16.65 67.2316 16.28 66.6316 16.02C66.0516 15.76 65.2016 15.63 64.0816 15.63H59.1016V14.22C59.8016 14.1 60.6116 13.99 61.5316 13.89C62.4716 13.79 63.5716 13.74 64.8316 13.74C66.1316 13.72 67.2116 13.88 68.0716 14.22C68.9316 14.56 69.5616 15.1 69.9616 15.84C70.3816 16.56 70.5916 17.51 70.5916 18.69V30H68.7616L68.3116 28.17C68.2316 28.25 67.9816 28.39 67.5616 28.59C67.1616 28.79 66.6416 29.02 66.0016 29.28C65.3816 29.52 64.7016 29.73 63.9616 29.91C63.2416 30.09 62.5316 30.18 61.8316 30.18ZM62.8216 28.41C63.1816 28.43 63.5916 28.39 64.0516 28.29C64.5116 28.19 64.9816 28.08 65.4616 27.96C65.9416 27.82 66.3816 27.68 66.7816 27.54C67.2016 27.4 67.5416 27.28 67.8016 27.18C68.0616 27.08 68.2016 27.03 68.2216 27.03V21.99L63.3316 22.2C62.1916 22.24 61.3716 22.52 60.8716 23.04C60.3916 23.56 60.1516 24.23 60.1516 25.05V25.77C60.1516 26.41 60.2816 26.93 60.5416 27.33C60.8216 27.71 61.1616 27.98 61.5616 28.14C61.9816 28.3 62.4016 28.39 62.8216 28.41ZM80.2493 30.18C78.9293 30.18 77.8393 29.9 76.9793 29.34C76.1393 28.76 75.5093 27.88 75.0893 26.7C74.6893 25.5 74.4893 23.97 74.4893 22.11C74.4893 20.13 74.6893 18.53 75.0893 17.31C75.4893 16.07 76.1293 15.17 77.0093 14.61C77.8893 14.05 79.0693 13.77 80.5493 13.77C81.4493 13.77 82.3293 13.87 83.1893 14.07C84.0493 14.27 84.8093 14.49 85.4693 14.73V7.11H87.8393V30H85.9193L85.4693 28.38C85.1693 28.64 84.7193 28.91 84.1193 29.19C83.5393 29.47 82.8993 29.71 82.1993 29.91C81.5193 30.09 80.8693 30.18 80.2493 30.18ZM80.9393 28.23C81.8593 28.23 82.6893 28.09 83.4293 27.81C84.1893 27.51 84.8693 27.2 85.4693 26.88V16.41C84.7493 16.19 84.0593 16.01 83.3993 15.87C82.7393 15.71 81.9993 15.63 81.1793 15.63C80.1593 15.63 79.3293 15.82 78.6893 16.2C78.0493 16.58 77.5793 17.24 77.2793 18.18C76.9993 19.1 76.8593 20.38 76.8593 22.02C76.8593 23.5 76.9893 24.7 77.2493 25.62C77.5293 26.54 77.9693 27.21 78.5693 27.63C79.1693 28.03 79.9593 28.23 80.9393 28.23ZM95.4352 30.18C94.2552 30.18 93.2852 29.83 92.5252 29.13C91.7652 28.43 91.3852 27.44 91.3852 26.16V25.02C91.3852 23.76 91.7952 22.74 92.6152 21.96C93.4552 21.18 94.7152 20.79 96.3952 20.79H101.825V18.81C101.825 18.15 101.705 17.59 101.465 17.13C101.245 16.65 100.835 16.28 100.235 16.02C99.6552 15.76 98.8052 15.63 97.6852 15.63H92.7052V14.22C93.4052 14.1 94.2152 13.99 95.1352 13.89C96.0752 13.79 97.1752 13.74 98.4352 13.74C99.7352 13.72 100.815 13.88 101.675 14.22C102.535 14.56 103.165 15.1 103.565 15.84C103.985 16.56 104.195 17.51 104.195 18.69V30H102.365L101.915 28.17C101.835 28.25 101.585 28.39 101.165 28.59C100.765 28.79 100.245 29.02 99.6052 29.28C98.9852 29.52 98.3052 29.73 97.5652 29.91C96.8452 30.09 96.1352 30.18 95.4352 30.18ZM96.4252 28.41C96.7852 28.43 97.1952 28.39 97.6552 28.29C98.1152 28.19 98.5852 28.08 99.0652 27.96C99.5452 27.82 99.9852 27.68 100.385 27.54C100.805 27.4 101.145 27.28 101.405 27.18C101.665 27.08 101.805 27.03 101.825 27.03V21.99L96.9352 22.2C95.7952 22.24 94.9752 22.52 94.4752 23.04C93.9952 23.56 93.7552 24.23 93.7552 25.05V25.77C93.7552 26.41 93.8852 26.93 94.1452 27.33C94.4252 27.71 94.7652 27.98 95.1652 28.14C95.5852 28.3 96.0052 28.39 96.4252 28.41ZM114.183 30.18C113.783 30.18 113.293 30.17 112.713 30.15C112.133 30.13 111.523 30.1 110.883 30.06C110.263 30.02 109.693 29.98 109.173 29.94C108.673 29.88 108.283 29.82 108.003 29.76V28.32H114.573C115.233 28.32 115.803 28.27 116.283 28.17C116.763 28.07 117.133 27.85 117.393 27.51C117.673 27.17 117.813 26.66 117.813 25.98V25.26C117.813 24.56 117.583 24.02 117.123 23.64C116.663 23.24 115.923 23.04 114.903 23.04H112.653C111.713 23.04 110.873 22.92 110.133 22.68C109.413 22.44 108.853 22.03 108.453 21.45C108.053 20.87 107.853 20.07 107.853 19.05V18.21C107.853 17.21 108.043 16.39 108.423 15.75C108.823 15.11 109.433 14.63 110.253 14.31C111.093 13.99 112.173 13.83 113.493 13.83C114.053 13.83 114.693 13.85 115.413 13.89C116.153 13.93 116.873 13.99 117.573 14.07C118.273 14.13 118.843 14.2 119.283 14.28V15.72H113.103C112.083 15.72 111.293 15.89 110.733 16.23C110.193 16.57 109.923 17.23 109.923 18.21V18.87C109.923 19.49 110.053 19.96 110.313 20.28C110.573 20.58 110.933 20.78 111.393 20.88C111.873 20.98 112.423 21.03 113.043 21.03H115.323C116.783 21.03 117.913 21.37 118.713 22.05C119.513 22.73 119.913 23.71 119.913 24.99V26.1C119.913 27.18 119.663 28.02 119.163 28.62C118.683 29.2 118.013 29.61 117.153 29.85C116.313 30.07 115.323 30.18 114.183 30.18ZM128.973 30C127.933 30 127.073 29.83 126.393 29.49C125.713 29.15 125.213 28.6 124.893 27.84C124.573 27.08 124.423 26.07 124.443 24.81L124.533 15.93H121.983V14.4L124.563 13.98L124.953 9.51H126.783V13.98H131.403V15.93H126.783V24.81C126.783 25.51 126.853 26.07 126.993 26.49C127.153 26.91 127.353 27.23 127.593 27.45C127.853 27.67 128.123 27.83 128.403 27.93C128.683 28.01 128.953 28.06 129.213 28.08L131.163 28.26V30H128.973ZM134.678 30V13.98H136.478L137.048 16.77C137.768 15.91 138.568 15.2 139.448 14.64C140.348 14.08 141.378 13.8 142.538 13.8C142.818 13.8 143.078 13.81 143.318 13.83C143.578 13.85 143.818 13.89 144.038 13.95V16.38C143.778 16.34 143.498 16.31 143.198 16.29C142.898 16.25 142.598 16.23 142.298 16.23C141.558 16.23 140.898 16.32 140.318 16.5C139.738 16.68 139.188 16.95 138.668 17.31C138.148 17.67 137.608 18.11 137.048 18.63V30H134.678ZM153.402 30.18C152.242 30.18 151.222 30.06 150.342 29.82C149.482 29.58 148.762 29.16 148.182 28.56C147.602 27.96 147.172 27.13 146.892 26.07C146.612 24.99 146.472 23.62 146.472 21.96C146.472 20.28 146.612 18.91 146.892 17.85C147.172 16.77 147.602 15.94 148.182 15.36C148.762 14.76 149.482 14.35 150.342 14.13C151.222 13.89 152.242 13.77 153.402 13.77C154.562 13.77 155.572 13.89 156.432 14.13C157.312 14.37 158.042 14.79 158.622 15.39C159.202 15.97 159.632 16.8 159.912 17.88C160.212 18.94 160.362 20.3 160.362 21.96C160.362 23.64 160.212 25.02 159.912 26.1C159.632 27.16 159.202 27.99 158.622 28.59C158.062 29.17 157.342 29.58 156.462 29.82C155.582 30.06 154.562 30.18 153.402 30.18ZM153.402 28.23C154.142 28.23 154.792 28.16 155.352 28.02C155.932 27.88 156.412 27.6 156.792 27.18C157.172 26.76 157.462 26.13 157.662 25.29C157.862 24.45 157.962 23.34 157.962 21.96C157.962 20.56 157.862 19.45 157.662 18.63C157.462 17.81 157.172 17.19 156.792 16.77C156.412 16.35 155.932 16.07 155.352 15.93C154.792 15.79 154.142 15.72 153.402 15.72C152.642 15.72 151.982 15.79 151.422 15.93C150.862 16.07 150.392 16.35 150.012 16.77C149.632 17.19 149.342 17.81 149.142 18.63C148.942 19.45 148.842 20.56 148.842 21.96C148.842 23.34 148.942 24.45 149.142 25.29C149.342 26.13 149.632 26.76 150.012 27.18C150.392 27.6 150.862 27.88 151.422 28.02C151.982 28.16 152.642 28.23 153.402 28.23Z" fill="white"/>
<path d="M24 22.6667V29.3333C24 30.0406 23.719 30.7189 23.219 31.219C22.7189 31.719 22.0406 32 21.3333 32H2.66667C1.95942 32 1.28115 31.719 0.781048 31.219C0.280951 30.7189 0 30.0406 0 29.3333V10.6667C0 9.95942 0.280951 9.28115 0.781048 8.78105C1.28115 8.28095 1.95942 8 2.66667 8H9.33333V10.6667H2.66667V29.3333H21.3333V22.6667H24Z" fill="white"/>
<path d="M24 13.3333H18.6667V8H16V13.3333H10.6667V16H16V21.3333H18.6667V16H24V13.3333Z" fill="white"/>
</svg>
