<svg width="158" height="40" viewBox="0 0 158 40" fill="none" xmlns="http://www.w3.org/2000/svg">
<path d="M50.2466 30L42.6866 7.92H45.1466L51.8066 27.51L58.4366 7.92H60.8666L53.3066 30H50.2466ZM69.0803 30.18C67.4003 30.18 66.0703 29.93 65.0903 29.43C64.1303 28.93 63.4403 28.08 63.0203 26.88C62.6003 25.68 62.3903 24.04 62.3903 21.96C62.3903 19.84 62.6003 18.19 63.0203 17.01C63.4603 15.81 64.1703 14.97 65.1503 14.49C66.1303 14.01 67.4503 13.77 69.1103 13.77C70.5303 13.77 71.6803 13.93 72.5603 14.25C73.4603 14.57 74.1203 15.12 74.5403 15.9C74.9803 16.66 75.2003 17.72 75.2003 19.08C75.2003 20.02 75.0103 20.78 74.6303 21.36C74.2703 21.92 73.7403 22.33 73.0403 22.59C72.3603 22.83 71.5503 22.95 70.6103 22.95H64.7603C64.7803 24.25 64.9203 25.3 65.1803 26.1C65.4403 26.88 65.9103 27.45 66.5903 27.81C67.2903 28.15 68.3103 28.32 69.6503 28.32H74.8103V29.76C73.8903 29.88 72.9903 29.98 72.1103 30.06C71.2303 30.14 70.2203 30.18 69.0803 30.18ZM64.7303 21.39H70.4303C71.3303 21.39 71.9903 21.23 72.4103 20.91C72.8503 20.57 73.0703 19.97 73.0703 19.11C73.0703 18.19 72.9303 17.48 72.6503 16.98C72.3903 16.46 71.9703 16.1 71.3903 15.9C70.8303 15.68 70.0703 15.57 69.1103 15.57C67.9903 15.57 67.1103 15.74 66.4703 16.08C65.8303 16.4 65.3803 16.98 65.1203 17.82C64.8603 18.66 64.7303 19.85 64.7303 21.39ZM79.1908 30V13.98H81.5608V30H79.1908ZM79.4008 11.07L82.5208 6.99H84.5308L80.7808 11.07H79.4008ZM91.8369 30.18C90.9369 30.18 90.0969 30.06 89.3169 29.82C88.5369 29.58 87.8569 29.16 87.2769 28.56C86.6969 27.96 86.2469 27.13 85.9269 26.07C85.6069 25.01 85.4469 23.66 85.4469 22.02C85.4469 20.36 85.5969 19 85.8969 17.94C86.1969 16.86 86.6269 16.02 87.1869 15.42C87.7469 14.82 88.4269 14.4 89.2269 14.16C90.0269 13.92 90.9169 13.8 91.8969 13.8C92.6969 13.8 93.5669 13.84 94.5069 13.92C95.4469 13.98 96.3469 14.08 97.2069 14.22V15.63H92.5269C91.5069 15.63 90.6469 15.8 89.9469 16.14C89.2469 16.48 88.7169 17.12 88.3569 18.06C87.9969 18.98 87.8169 20.32 87.8169 22.08C87.8169 23.78 88.0069 25.08 88.3869 25.98C88.7669 26.88 89.3069 27.5 90.0069 27.84C90.7069 28.16 91.5569 28.32 92.5569 28.32H97.4469V29.7C96.9869 29.78 96.4469 29.86 95.8269 29.94C95.2269 30.02 94.5869 30.08 93.9069 30.12C93.2269 30.16 92.5369 30.18 91.8369 30.18ZM105.494 30.18C103.954 30.18 102.764 29.78 101.924 28.98C101.104 28.18 100.694 26.94 100.694 25.26V13.98H103.064V24.66C103.064 26 103.364 26.91 103.964 27.39C104.584 27.85 105.444 28.08 106.544 28.08C107.484 28.08 108.344 27.95 109.124 27.69C109.904 27.41 110.704 27.03 111.524 26.55V13.98H113.894V30H112.034L111.524 28.23C110.704 28.75 109.774 29.21 108.734 29.61C107.714 29.99 106.634 30.18 105.494 30.18ZM122.561 30.03C121.641 30.03 120.871 29.87 120.251 29.55C119.631 29.21 119.161 28.67 118.841 27.93C118.521 27.17 118.361 26.15 118.361 24.87V7.11H120.731V24.57C120.731 25.53 120.821 26.26 121.001 26.76C121.181 27.24 121.441 27.58 121.781 27.78C122.121 27.96 122.521 28.08 122.981 28.14L124.601 28.32V30.03H122.561ZM133.539 30.18C132.379 30.18 131.359 30.06 130.479 29.82C129.619 29.58 128.899 29.16 128.319 28.56C127.739 27.96 127.309 27.13 127.029 26.07C126.749 24.99 126.609 23.62 126.609 21.96C126.609 20.28 126.749 18.91 127.029 17.85C127.309 16.77 127.739 15.94 128.319 15.36C128.899 14.76 129.619 14.35 130.479 14.13C131.359 13.89 132.379 13.77 133.539 13.77C134.699 13.77 135.709 13.89 136.569 14.13C137.449 14.37 138.179 14.79 138.759 15.39C139.339 15.97 139.769 16.8 140.049 17.88C140.349 18.94 140.499 20.3 140.499 21.96C140.499 23.64 140.349 25.02 140.049 26.1C139.769 27.16 139.339 27.99 138.759 28.59C138.199 29.17 137.479 29.58 136.599 29.82C135.719 30.06 134.699 30.18 133.539 30.18ZM133.539 28.23C134.279 28.23 134.929 28.16 135.489 28.02C136.069 27.88 136.549 27.6 136.929 27.18C137.309 26.76 137.599 26.13 137.799 25.29C137.999 24.45 138.099 23.34 138.099 21.96C138.099 20.56 137.999 19.45 137.799 18.63C137.599 17.81 137.309 17.19 136.929 16.77C136.549 16.35 136.069 16.07 135.489 15.93C134.929 15.79 134.279 15.72 133.539 15.72C132.779 15.72 132.119 15.79 131.559 15.93C130.999 16.07 130.529 16.35 130.149 16.77C129.769 17.19 129.479 17.81 129.279 18.63C129.079 19.45 128.979 20.56 128.979 21.96C128.979 23.34 129.079 24.45 129.279 25.29C129.479 26.13 129.769 26.76 130.149 27.18C130.529 27.6 130.999 27.88 131.559 28.02C132.119 28.16 132.779 28.23 133.539 28.23ZM150.014 30.18C149.614 30.18 149.124 30.17 148.544 30.15C147.964 30.13 147.354 30.1 146.714 30.06C146.094 30.02 145.524 29.98 145.004 29.94C144.504 29.88 144.114 29.82 143.834 29.76V28.32H150.404C151.064 28.32 151.634 28.27 152.114 28.17C152.594 28.07 152.964 27.85 153.224 27.51C153.504 27.17 153.644 26.66 153.644 25.98V25.26C153.644 24.56 153.414 24.02 152.954 23.64C152.494 23.24 151.754 23.04 150.734 23.04H148.484C147.544 23.04 146.704 22.92 145.964 22.68C145.244 22.44 144.684 22.03 144.284 21.45C143.884 20.87 143.684 20.07 143.684 19.05V18.21C143.684 17.21 143.874 16.39 144.254 15.75C144.654 15.11 145.264 14.63 146.084 14.31C146.924 13.99 148.004 13.83 149.324 13.83C149.884 13.83 150.524 13.85 151.244 13.89C151.984 13.93 152.704 13.99 153.404 14.07C154.104 14.13 154.674 14.2 155.114 14.28V15.72H148.934C147.914 15.72 147.124 15.89 146.564 16.23C146.024 16.57 145.754 17.23 145.754 18.21V18.87C145.754 19.49 145.884 19.96 146.144 20.28C146.404 20.58 146.764 20.78 147.224 20.88C147.704 20.98 148.254 21.03 148.874 21.03H151.154C152.614 21.03 153.744 21.37 154.544 22.05C155.344 22.73 155.744 23.71 155.744 24.99V26.1C155.744 27.18 155.494 28.02 154.994 28.62C154.514 29.2 153.844 29.61 152.984 29.85C152.144 30.07 151.154 30.18 150.014 30.18Z" fill="white"/>
<path d="M25.0293 16.2067L23.2053 10.7347C22.9407 9.93798 22.4318 9.24493 21.7508 8.75401C21.0698 8.26309 20.2515 7.99926 19.412 8H7.25467C6.41518 7.99926 5.59682 8.26309 4.91585 8.75401C4.23487 9.24493 3.72593 9.93798 3.46133 10.7347L1.63733 16.2067C1.1523 16.4096 0.738081 16.7514 0.446756 17.1891C0.155431 17.6268 -6.412e-07 18.1409 0 18.6667V25.3333C0 26.3173 0.538667 27.168 1.33333 27.6307V30.6667C1.33333 31.0203 1.47381 31.3594 1.72386 31.6095C1.97391 31.8595 2.31304 32 2.66667 32H4C4.35362 32 4.69276 31.8595 4.94281 31.6095C5.19286 31.3594 5.33333 31.0203 5.33333 30.6667V28H21.3333V30.6667C21.3333 31.0203 21.4738 31.3594 21.7239 31.6095C21.9739 31.8595 22.313 32 22.6667 32H24C24.3536 32 24.6928 31.8595 24.9428 31.6095C25.1929 31.3594 25.3333 31.0203 25.3333 30.6667V27.6307C25.7379 27.3987 26.0741 27.0642 26.3082 26.6609C26.5422 26.2575 26.6659 25.7997 26.6667 25.3333V18.6667C26.6667 18.1409 26.5112 17.6268 26.2199 17.1891C25.9286 16.7514 25.5144 16.4096 25.0293 16.2067ZM7.25467 10.6667H19.4107C19.9853 10.6667 20.4947 11.032 20.676 11.5787L22.1507 16H4.516L5.98933 11.5787C6.0778 11.3131 6.24762 11.082 6.47473 10.9183C6.70184 10.7547 6.97471 10.6666 7.25467 10.6667ZM4.66667 24C4.40393 23.9999 4.14379 23.9481 3.9011 23.8475C3.6584 23.7468 3.43789 23.5994 3.25218 23.4135C3.06646 23.2277 2.91917 23.0071 2.8187 22.7643C2.71824 22.5216 2.66658 22.2614 2.66667 21.9987C2.66675 21.7359 2.71859 21.4758 2.81921 21.2331C2.91984 20.9904 3.06728 20.7699 3.25312 20.5842C3.43896 20.3985 3.65956 20.2512 3.90233 20.1507C4.14509 20.0502 4.40527 19.9986 4.668 19.9987C5.19861 19.9988 5.70742 20.2098 6.08249 20.5851C6.45756 20.9604 6.66818 21.4694 6.668 22C6.66782 22.5306 6.45687 23.0394 6.08155 23.4145C5.70622 23.7896 5.19728 24.0002 4.66667 24ZM22 24C21.7373 23.9999 21.4771 23.9481 21.2344 23.8475C20.9917 23.7468 20.7712 23.5994 20.5855 23.4135C20.3998 23.2277 20.2525 23.0071 20.152 22.7643C20.0516 22.5216 19.9999 22.2614 20 21.9987C20.0001 21.7359 20.0519 21.4758 20.1525 21.2331C20.2532 20.9904 20.4006 20.7699 20.5865 20.5842C20.7723 20.3985 20.9929 20.2512 21.2357 20.1507C21.4784 20.0502 21.7386 19.9986 22.0013 19.9987C22.5319 19.9988 23.0407 20.2098 23.4158 20.5851C23.7909 20.9604 24.0015 21.4694 24.0013 22C24.0012 22.5306 23.7902 23.0394 23.4149 23.4145C23.0396 23.7896 22.5306 24.0002 22 24Z" fill="white"/>
</svg>
