<svg width="288" height="40" viewBox="0 0 288 40" fill="none" xmlns="http://www.w3.org/2000/svg">
<path d="M48.54 30.18C47.22 30.18 46.07 30.03 45.09 29.73C44.11 29.43 43.3 28.89 42.66 28.11C42.02 27.31 41.54 26.17 41.22 24.69C40.92 23.21 40.77 21.28 40.77 18.9C40.77 16.66 40.93 14.82 41.25 13.38C41.57 11.92 42.05 10.78 42.69 9.96C43.35 9.14 44.18 8.57 45.18 8.25C46.18 7.91 47.36 7.74 48.72 7.74C49.34 7.74 50.03 7.78 50.79 7.86C51.55 7.94 52.3 8.04 53.04 8.16C53.78 8.26 54.45 8.39 55.05 8.55V10.32C54.71 10.26 54.23 10.2 53.61 10.14C52.99 10.08 52.28 10.03 51.48 9.99C50.7 9.93 49.9 9.9 49.08 9.9C48.02 9.9 47.11 10.02 46.35 10.26C45.59 10.5 44.97 10.95 44.49 11.61C44.03 12.25 43.69 13.16 43.47 14.34C43.25 15.52 43.14 17.05 43.14 18.93C43.14 20.83 43.24 22.39 43.44 23.61C43.66 24.81 44 25.73 44.46 26.37C44.92 27.01 45.52 27.45 46.26 27.69C47 27.93 47.92 28.05 49.02 28.05C50.52 28.05 51.75 28.01 52.71 27.93C53.67 27.85 54.45 27.76 55.05 27.66V29.46C54.45 29.6 53.78 29.73 53.04 29.85C52.32 29.95 51.57 30.03 50.79 30.09C50.03 30.15 49.28 30.18 48.54 30.18ZM61.8316 30.18C60.6516 30.18 59.6816 29.83 58.9216 29.13C58.1616 28.43 57.7816 27.44 57.7816 26.16V25.02C57.7816 23.76 58.1916 22.74 59.0116 21.96C59.8516 21.18 61.1116 20.79 62.7916 20.79H68.2216V18.81C68.2216 18.15 68.1016 17.59 67.8616 17.13C67.6416 16.65 67.2316 16.28 66.6316 16.02C66.0516 15.76 65.2016 15.63 64.0816 15.63H59.1016V14.22C59.8016 14.1 60.6116 13.99 61.5316 13.89C62.4716 13.79 63.5716 13.74 64.8316 13.74C66.1316 13.72 67.2116 13.88 68.0716 14.22C68.9316 14.56 69.5616 15.1 69.9616 15.84C70.3816 16.56 70.5916 17.51 70.5916 18.69V30H68.7616L68.3116 28.17C68.2316 28.25 67.9816 28.39 67.5616 28.59C67.1616 28.79 66.6416 29.02 66.0016 29.28C65.3816 29.52 64.7016 29.73 63.9616 29.91C63.2416 30.09 62.5316 30.18 61.8316 30.18ZM62.8216 28.41C63.1816 28.43 63.5916 28.39 64.0516 28.29C64.5116 28.19 64.9816 28.08 65.4616 27.96C65.9416 27.82 66.3816 27.68 66.7816 27.54C67.2016 27.4 67.5416 27.28 67.8016 27.18C68.0616 27.08 68.2016 27.03 68.2216 27.03V21.99L63.3316 22.2C62.1916 22.24 61.3716 22.52 60.8716 23.04C60.3916 23.56 60.1516 24.23 60.1516 25.05V25.77C60.1516 26.41 60.2816 26.93 60.5416 27.33C60.8216 27.71 61.1616 27.98 61.5616 28.14C61.9816 28.3 62.4016 28.39 62.8216 28.41ZM80.2493 30.18C78.9293 30.18 77.8393 29.9 76.9793 29.34C76.1393 28.76 75.5093 27.88 75.0893 26.7C74.6893 25.5 74.4893 23.97 74.4893 22.11C74.4893 20.13 74.6893 18.53 75.0893 17.31C75.4893 16.07 76.1293 15.17 77.0093 14.61C77.8893 14.05 79.0693 13.77 80.5493 13.77C81.4493 13.77 82.3293 13.87 83.1893 14.07C84.0493 14.27 84.8093 14.49 85.4693 14.73V7.11H87.8393V30H85.9193L85.4693 28.38C85.1693 28.64 84.7193 28.91 84.1193 29.19C83.5393 29.47 82.8993 29.71 82.1993 29.91C81.5193 30.09 80.8693 30.18 80.2493 30.18ZM80.9393 28.23C81.8593 28.23 82.6893 28.09 83.4293 27.81C84.1893 27.51 84.8693 27.2 85.4693 26.88V16.41C84.7493 16.19 84.0593 16.01 83.3993 15.87C82.7393 15.71 81.9993 15.63 81.1793 15.63C80.1593 15.63 79.3293 15.82 78.6893 16.2C78.0493 16.58 77.5793 17.24 77.2793 18.18C76.9993 19.1 76.8593 20.38 76.8593 22.02C76.8593 23.5 76.9893 24.7 77.2493 25.62C77.5293 26.54 77.9693 27.21 78.5693 27.63C79.1693 28.03 79.9593 28.23 80.9393 28.23ZM95.4352 30.18C94.2552 30.18 93.2852 29.83 92.5252 29.13C91.7652 28.43 91.3852 27.44 91.3852 26.16V25.02C91.3852 23.76 91.7952 22.74 92.6152 21.96C93.4552 21.18 94.7152 20.79 96.3952 20.79H101.825V18.81C101.825 18.15 101.705 17.59 101.465 17.13C101.245 16.65 100.835 16.28 100.235 16.02C99.6552 15.76 98.8052 15.63 97.6852 15.63H92.7052V14.22C93.4052 14.1 94.2152 13.99 95.1352 13.89C96.0752 13.79 97.1752 13.74 98.4352 13.74C99.7352 13.72 100.815 13.88 101.675 14.22C102.535 14.56 103.165 15.1 103.565 15.84C103.985 16.56 104.195 17.51 104.195 18.69V30H102.365L101.915 28.17C101.835 28.25 101.585 28.39 101.165 28.59C100.765 28.79 100.245 29.02 99.6052 29.28C98.9852 29.52 98.3052 29.73 97.5652 29.91C96.8452 30.09 96.1352 30.18 95.4352 30.18ZM96.4252 28.41C96.7852 28.43 97.1952 28.39 97.6552 28.29C98.1152 28.19 98.5852 28.08 99.0652 27.96C99.5452 27.82 99.9852 27.68 100.385 27.54C100.805 27.4 101.145 27.28 101.405 27.18C101.665 27.08 101.805 27.03 101.825 27.03V21.99L96.9352 22.2C95.7952 22.24 94.9752 22.52 94.4752 23.04C93.9952 23.56 93.7552 24.23 93.7552 25.05V25.77C93.7552 26.41 93.8852 26.93 94.1452 27.33C94.4252 27.71 94.7652 27.98 95.1652 28.14C95.5852 28.3 96.0052 28.39 96.4252 28.41ZM114.183 30.18C113.783 30.18 113.293 30.17 112.713 30.15C112.133 30.13 111.523 30.1 110.883 30.06C110.263 30.02 109.693 29.98 109.173 29.94C108.673 29.88 108.283 29.82 108.003 29.76V28.32H114.573C115.233 28.32 115.803 28.27 116.283 28.17C116.763 28.07 117.133 27.85 117.393 27.51C117.673 27.17 117.813 26.66 117.813 25.98V25.26C117.813 24.56 117.583 24.02 117.123 23.64C116.663 23.24 115.923 23.04 114.903 23.04H112.653C111.713 23.04 110.873 22.92 110.133 22.68C109.413 22.44 108.853 22.03 108.453 21.45C108.053 20.87 107.853 20.07 107.853 19.05V18.21C107.853 17.21 108.043 16.39 108.423 15.75C108.823 15.11 109.433 14.63 110.253 14.31C111.093 13.99 112.173 13.83 113.493 13.83C114.053 13.83 114.693 13.85 115.413 13.89C116.153 13.93 116.873 13.99 117.573 14.07C118.273 14.13 118.843 14.2 119.283 14.28V15.72H113.103C112.083 15.72 111.293 15.89 110.733 16.23C110.193 16.57 109.923 17.23 109.923 18.21V18.87C109.923 19.49 110.053 19.96 110.313 20.28C110.573 20.58 110.933 20.78 111.393 20.88C111.873 20.98 112.423 21.03 113.043 21.03H115.323C116.783 21.03 117.913 21.37 118.713 22.05C119.513 22.73 119.913 23.71 119.913 24.99V26.1C119.913 27.18 119.663 28.02 119.163 28.62C118.683 29.2 118.013 29.61 117.153 29.85C116.313 30.07 115.323 30.18 114.183 30.18ZM128.973 30C127.933 30 127.073 29.83 126.393 29.49C125.713 29.15 125.213 28.6 124.893 27.84C124.573 27.08 124.423 26.07 124.443 24.81L124.533 15.93H121.983V14.4L124.563 13.98L124.953 9.51H126.783V13.98H131.403V15.93H126.783V24.81C126.783 25.51 126.853 26.07 126.993 26.49C127.153 26.91 127.353 27.23 127.593 27.45C127.853 27.67 128.123 27.83 128.403 27.93C128.683 28.01 128.953 28.06 129.213 28.08L131.163 28.26V30H128.973ZM134.678 30V13.98H136.478L137.048 16.77C137.768 15.91 138.568 15.2 139.448 14.64C140.348 14.08 141.378 13.8 142.538 13.8C142.818 13.8 143.078 13.81 143.318 13.83C143.578 13.85 143.818 13.89 144.038 13.95V16.38C143.778 16.34 143.498 16.31 143.198 16.29C142.898 16.25 142.598 16.23 142.298 16.23C141.558 16.23 140.898 16.32 140.318 16.5C139.738 16.68 139.188 16.95 138.668 17.31C138.148 17.67 137.608 18.11 137.048 18.63V30H134.678ZM149.576 30.18C148.396 30.18 147.426 29.83 146.666 29.13C145.906 28.43 145.526 27.44 145.526 26.16V25.02C145.526 23.76 145.936 22.74 146.756 21.96C147.596 21.18 148.856 20.79 150.536 20.79H155.966V18.81C155.966 18.15 155.846 17.59 155.606 17.13C155.386 16.65 154.976 16.28 154.376 16.02C153.796 15.76 152.946 15.63 151.826 15.63H146.846V14.22C147.546 14.1 148.356 13.99 149.276 13.89C150.216 13.79 151.316 13.74 152.576 13.74C153.876 13.72 154.956 13.88 155.816 14.22C156.676 14.56 157.306 15.1 157.706 15.84C158.126 16.56 158.336 17.51 158.336 18.69V30H156.506L156.056 28.17C155.976 28.25 155.726 28.39 155.306 28.59C154.906 28.79 154.386 29.02 153.746 29.28C153.126 29.52 152.446 29.73 151.706 29.91C150.986 30.09 150.276 30.18 149.576 30.18ZM150.566 28.41C150.926 28.43 151.336 28.39 151.796 28.29C152.256 28.19 152.726 28.08 153.206 27.96C153.686 27.82 154.126 27.68 154.526 27.54C154.946 27.4 155.286 27.28 155.546 27.18C155.806 27.08 155.946 27.03 155.966 27.03V21.99L151.076 22.2C149.936 22.24 149.116 22.52 148.616 23.04C148.136 23.56 147.896 24.23 147.896 25.05V25.77C147.896 26.41 148.026 26.93 148.286 27.33C148.566 27.71 148.906 27.98 149.306 28.14C149.726 28.3 150.146 28.39 150.566 28.41ZM162.803 30V13.98H164.603L165.173 16.77C165.893 15.91 166.693 15.2 167.573 14.64C168.473 14.08 169.503 13.8 170.663 13.8C170.943 13.8 171.203 13.81 171.443 13.83C171.703 13.85 171.943 13.89 172.163 13.95V16.38C171.903 16.34 171.623 16.31 171.323 16.29C171.023 16.25 170.723 16.23 170.423 16.23C169.683 16.23 169.023 16.32 168.443 16.5C167.863 16.68 167.313 16.95 166.793 17.31C166.273 17.67 165.733 18.11 165.173 18.63V30H162.803ZM189.073 30.18C188.173 30.18 187.333 30.06 186.553 29.82C185.773 29.58 185.093 29.16 184.513 28.56C183.933 27.96 183.483 27.13 183.163 26.07C182.843 25.01 182.683 23.66 182.683 22.02C182.683 20.36 182.833 19 183.133 17.94C183.433 16.86 183.863 16.02 184.423 15.42C184.983 14.82 185.663 14.4 186.463 14.16C187.263 13.92 188.153 13.8 189.133 13.8C189.933 13.8 190.803 13.84 191.743 13.92C192.683 13.98 193.583 14.08 194.443 14.22V15.63H189.763C188.743 15.63 187.883 15.8 187.183 16.14C186.483 16.48 185.953 17.12 185.593 18.06C185.233 18.98 185.053 20.32 185.053 22.08C185.053 23.78 185.243 25.08 185.623 25.98C186.003 26.88 186.543 27.5 187.243 27.84C187.943 28.16 188.793 28.32 189.793 28.32H194.683V29.7C194.223 29.78 193.683 29.86 193.063 29.94C192.463 30.02 191.823 30.08 191.143 30.12C190.463 30.16 189.773 30.18 189.073 30.18ZM202.16 30.03C201.24 30.03 200.47 29.87 199.85 29.55C199.23 29.21 198.76 28.67 198.44 27.93C198.12 27.17 197.96 26.15 197.96 24.87V7.11H200.33V24.57C200.33 25.53 200.42 26.26 200.6 26.76C200.78 27.24 201.04 27.58 201.38 27.78C201.72 27.96 202.12 28.08 202.58 28.14L204.2 28.32V30.03H202.16ZM207.138 11.13C206.818 11.13 206.658 10.97 206.658 10.65V8.31C206.658 7.99 206.818 7.83 207.138 7.83H208.818C208.978 7.83 209.088 7.88 209.148 7.98C209.228 8.06 209.268 8.17 209.268 8.31V10.65C209.268 10.97 209.118 11.13 208.818 11.13H207.138ZM206.778 30V13.98H209.148V30H206.778ZM219.841 30.18C218.161 30.18 216.831 29.93 215.851 29.43C214.891 28.93 214.201 28.08 213.781 26.88C213.361 25.68 213.151 24.04 213.151 21.96C213.151 19.84 213.361 18.19 213.781 17.01C214.221 15.81 214.931 14.97 215.911 14.49C216.891 14.01 218.211 13.77 219.871 13.77C221.291 13.77 222.441 13.93 223.321 14.25C224.221 14.57 224.881 15.12 225.301 15.9C225.741 16.66 225.961 17.72 225.961 19.08C225.961 20.02 225.771 20.78 225.391 21.36C225.031 21.92 224.501 22.33 223.801 22.59C223.121 22.83 222.311 22.95 221.371 22.95H215.521C215.541 24.25 215.681 25.3 215.941 26.1C216.201 26.88 216.671 27.45 217.351 27.81C218.051 28.15 219.071 28.32 220.411 28.32H225.571V29.76C224.651 29.88 223.751 29.98 222.871 30.06C221.991 30.14 220.981 30.18 219.841 30.18ZM215.491 21.39H221.191C222.091 21.39 222.751 21.23 223.171 20.91C223.611 20.57 223.831 19.97 223.831 19.11C223.831 18.19 223.691 17.48 223.411 16.98C223.151 16.46 222.731 16.1 222.151 15.9C221.591 15.68 220.831 15.57 219.871 15.57C218.751 15.57 217.871 15.74 217.231 16.08C216.591 16.4 216.141 16.98 215.881 17.82C215.621 18.66 215.491 19.85 215.491 21.39ZM229.952 30V13.98H231.812L232.322 15.75C233.082 15.21 233.972 14.74 234.992 14.34C236.012 13.92 237.072 13.71 238.172 13.71C239.352 13.71 240.302 13.96 241.022 14.46C241.742 14.96 242.272 15.62 242.612 16.44C242.952 17.26 243.122 18.15 243.122 19.11V30H240.752V19.38C240.752 18.7 240.612 18.1 240.332 17.58C240.072 17.04 239.692 16.62 239.192 16.32C238.712 16.02 238.112 15.87 237.392 15.87C236.732 15.87 236.112 15.94 235.532 16.08C234.972 16.2 234.432 16.38 233.912 16.62C233.412 16.84 232.882 17.11 232.322 17.43V30H229.952ZM252.899 30C251.859 30 250.999 29.83 250.319 29.49C249.639 29.15 249.139 28.6 248.819 27.84C248.499 27.08 248.349 26.07 248.369 24.81L248.459 15.93H245.909V14.4L248.489 13.98L248.879 9.51H250.709V13.98H255.329V15.93H250.709V24.81C250.709 25.51 250.779 26.07 250.919 26.49C251.079 26.91 251.279 27.23 251.519 27.45C251.779 27.67 252.049 27.83 252.329 27.93C252.609 28.01 252.879 28.06 253.139 28.08L255.089 28.26V30H252.899ZM264.724 30.18C263.044 30.18 261.714 29.93 260.734 29.43C259.774 28.93 259.084 28.08 258.664 26.88C258.244 25.68 258.034 24.04 258.034 21.96C258.034 19.84 258.244 18.19 258.664 17.01C259.104 15.81 259.814 14.97 260.794 14.49C261.774 14.01 263.094 13.77 264.754 13.77C266.174 13.77 267.324 13.93 268.204 14.25C269.104 14.57 269.764 15.12 270.184 15.9C270.624 16.66 270.844 17.72 270.844 19.08C270.844 20.02 270.654 20.78 270.274 21.36C269.914 21.92 269.384 22.33 268.684 22.59C268.004 22.83 267.194 22.95 266.254 22.95H260.404C260.424 24.25 260.564 25.3 260.824 26.1C261.084 26.88 261.554 27.45 262.234 27.81C262.934 28.15 263.954 28.32 265.294 28.32H270.454V29.76C269.534 29.88 268.634 29.98 267.754 30.06C266.874 30.14 265.864 30.18 264.724 30.18ZM260.374 21.39H266.074C266.974 21.39 267.634 21.23 268.054 20.91C268.494 20.57 268.714 19.97 268.714 19.11C268.714 18.19 268.574 17.48 268.294 16.98C268.034 16.46 267.614 16.1 267.034 15.9C266.474 15.68 265.714 15.57 264.754 15.57C263.634 15.57 262.754 15.74 262.114 16.08C261.474 16.4 261.024 16.98 260.764 17.82C260.504 18.66 260.374 19.85 260.374 21.39ZM280.355 30.18C279.955 30.18 279.465 30.17 278.885 30.15C278.305 30.13 277.695 30.1 277.055 30.06C276.435 30.02 275.865 29.98 275.345 29.94C274.845 29.88 274.455 29.82 274.175 29.76V28.32H280.745C281.405 28.32 281.975 28.27 282.455 28.17C282.935 28.07 283.305 27.85 283.565 27.51C283.845 27.17 283.985 26.66 283.985 25.98V25.26C283.985 24.56 283.755 24.02 283.295 23.64C282.835 23.24 282.095 23.04 281.075 23.04H278.825C277.885 23.04 277.045 22.92 276.305 22.68C275.585 22.44 275.025 22.03 274.625 21.45C274.225 20.87 274.025 20.07 274.025 19.05V18.21C274.025 17.21 274.215 16.39 274.595 15.75C274.995 15.11 275.605 14.63 276.425 14.31C277.265 13.99 278.345 13.83 279.665 13.83C280.225 13.83 280.865 13.85 281.585 13.89C282.325 13.93 283.045 13.99 283.745 14.07C284.445 14.13 285.015 14.2 285.455 14.28V15.72H279.275C278.255 15.72 277.465 15.89 276.905 16.23C276.365 16.57 276.095 17.23 276.095 18.21V18.87C276.095 19.49 276.225 19.96 276.485 20.28C276.745 20.58 277.105 20.78 277.565 20.88C278.045 20.98 278.595 21.03 279.215 21.03H281.495C282.955 21.03 284.085 21.37 284.885 22.05C285.685 22.73 286.085 23.71 286.085 24.99V26.1C286.085 27.18 285.835 28.02 285.335 28.62C284.855 29.2 284.185 29.61 283.325 29.85C282.485 30.07 281.495 30.18 280.355 30.18Z" fill="white"/>
<path d="M24 22.6667V29.3333C24 30.0406 23.719 30.7189 23.219 31.219C22.7189 31.719 22.0406 32 21.3333 32H2.66667C1.95942 32 1.28115 31.719 0.781048 31.219C0.280951 30.7189 0 30.0406 0 29.3333V10.6667C0 9.95942 0.280951 9.28115 0.781048 8.78105C1.28115 8.28095 1.95942 8 2.66667 8H9.33333V10.6667H2.66667V29.3333H21.3333V22.6667H24Z" fill="white"/>
<path d="M24 13.3333H18.6667V8H16V13.3333H10.6667V16H16V21.3333H18.6667V16H24V13.3333Z" fill="white"/>
</svg>
