<svg width="294" height="40" viewBox="0 0 294 40" fill="none" xmlns="http://www.w3.org/2000/svg">
<path d="M48.54 30.18C47.22 30.18 46.07 30.03 45.09 29.73C44.11 29.43 43.3 28.89 42.66 28.11C42.02 27.31 41.54 26.17 41.22 24.69C40.92 23.21 40.77 21.28 40.77 18.9C40.77 16.66 40.93 14.82 41.25 13.38C41.57 11.92 42.05 10.78 42.69 9.96C43.35 9.14 44.18 8.57 45.18 8.25C46.18 7.91 47.36 7.74 48.72 7.74C49.34 7.74 50.03 7.78 50.79 7.86C51.55 7.94 52.3 8.04 53.04 8.16C53.78 8.26 54.45 8.39 55.05 8.55V10.32C54.71 10.26 54.23 10.2 53.61 10.14C52.99 10.08 52.28 10.03 51.48 9.99C50.7 9.93 49.9 9.9 49.08 9.9C48.02 9.9 47.11 10.02 46.35 10.26C45.59 10.5 44.97 10.95 44.49 11.61C44.03 12.25 43.69 13.16 43.47 14.34C43.25 15.52 43.14 17.05 43.14 18.93C43.14 20.83 43.24 22.39 43.44 23.61C43.66 24.81 44 25.73 44.46 26.37C44.92 27.01 45.52 27.45 46.26 27.69C47 27.93 47.92 28.05 49.02 28.05C50.52 28.05 51.75 28.01 52.71 27.93C53.67 27.85 54.45 27.76 55.05 27.66V29.46C54.45 29.6 53.78 29.73 53.04 29.85C52.32 29.95 51.57 30.03 50.79 30.09C50.03 30.15 49.28 30.18 48.54 30.18ZM61.8316 30.18C60.6516 30.18 59.6816 29.83 58.9216 29.13C58.1616 28.43 57.7816 27.44 57.7816 26.16V25.02C57.7816 23.76 58.1916 22.74 59.0116 21.96C59.8516 21.18 61.1116 20.79 62.7916 20.79H68.2216V18.81C68.2216 18.15 68.1016 17.59 67.8616 17.13C67.6416 16.65 67.2316 16.28 66.6316 16.02C66.0516 15.76 65.2016 15.63 64.0816 15.63H59.1016V14.22C59.8016 14.1 60.6116 13.99 61.5316 13.89C62.4716 13.79 63.5716 13.74 64.8316 13.74C66.1316 13.72 67.2116 13.88 68.0716 14.22C68.9316 14.56 69.5616 15.1 69.9616 15.84C70.3816 16.56 70.5916 17.51 70.5916 18.69V30H68.7616L68.3116 28.17C68.2316 28.25 67.9816 28.39 67.5616 28.59C67.1616 28.79 66.6416 29.02 66.0016 29.28C65.3816 29.52 64.7016 29.73 63.9616 29.91C63.2416 30.09 62.5316 30.18 61.8316 30.18ZM62.8216 28.41C63.1816 28.43 63.5916 28.39 64.0516 28.29C64.5116 28.19 64.9816 28.08 65.4616 27.96C65.9416 27.82 66.3816 27.68 66.7816 27.54C67.2016 27.4 67.5416 27.28 67.8016 27.18C68.0616 27.08 68.2016 27.03 68.2216 27.03V21.99L63.3316 22.2C62.1916 22.24 61.3716 22.52 60.8716 23.04C60.3916 23.56 60.1516 24.23 60.1516 25.05V25.77C60.1516 26.41 60.2816 26.93 60.5416 27.33C60.8216 27.71 61.1616 27.98 61.5616 28.14C61.9816 28.3 62.4016 28.39 62.8216 28.41ZM80.2493 30.18C78.9293 30.18 77.8393 29.9 76.9793 29.34C76.1393 28.76 75.5093 27.88 75.0893 26.7C74.6893 25.5 74.4893 23.97 74.4893 22.11C74.4893 20.13 74.6893 18.53 75.0893 17.31C75.4893 16.07 76.1293 15.17 77.0093 14.61C77.8893 14.05 79.0693 13.77 80.5493 13.77C81.4493 13.77 82.3293 13.87 83.1893 14.07C84.0493 14.27 84.8093 14.49 85.4693 14.73V7.11H87.8393V30H85.9193L85.4693 28.38C85.1693 28.64 84.7193 28.91 84.1193 29.19C83.5393 29.47 82.8993 29.71 82.1993 29.91C81.5193 30.09 80.8693 30.18 80.2493 30.18ZM80.9393 28.23C81.8593 28.23 82.6893 28.09 83.4293 27.81C84.1893 27.51 84.8693 27.2 85.4693 26.88V16.41C84.7493 16.19 84.0593 16.01 83.3993 15.87C82.7393 15.71 81.9993 15.63 81.1793 15.63C80.1593 15.63 79.3293 15.82 78.6893 16.2C78.0493 16.58 77.5793 17.24 77.2793 18.18C76.9993 19.1 76.8593 20.38 76.8593 22.02C76.8593 23.5 76.9893 24.7 77.2493 25.62C77.5293 26.54 77.9693 27.21 78.5693 27.63C79.1693 28.03 79.9593 28.23 80.9393 28.23ZM95.4352 30.18C94.2552 30.18 93.2852 29.83 92.5252 29.13C91.7652 28.43 91.3852 27.44 91.3852 26.16V25.02C91.3852 23.76 91.7952 22.74 92.6152 21.96C93.4552 21.18 94.7152 20.79 96.3952 20.79H101.825V18.81C101.825 18.15 101.705 17.59 101.465 17.13C101.245 16.65 100.835 16.28 100.235 16.02C99.6552 15.76 98.8052 15.63 97.6852 15.63H92.7052V14.22C93.4052 14.1 94.2152 13.99 95.1352 13.89C96.0752 13.79 97.1752 13.74 98.4352 13.74C99.7352 13.72 100.815 13.88 101.675 14.22C102.535 14.56 103.165 15.1 103.565 15.84C103.985 16.56 104.195 17.51 104.195 18.69V30H102.365L101.915 28.17C101.835 28.25 101.585 28.39 101.165 28.59C100.765 28.79 100.245 29.02 99.6052 29.28C98.9852 29.52 98.3052 29.73 97.5652 29.91C96.8452 30.09 96.1352 30.18 95.4352 30.18ZM96.4252 28.41C96.7852 28.43 97.1952 28.39 97.6552 28.29C98.1152 28.19 98.5852 28.08 99.0652 27.96C99.5452 27.82 99.9852 27.68 100.385 27.54C100.805 27.4 101.145 27.28 101.405 27.18C101.665 27.08 101.805 27.03 101.825 27.03V21.99L96.9352 22.2C95.7952 22.24 94.9752 22.52 94.4752 23.04C93.9952 23.56 93.7552 24.23 93.7552 25.05V25.77C93.7552 26.41 93.8852 26.93 94.1452 27.33C94.4252 27.71 94.7652 27.98 95.1652 28.14C95.5852 28.3 96.0052 28.39 96.4252 28.41ZM114.183 30.18C113.783 30.18 113.293 30.17 112.713 30.15C112.133 30.13 111.523 30.1 110.883 30.06C110.263 30.02 109.693 29.98 109.173 29.94C108.673 29.88 108.283 29.82 108.003 29.76V28.32H114.573C115.233 28.32 115.803 28.27 116.283 28.17C116.763 28.07 117.133 27.85 117.393 27.51C117.673 27.17 117.813 26.66 117.813 25.98V25.26C117.813 24.56 117.583 24.02 117.123 23.64C116.663 23.24 115.923 23.04 114.903 23.04H112.653C111.713 23.04 110.873 22.92 110.133 22.68C109.413 22.44 108.853 22.03 108.453 21.45C108.053 20.87 107.853 20.07 107.853 19.05V18.21C107.853 17.21 108.043 16.39 108.423 15.75C108.823 15.11 109.433 14.63 110.253 14.31C111.093 13.99 112.173 13.83 113.493 13.83C114.053 13.83 114.693 13.85 115.413 13.89C116.153 13.93 116.873 13.99 117.573 14.07C118.273 14.13 118.843 14.2 119.283 14.28V15.72H113.103C112.083 15.72 111.293 15.89 110.733 16.23C110.193 16.57 109.923 17.23 109.923 18.21V18.87C109.923 19.49 110.053 19.96 110.313 20.28C110.573 20.58 110.933 20.78 111.393 20.88C111.873 20.98 112.423 21.03 113.043 21.03H115.323C116.783 21.03 117.913 21.37 118.713 22.05C119.513 22.73 119.913 23.71 119.913 24.99V26.1C119.913 27.18 119.663 28.02 119.163 28.62C118.683 29.2 118.013 29.61 117.153 29.85C116.313 30.07 115.323 30.18 114.183 30.18ZM128.973 30C127.933 30 127.073 29.83 126.393 29.49C125.713 29.15 125.213 28.6 124.893 27.84C124.573 27.08 124.423 26.07 124.443 24.81L124.533 15.93H121.983V14.4L124.563 13.98L124.953 9.51H126.783V13.98H131.403V15.93H126.783V24.81C126.783 25.51 126.853 26.07 126.993 26.49C127.153 26.91 127.353 27.23 127.593 27.45C127.853 27.67 128.123 27.83 128.403 27.93C128.683 28.01 128.953 28.06 129.213 28.08L131.163 28.26V30H128.973ZM134.678 30V13.98H136.478L137.048 16.77C137.768 15.91 138.568 15.2 139.448 14.64C140.348 14.08 141.378 13.8 142.538 13.8C142.818 13.8 143.078 13.81 143.318 13.83C143.578 13.85 143.818 13.89 144.038 13.95V16.38C143.778 16.34 143.498 16.31 143.198 16.29C142.898 16.25 142.598 16.23 142.298 16.23C141.558 16.23 140.898 16.32 140.318 16.5C139.738 16.68 139.188 16.95 138.668 17.31C138.148 17.67 137.608 18.11 137.048 18.63V30H134.678ZM149.576 30.18C148.396 30.18 147.426 29.83 146.666 29.13C145.906 28.43 145.526 27.44 145.526 26.16V25.02C145.526 23.76 145.936 22.74 146.756 21.96C147.596 21.18 148.856 20.79 150.536 20.79H155.966V18.81C155.966 18.15 155.846 17.59 155.606 17.13C155.386 16.65 154.976 16.28 154.376 16.02C153.796 15.76 152.946 15.63 151.826 15.63H146.846V14.22C147.546 14.1 148.356 13.99 149.276 13.89C150.216 13.79 151.316 13.74 152.576 13.74C153.876 13.72 154.956 13.88 155.816 14.22C156.676 14.56 157.306 15.1 157.706 15.84C158.126 16.56 158.336 17.51 158.336 18.69V30H156.506L156.056 28.17C155.976 28.25 155.726 28.39 155.306 28.59C154.906 28.79 154.386 29.02 153.746 29.28C153.126 29.52 152.446 29.73 151.706 29.91C150.986 30.09 150.276 30.18 149.576 30.18ZM150.566 28.41C150.926 28.43 151.336 28.39 151.796 28.29C152.256 28.19 152.726 28.08 153.206 27.96C153.686 27.82 154.126 27.68 154.526 27.54C154.946 27.4 155.286 27.28 155.546 27.18C155.806 27.08 155.946 27.03 155.966 27.03V21.99L151.076 22.2C149.936 22.24 149.116 22.52 148.616 23.04C148.136 23.56 147.896 24.23 147.896 25.05V25.77C147.896 26.41 148.026 26.93 148.286 27.33C148.566 27.71 148.906 27.98 149.306 28.14C149.726 28.3 150.146 28.39 150.566 28.41ZM162.803 30V13.98H164.603L165.173 16.77C165.893 15.91 166.693 15.2 167.573 14.64C168.473 14.08 169.503 13.8 170.663 13.8C170.943 13.8 171.203 13.81 171.443 13.83C171.703 13.85 171.943 13.89 172.163 13.95V16.38C171.903 16.34 171.623 16.31 171.323 16.29C171.023 16.25 170.723 16.23 170.423 16.23C169.683 16.23 169.023 16.32 168.443 16.5C167.863 16.68 167.313 16.95 166.793 17.31C166.273 17.67 165.733 18.11 165.173 18.63V30H162.803ZM187.573 30L181.543 13.98H183.973L188.953 27.78L194.083 13.98H196.483L190.273 30H187.573ZM204.871 30.18C203.191 30.18 201.861 29.93 200.881 29.43C199.921 28.93 199.231 28.08 198.811 26.88C198.391 25.68 198.181 24.04 198.181 21.96C198.181 19.84 198.391 18.19 198.811 17.01C199.251 15.81 199.961 14.97 200.941 14.49C201.921 14.01 203.241 13.77 204.901 13.77C206.321 13.77 207.471 13.93 208.351 14.25C209.251 14.57 209.911 15.12 210.331 15.9C210.771 16.66 210.991 17.72 210.991 19.08C210.991 20.02 210.801 20.78 210.421 21.36C210.061 21.92 209.531 22.33 208.831 22.59C208.151 22.83 207.341 22.95 206.401 22.95H200.551C200.571 24.25 200.711 25.3 200.971 26.1C201.231 26.88 201.701 27.45 202.381 27.81C203.081 28.15 204.101 28.32 205.441 28.32H210.601V29.76C209.681 29.88 208.781 29.98 207.901 30.06C207.021 30.14 206.011 30.18 204.871 30.18ZM200.521 21.39H206.221C207.121 21.39 207.781 21.23 208.201 20.91C208.641 20.57 208.861 19.97 208.861 19.11C208.861 18.19 208.721 17.48 208.441 16.98C208.181 16.46 207.761 16.1 207.181 15.9C206.621 15.68 205.861 15.57 204.901 15.57C203.781 15.57 202.901 15.74 202.261 16.08C201.621 16.4 201.171 16.98 200.911 17.82C200.651 18.66 200.521 19.85 200.521 21.39ZM214.981 30V13.98H217.351V30H214.981ZM215.191 11.07L218.311 6.99H220.321L216.571 11.07H215.191ZM227.627 30.18C226.727 30.18 225.887 30.06 225.107 29.82C224.327 29.58 223.647 29.16 223.067 28.56C222.487 27.96 222.037 27.13 221.717 26.07C221.397 25.01 221.237 23.66 221.237 22.02C221.237 20.36 221.387 19 221.687 17.94C221.987 16.86 222.417 16.02 222.977 15.42C223.537 14.82 224.217 14.4 225.017 14.16C225.817 13.92 226.707 13.8 227.687 13.8C228.487 13.8 229.357 13.84 230.297 13.92C231.237 13.98 232.137 14.08 232.997 14.22V15.63H228.317C227.297 15.63 226.437 15.8 225.737 16.14C225.037 16.48 224.507 17.12 224.147 18.06C223.787 18.98 223.607 20.32 223.607 22.08C223.607 23.78 223.797 25.08 224.177 25.98C224.557 26.88 225.097 27.5 225.797 27.84C226.497 28.16 227.347 28.32 228.347 28.32H233.237V29.7C232.777 29.78 232.237 29.86 231.617 29.94C231.017 30.02 230.377 30.08 229.697 30.12C229.017 30.16 228.327 30.18 227.627 30.18ZM241.284 30.18C239.744 30.18 238.554 29.78 237.714 28.98C236.894 28.18 236.484 26.94 236.484 25.26V13.98H238.854V24.66C238.854 26 239.154 26.91 239.754 27.39C240.374 27.85 241.234 28.08 242.334 28.08C243.274 28.08 244.134 27.95 244.914 27.69C245.694 27.41 246.494 27.03 247.314 26.55V13.98H249.684V30H247.824L247.314 28.23C246.494 28.75 245.564 29.21 244.524 29.61C243.504 29.99 242.424 30.18 241.284 30.18ZM258.351 30.03C257.431 30.03 256.661 29.87 256.041 29.55C255.421 29.21 254.951 28.67 254.631 27.93C254.311 27.17 254.151 26.15 254.151 24.87V7.11H256.521V24.57C256.521 25.53 256.611 26.26 256.791 26.76C256.971 27.24 257.231 27.58 257.571 27.78C257.911 27.96 258.311 28.08 258.771 28.14L260.391 28.32V30.03H258.351ZM269.329 30.18C268.169 30.18 267.149 30.06 266.269 29.82C265.409 29.58 264.689 29.16 264.109 28.56C263.529 27.96 263.099 27.13 262.819 26.07C262.539 24.99 262.399 23.62 262.399 21.96C262.399 20.28 262.539 18.91 262.819 17.85C263.099 16.77 263.529 15.94 264.109 15.36C264.689 14.76 265.409 14.35 266.269 14.13C267.149 13.89 268.169 13.77 269.329 13.77C270.489 13.77 271.499 13.89 272.359 14.13C273.239 14.37 273.969 14.79 274.549 15.39C275.129 15.97 275.559 16.8 275.839 17.88C276.139 18.94 276.289 20.3 276.289 21.96C276.289 23.64 276.139 25.02 275.839 26.1C275.559 27.16 275.129 27.99 274.549 28.59C273.989 29.17 273.269 29.58 272.389 29.82C271.509 30.06 270.489 30.18 269.329 30.18ZM269.329 28.23C270.069 28.23 270.719 28.16 271.279 28.02C271.859 27.88 272.339 27.6 272.719 27.18C273.099 26.76 273.389 26.13 273.589 25.29C273.789 24.45 273.889 23.34 273.889 21.96C273.889 20.56 273.789 19.45 273.589 18.63C273.389 17.81 273.099 17.19 272.719 16.77C272.339 16.35 271.859 16.07 271.279 15.93C270.719 15.79 270.069 15.72 269.329 15.72C268.569 15.72 267.909 15.79 267.349 15.93C266.789 16.07 266.319 16.35 265.939 16.77C265.559 17.19 265.269 17.81 265.069 18.63C264.869 19.45 264.769 20.56 264.769 21.96C264.769 23.34 264.869 24.45 265.069 25.29C265.269 26.13 265.559 26.76 265.939 27.18C266.319 27.6 266.789 27.88 267.349 28.02C267.909 28.16 268.569 28.23 269.329 28.23ZM285.804 30.18C285.404 30.18 284.914 30.17 284.334 30.15C283.754 30.13 283.144 30.1 282.504 30.06C281.884 30.02 281.314 29.98 280.794 29.94C280.294 29.88 279.904 29.82 279.624 29.76V28.32H286.194C286.854 28.32 287.424 28.27 287.904 28.17C288.384 28.07 288.754 27.85 289.014 27.51C289.294 27.17 289.434 26.66 289.434 25.98V25.26C289.434 24.56 289.204 24.02 288.744 23.64C288.284 23.24 287.544 23.04 286.524 23.04H284.274C283.334 23.04 282.494 22.92 281.754 22.68C281.034 22.44 280.474 22.03 280.074 21.45C279.674 20.87 279.474 20.07 279.474 19.05V18.21C279.474 17.21 279.664 16.39 280.044 15.75C280.444 15.11 281.054 14.63 281.874 14.31C282.714 13.99 283.794 13.83 285.114 13.83C285.674 13.83 286.314 13.85 287.034 13.89C287.774 13.93 288.494 13.99 289.194 14.07C289.894 14.13 290.464 14.2 290.904 14.28V15.72H284.724C283.704 15.72 282.914 15.89 282.354 16.23C281.814 16.57 281.544 17.23 281.544 18.21V18.87C281.544 19.49 281.674 19.96 281.934 20.28C282.194 20.58 282.554 20.78 283.014 20.88C283.494 20.98 284.044 21.03 284.664 21.03H286.944C288.404 21.03 289.534 21.37 290.334 22.05C291.134 22.73 291.534 23.71 291.534 24.99V26.1C291.534 27.18 291.284 28.02 290.784 28.62C290.304 29.2 289.634 29.61 288.774 29.85C287.934 30.07 286.944 30.18 285.804 30.18Z" fill="white"/>
<path d="M24 22.6667V29.3333C24 30.0406 23.719 30.7189 23.219 31.219C22.7189 31.719 22.0406 32 21.3333 32H2.66667C1.95942 32 1.28115 31.719 0.781048 31.219C0.280951 30.7189 0 30.0406 0 29.3333V10.6667C0 9.95942 0.280951 9.28115 0.781048 8.78105C1.28115 8.28095 1.95942 8 2.66667 8H9.33333V10.6667H2.66667V29.3333H21.3333V22.6667H24Z" fill="white"/>
<path d="M24 13.3333H18.6667V8H16V13.3333H10.6667V16H16V21.3333H18.6667V16H24V13.3333Z" fill="white"/>
</svg>
