<svg width="561" height="324" viewBox="0 0 561 324" fill="none" xmlns="http://www.w3.org/2000/svg">
<path d="M2.49599 191.54C2.49599 191.54 -3.46321 193.802 3.03419 206.485C9.53159 219.168 14.0868 225.462 14.0868 225.462C14.0868 225.462 15.2412 228.411 12.7608 228.879C10.2804 229.347 4.80479 228.489 3.70499 231.531C2.56619 234.69 4.86719 237.654 9.52379 240.251C14.1804 242.849 24.1644 248.901 25.0614 249.455C25.9584 250.009 26.8398 251.366 25.194 251.951C23.5482 252.536 11.2866 253.862 12.2616 259.665C13.2366 265.469 27.3936 270.585 28.9302 271.147C30.4668 271.709 30.8334 272.387 30.7086 273.23C30.5838 274.072 26.4108 274.127 22.9086 274.649C19.4064 275.172 15.4752 276.381 16.3176 279.68C17.16 282.98 25.584 289.89 45.9342 291.809L55.4112 292.09L60.5436 284.064C70.4808 266.217 69.5448 255.383 67.2984 252.817C65.052 250.251 61.8384 252.817 59.4204 255.391C57.0024 257.965 54.6078 261.381 53.8434 260.999C53.079 260.617 52.7514 259.954 53.1414 258.355C53.5314 256.756 57.3456 242.209 53.1414 238.122C48.9372 234.035 40.8564 243.41 39.4446 244.432C38.0328 245.454 37.401 243.941 37.4556 242.872C37.5102 241.803 38.181 230.158 38.6802 224.854C39.1794 219.55 38.0328 215.97 34.7802 215.12C31.6602 214.301 29.2578 219.293 27.4638 221.079C25.6698 222.865 23.8992 220.236 23.8992 220.236C23.8992 220.236 21.2862 212.951 14.5392 200.385C7.79219 187.82 2.42579 191.556 2.42579 191.556" fill="#F5F5F5"/>
<path d="M55.8948 294.313C50.9652 285.062 42.4866 268.472 35.1312 254.26C27.7758 240.048 21.0912 227.21 16.224 217.928L10.4286 206.953L8.86858 203.966L8.49418 203.162C8.40838 202.983 8.36938 202.889 8.36938 202.889L8.52539 203.147L8.94658 203.927C9.32878 204.613 9.87478 205.611 10.569 206.891C11.973 209.465 13.9854 213.201 16.4424 217.811C21.372 227.061 28.0722 239.9 35.4276 254.104C42.783 268.308 51.2382 284.914 56.121 294.196" fill="#E0E0E0"/>
<path d="M11.349 233.036C11.5764 233.069 11.799 233.129 12.012 233.216C12.4332 233.348 13.0338 233.559 13.7748 233.832C15.2568 234.37 17.2848 235.166 19.5 236.078L25.1784 238.418L26.9022 239.128C27.1197 239.199 27.329 239.293 27.5262 239.409C27.2988 239.376 27.0762 239.316 26.8632 239.229C26.442 239.097 25.8414 238.886 25.1004 238.613C23.6262 238.059 21.6138 237.24 19.3908 236.32L13.6968 233.98L11.973 233.278C11.7576 233.218 11.5486 233.137 11.349 233.036Z" fill="#E0E0E0"/>
<path d="M28.1736 238.832C28.0956 238.832 29.5542 234.557 31.4262 229.339C33.2982 224.121 34.8738 219.917 34.9518 219.94C35.0298 219.963 33.5712 224.222 31.6992 229.44C29.8272 234.659 28.2516 238.863 28.1736 238.832Z" fill="#E0E0E0"/>
<path d="M38.4852 261.155C38.5948 260.949 38.7227 260.753 38.8674 260.57L39.9828 259.01C40.9266 257.715 42.2214 255.89 43.5708 253.87C44.9202 251.85 46.098 249.97 46.9326 248.566L47.9232 246.936C48.0327 246.73 48.1634 246.537 48.3132 246.359C48.2372 246.582 48.1378 246.796 48.0168 246.998C47.814 247.396 47.5098 247.973 47.112 248.667C46.332 250.071 45.1854 251.982 43.8204 254.034C42.4554 256.085 41.1372 257.864 40.1544 259.135C39.6552 259.775 39.2496 260.282 38.961 260.625C38.8245 260.82 38.6647 260.998 38.4852 261.155Z" fill="#E0E0E0"/>
<path d="M22.113 259.26C22.3282 259.238 22.5451 259.238 22.7604 259.26L24.5154 259.4C25.9974 259.525 28.041 259.712 30.2952 259.946C32.5494 260.18 34.5852 260.406 36.0594 260.586L37.8066 260.812C38.0234 260.828 38.2378 260.867 38.4462 260.929C38.2312 260.956 38.0137 260.956 37.7988 260.929L36.0438 260.796C34.5618 260.672 32.5182 260.477 30.264 260.25C28.0098 260.024 25.9662 259.79 24.492 259.611L22.7448 259.385C22.5299 259.369 22.3178 259.327 22.113 259.26Z" fill="#E0E0E0"/>
<path d="M28.7118 280.125C28.987 280.104 29.2634 280.104 29.5386 280.125L31.7928 280.281C33.6882 280.437 36.309 280.663 39.2028 280.928C42.0966 281.193 44.7096 281.459 46.605 281.661L48.8436 281.919C49.1063 281.945 49.367 281.989 49.6236 282.051C49.3488 282.081 49.0716 282.081 48.7968 282.051L46.5504 281.888C44.6472 281.739 42.0264 281.505 39.1326 281.24C36.2388 280.975 33.6258 280.71 31.7304 280.507L29.5542 280.257C29.2693 280.245 28.9868 280.2 28.7118 280.125Z" fill="#E0E0E0"/>
<path d="M49.179 281.888C49.3065 281.613 49.4606 281.352 49.6392 281.108C49.9902 280.593 50.4192 279.922 50.9886 279.103C52.1274 277.41 53.6874 275.07 55.3332 272.434C56.979 269.798 58.4532 267.372 59.4438 265.609C59.9352 264.767 60.3408 264.049 60.6606 263.526C60.7962 263.255 60.9526 262.994 61.1286 262.746C61.0331 263.02 60.9076 263.281 60.7542 263.526C60.4968 264.033 60.1146 264.759 59.6232 265.656C58.6404 267.45 57.2364 269.891 55.5828 272.535C53.9292 275.18 52.338 277.504 51.1602 279.173C50.5674 280 50.0838 280.671 49.7328 281.123C49.5722 281.395 49.3868 281.65 49.179 281.888Z" fill="#E0E0E0"/>
<path d="M216.497 81.7319C217.129 77.1611 210.678 73.4015 205.834 73.0115C203.494 72.8243 201.154 73.1831 198.931 72.4187C194.189 70.7651 192.293 64.6187 187.668 62.6843C184.205 61.2257 180.227 62.5283 176.873 64.2443C173.519 65.9603 170.204 68.0585 166.452 68.3003C163.192 68.5031 159.658 67.2941 156.803 68.8931C154.674 70.0787 153.566 72.5279 151.609 73.9709C149.651 75.4139 147.186 75.6791 144.815 75.8117C142.444 75.9443 139.971 75.9677 137.795 76.9583C135.619 77.9489 133.84 80.2343 134.285 82.5743L216.497 81.7319Z" fill="#EBEBEB"/>
<path d="M355.493 26.149C356.327 20.0728 347.755 15.073 341.32 14.5582C338.247 14.3086 335.08 14.7766 332.147 13.7782C325.837 11.5786 323.318 3.43544 317.171 0.838037C312.569 -1.09636 307.273 0.627438 302.819 2.87384C298.366 5.12024 293.974 7.92824 288.967 8.24804C284.638 8.52104 279.934 6.91424 276.143 9.02804C273.312 10.588 271.838 13.864 269.233 15.7828C266.627 17.7016 263.359 18.0604 260.2 18.232C257.041 18.4036 253.765 18.4348 250.887 19.792C248.009 21.1492 245.63 24.1522 246.207 27.2644L355.493 26.149Z" fill="#F5F5F5"/>
<path d="M419.726 84.5008C420.334 80.0782 414.094 76.4434 409.414 76.0612C407.183 75.8818 404.859 76.225 402.737 75.484C398.143 73.885 396.31 67.957 391.817 66.0616C388.463 64.6498 384.61 65.9134 381.365 67.5436C378.121 69.1738 374.907 71.233 371.28 71.4436C368.16 71.6464 364.697 70.4764 361.92 72.0208C359.869 73.1674 358.8 75.5386 356.889 76.9348C354.978 78.331 352.615 78.5962 350.314 78.721C348.013 78.8458 345.634 78.8692 343.535 79.8286C341.437 80.788 339.706 83.0032 340.142 85.2886L419.726 84.5008Z" fill="#F5F5F5"/>
<path d="M530.494 35.8211C531.063 31.6559 525.19 28.2317 520.775 27.8729C518.669 27.7091 516.477 28.0289 514.48 27.3347C510.159 25.8293 508.435 20.2445 504.215 18.4661C501.095 17.1323 497.429 18.3179 494.38 19.8545C491.33 21.3911 488.296 23.3333 484.879 23.5517C481.915 23.7389 478.686 22.6391 476.089 24.0899C474.146 25.1663 473.132 27.4049 471.346 28.7153C469.56 30.0257 467.329 30.2753 465.161 30.4001C462.992 30.5249 460.746 30.5405 458.773 31.4375C456.799 32.3345 455.169 34.4327 455.582 36.5621L530.494 35.8211Z" fill="#EBEBEB"/>
<path d="M463.71 291.06C464.447 291.397 465.108 291.879 465.655 292.476C466.202 293.074 466.622 293.775 466.892 294.539C467.424 296.071 467.595 297.704 467.392 299.313C467.103 302.433 465.395 305.592 463.538 308.111C460.879 305.88 460.208 301.871 459.989 299.867C459.646 296.653 460.988 290.631 463.71 291.06Z" fill="#FF725E"/>
<path d="M466.674 313.181C466.477 312.297 466.518 311.377 466.792 310.514C467.066 309.651 467.564 308.876 468.234 308.267C468.915 307.672 469.708 307.218 470.566 306.933C471.425 306.647 472.332 306.536 473.234 306.606C473.653 306.592 474.069 306.67 474.455 306.834C474.84 306.999 475.185 307.246 475.465 307.557C475.673 307.888 475.789 308.269 475.801 308.659C475.814 309.05 475.722 309.437 475.535 309.78C475.15 310.463 474.593 311.033 473.92 311.434C471.682 312.9 469.24 313.907 466.666 313.181" fill="#FF725E"/>
<path d="M463.492 322.767C463.505 322.552 463.533 322.339 463.577 322.128C463.648 321.675 463.749 321.098 463.858 320.396C464.119 318.469 464.688 316.597 465.543 314.85C466.435 313.101 467.782 311.624 469.443 310.576C469.946 310.269 470.482 310.02 471.042 309.835C471.192 309.782 471.346 309.741 471.502 309.71H471.666C470.919 309.984 470.2 310.332 469.521 310.748C467.931 311.824 466.639 313.283 465.761 314.991C464.92 316.715 464.341 318.555 464.045 320.451C463.897 321.176 463.78 321.761 463.687 322.167C463.641 322.373 463.575 322.574 463.492 322.767Z" fill="#263238"/>
<path d="M463.094 295.733C463.104 295.826 463.104 295.92 463.094 296.013C463.094 296.224 463.094 296.489 463.156 296.793C463.203 297.488 463.265 298.494 463.328 299.734C463.453 302.222 463.577 305.662 463.632 309.461C463.687 313.259 463.632 316.699 463.632 319.195C463.632 320.435 463.577 321.441 463.546 322.143C463.546 322.471 463.546 322.736 463.546 322.923C463.555 323.017 463.555 323.111 463.546 323.204C463.534 323.111 463.534 323.017 463.546 322.923C463.546 322.721 463.546 322.455 463.546 322.143C463.546 321.418 463.546 320.42 463.546 319.195C463.546 316.707 463.546 313.267 463.507 309.468C463.468 305.67 463.351 302.238 463.265 299.75C463.226 298.525 463.195 297.527 463.164 296.801C463.164 296.474 463.164 296.208 463.164 296.021C463.132 295.927 463.109 295.831 463.094 295.733Z" fill="#263238"/>
<path d="M462.181 315.155C461.829 313.276 461.033 311.509 459.859 310C458.686 308.491 457.168 307.285 455.434 306.481C454.553 306.075 453.406 305.826 452.704 306.481C452.002 307.136 452.182 308.306 452.548 309.203C453.345 311.072 454.678 312.663 456.379 313.773C458.08 314.884 460.072 315.465 462.103 315.443" fill="#FF725E"/>
<path d="M455.941 309.414C456.136 309.473 456.324 309.552 456.503 309.648C456.719 309.744 456.93 309.85 457.135 309.968C457.369 310.116 457.657 310.248 457.915 310.459C458.236 310.665 458.546 310.889 458.843 311.13C459.19 311.398 459.521 311.687 459.833 311.996C460.55 312.701 461.183 313.486 461.721 314.336C462.245 315.195 462.672 316.111 462.992 317.066C463.126 317.483 463.235 317.907 463.32 318.337C463.414 318.743 463.453 319.117 463.499 319.468C463.537 319.781 463.558 320.096 463.562 320.412C463.574 320.648 463.574 320.885 463.562 321.122C463.562 321.323 463.541 321.525 463.499 321.722C463.453 321.722 463.499 320.856 463.343 319.491C463.3 319.116 463.235 318.744 463.148 318.376C463.056 317.956 462.939 317.542 462.797 317.136C462.167 315.251 461.098 313.542 459.677 312.152C459.374 311.843 459.053 311.552 458.718 311.278C458.414 311.013 458.102 310.802 457.821 310.599C456.713 309.804 455.918 309.461 455.941 309.414Z" fill="#263238"/>
<path d="M29.0238 264.704C27.8616 266.639 25.311 266.202 24.0708 265.164C22.8306 264.127 22.2222 262.52 21.6606 260.991C20.3892 257.513 19.0944 253.854 19.6014 250.181C19.711 249.07 20.1209 248.01 20.787 247.115C21.1264 246.674 21.5762 246.329 22.0911 246.117C22.606 245.905 23.1678 245.832 23.7198 245.906C25.0068 246.148 25.8804 247.334 26.5356 248.472C28.4516 251.84 29.5946 255.591 29.8818 259.455C30.1307 261.251 29.8316 263.081 29.0238 264.704Z" fill="#FF725E"/>
<g opacity="0.2">
<path d="M29.0238 264.704C27.8616 266.639 25.311 266.202 24.0708 265.164C22.8306 264.127 22.2222 262.52 21.6606 260.991C20.3892 257.513 19.0944 253.854 19.6014 250.181C19.711 249.07 20.1209 248.01 20.787 247.115C21.1264 246.674 21.5762 246.329 22.0911 246.117C22.606 245.905 23.1678 245.832 23.7198 245.906C25.0068 246.148 25.8804 247.334 26.5356 248.472C28.4516 251.84 29.5946 255.591 29.8818 259.455C30.1307 261.251 29.8316 263.081 29.0238 264.704Z" fill="black"/>
</g>
<path d="M24.8742 274.384C22.6317 273.521 20.1717 273.398 17.8542 274.033C16.5796 274.235 15.4096 274.858 14.5314 275.804C13.7514 276.81 13.6968 278.487 14.7342 279.228C15.3983 279.614 16.1766 279.754 16.9338 279.626C18.7746 279.477 20.787 279.009 22.3314 280.016C23.2128 280.585 23.8446 281.576 24.8664 281.833C25.3755 281.919 25.8987 281.833 26.3543 281.591C26.81 281.348 27.1727 280.962 27.3858 280.491C27.7961 279.538 27.8268 278.464 27.4716 277.488C27.3061 276.806 26.9857 276.171 26.5353 275.633C26.0848 275.095 25.5164 274.667 24.8742 274.384Z" fill="#FF725E"/>
<path d="M32.76 267.122C32.0349 266.302 31.5216 265.316 31.2646 264.252C31.0077 263.187 31.0149 262.076 31.2858 261.015C31.842 258.883 32.9787 256.947 34.5696 255.422C36.3608 253.584 38.4937 252.114 40.8486 251.093C41.7565 250.652 42.7486 250.409 43.758 250.383C44.2636 250.379 44.7627 250.497 45.2125 250.728C45.6622 250.959 46.0491 251.296 46.3398 251.709C47.1198 252.973 46.5738 254.619 45.9498 255.968C44.8497 258.351 43.5639 260.643 42.1044 262.824C40.9266 264.579 39.5694 266.319 37.6584 267.208C35.7474 268.097 33.696 268.152 32.5572 266.865" fill="#FF725E"/>
<path d="M31.0674 292.527C30.9778 292.259 30.9177 291.981 30.888 291.7C30.7866 291.092 30.6618 290.335 30.5058 289.422C30.3061 288.304 30.0458 287.197 29.7258 286.107C29.3326 284.769 28.8317 283.465 28.2282 282.207C27.6439 280.98 26.8903 279.84 25.9896 278.822C25.2398 277.983 24.3161 277.318 23.283 276.872C22.5809 276.588 21.8389 276.414 21.0834 276.357C20.7987 276.362 20.5142 276.341 20.2332 276.295C20.5128 276.237 20.798 276.211 21.0834 276.217C21.8645 276.225 22.638 276.37 23.3688 276.646C24.4586 277.066 25.434 277.736 26.2158 278.604C27.1666 279.65 27.9554 280.834 28.5558 282.114C29.1648 283.382 29.6658 284.7 30.0534 286.053C30.3454 287.159 30.572 288.282 30.732 289.415C30.8724 290.382 30.9582 291.17 31.005 291.716C31.0547 291.983 31.0757 292.255 31.0674 292.527Z" fill="#263238"/>
<path d="M30.7866 290.78C30.7504 290.653 30.732 290.521 30.732 290.39C30.732 290.101 30.732 289.734 30.6618 289.282C30.5916 288.315 30.498 286.942 30.3264 285.195C29.9988 281.755 29.367 277.013 28.4232 271.818C27.4794 266.623 26.3796 261.959 25.4514 258.636C25.2252 257.793 25.0068 257.076 24.804 256.389C24.6012 255.703 24.4374 255.165 24.2814 254.705C24.1254 254.244 24.0318 253.925 23.946 253.644C23.8988 253.521 23.8674 253.392 23.8524 253.262C23.915 253.376 23.9672 253.496 24.0084 253.62C24.1176 253.893 24.2502 254.237 24.4062 254.658C24.5622 255.079 24.7728 255.68 24.9834 256.335C25.194 256.99 25.4436 257.731 25.6854 258.566C26.9622 262.903 28.0037 267.306 28.8054 271.755C29.7492 276.958 30.3654 281.716 30.6072 285.171C30.7476 286.903 30.81 288.291 30.8334 289.274C30.8334 289.727 30.8334 290.093 30.8334 290.39C30.8299 290.521 30.8142 290.651 30.7866 290.78Z" fill="#263238"/>
<path d="M30.1158 281.568C30.0631 281.183 30.0396 280.794 30.0456 280.406C30.0359 279.356 30.0802 278.307 30.1782 277.262C30.5124 273.779 31.264 270.348 32.4168 267.044C33.5195 263.711 35.2189 260.605 37.4322 257.879C37.8186 257.413 38.2327 256.97 38.6724 256.553C38.8674 256.366 39.0312 256.187 39.2028 256.038L39.6942 255.641C39.9911 255.389 40.3037 255.158 40.6302 254.946C39.5683 255.926 38.5656 256.968 37.6272 258.066C35.4973 260.786 33.846 263.848 32.7444 267.122C32.1011 268.921 31.5799 270.76 31.1844 272.629C30.8022 274.353 30.576 275.928 30.4044 277.247C30.2328 278.565 30.1938 279.657 30.1626 280.367C30.1803 280.768 30.1647 281.169 30.1158 281.568Z" fill="#263238"/>
<path d="M477.461 113.462L471.221 102.402C475.104 96.1024 476.49 88.5786 475.106 81.3094C473.723 74.0401 469.67 67.5512 463.746 63.1181C457.821 58.6851 450.452 56.6286 443.088 57.3528C435.724 58.0771 428.897 61.5297 423.949 67.032C419.001 72.5344 416.29 79.6884 416.35 87.0879C416.409 94.4874 419.234 101.597 424.269 107.019C429.304 112.442 436.186 115.785 443.561 116.391C450.935 116.997 458.27 114.823 464.123 110.295L477.461 113.462Z" fill="white"/>
<path d="M477.461 113.462L464.053 110.405H463.905L463.999 110.28L464.139 110.42C460.02 113.638 455.122 115.705 449.943 116.411C448.393 116.63 446.827 116.71 445.263 116.652C444.483 116.606 443.633 116.59 442.806 116.52L440.302 116.138C434.522 115.005 429.205 112.188 425.022 108.041C420.839 103.894 417.976 98.6018 416.793 92.8312C415.944 88.4671 416.064 83.9698 417.144 79.657C418.258 75.138 420.434 70.9502 423.493 67.4422L424.702 66.1084C425.1 65.6638 425.576 65.3284 426.005 64.8838C426.434 64.4392 426.863 64.057 427.346 63.7138L428.766 62.653C429.233 62.2932 429.726 61.9674 430.24 61.678L431.738 60.7654L433.298 59.9854C433.803 59.7203 434.324 59.4858 434.858 59.2834C439.069 57.6167 443.6 56.9182 448.118 57.2398C452.394 57.5348 456.553 58.765 460.301 60.8434C467.024 64.5959 472.05 70.7859 474.341 78.136C475.29 81.2711 475.753 84.5329 475.714 87.808C475.558 93.0052 474.032 98.0691 471.292 102.488V102.386L477.461 113.462L471.097 102.449V102.402V102.355C473.784 97.9508 475.268 92.9187 475.402 87.7612C475.452 84.5385 475.01 81.327 474.092 78.2374C471.799 70.9906 466.82 64.8956 460.177 61.2022C456.472 59.1559 452.364 57.9471 448.141 57.661C443.682 57.3481 439.21 58.0384 435.053 59.6812C434.52 59.885 433.999 60.1194 433.493 60.3832L431.933 61.1632L430.451 62.068C429.945 62.3522 429.46 62.6728 429 63.0274L427.596 64.0726C427.12 64.4158 426.722 64.8526 426.278 65.227C425.833 65.6014 425.381 66.007 424.991 66.4438L423.797 67.7542C420.795 71.2069 418.656 75.3242 417.557 79.7662C416.485 84.0191 416.365 88.4564 417.206 92.761C418.021 96.8344 419.699 100.686 422.128 104.055C426.501 110.138 433.018 114.336 440.365 115.802L442.837 116.184C443.617 116.255 444.467 116.278 445.271 116.325C446.821 116.391 448.374 116.318 449.912 116.106C455.045 115.425 459.909 113.405 464.014 110.249L464.638 109.765L464.162 110.389L464.108 110.225L477.461 113.462Z" fill="#263238"/>
<path d="M449.274 102.973C458.142 101.633 464.245 93.3583 462.906 84.4901C461.566 75.6218 453.291 69.5186 444.423 70.8582C435.554 72.1978 429.451 80.473 430.791 89.3413C432.13 98.2095 440.406 104.313 449.274 102.973Z" fill="#FF725E"/>
<path d="M455.302 84.8986H438.391V88.4242H455.302V84.8986Z" fill="#EAEAEA"/>
<path d="M451.105 179.435C451.105 179.435 449.998 184.115 444.335 184.481C438.672 184.848 429.257 184.895 429.257 184.895L421.457 181.283L418.532 170.574L427.261 174.544L451.105 179.435Z" fill="#263238"/>
<path d="M451.105 179.435C451.105 179.435 455.317 172.508 447.353 168.101C439.39 163.694 426.574 167.103 426.574 167.103L427.713 180.043L451.105 179.435Z" fill="#FF725E"/>
<path d="M428.462 242.693H425.108C416.595 242.693 409.695 249.593 409.695 258.105V307.721C409.695 316.233 416.595 323.134 425.108 323.134H428.462C436.974 323.134 443.875 316.233 443.875 307.721V258.105C443.875 249.593 436.974 242.693 428.462 242.693Z" fill="#263238"/>
<path d="M218.556 242.693H215.202C206.69 242.693 199.789 249.593 199.789 258.105V307.721C199.789 316.233 206.69 323.134 215.202 323.134H218.556C227.068 323.134 233.969 316.233 233.969 307.721V258.105C233.969 249.593 227.068 242.693 218.556 242.693Z" fill="#263238"/>
<path d="M209.804 293.096C209.804 293.096 198.104 270.656 197.722 244.073C197.34 217.491 200.842 206.789 207.043 201.61C213.244 196.431 220.163 185.035 220.163 185.035C220.163 185.035 227.253 156.885 237.081 138.773C246.051 122.245 262.626 123.953 262.626 123.953C262.626 123.953 335.47 117.425 381.046 123.797C381.046 123.797 393.471 122.916 402.449 136.73C411.427 150.543 421.434 174.7 423.852 187.133C423.852 187.133 434.554 197.492 437.666 202.32C440.778 207.148 446.293 215.783 445.606 224.074C444.92 232.365 445.255 278.963 433.906 294.5L209.804 293.096Z" fill="#FF725E"/>
<path d="M230.357 172.282C230.357 172.282 237.089 139.912 246.207 134.569C255.325 129.226 320.861 129.46 320.861 129.46L384.384 131.262C384.384 131.262 395.546 131.582 399.165 137.556C402.784 143.531 413.314 171.83 412.051 173.873L314.254 174.973C314.254 174.973 245.396 176.229 242.572 175.597C239.749 174.965 230.958 175.776 230.357 172.282Z" fill="#263238"/>
<path d="M241.628 172.282C241.628 172.282 235.669 171.408 236.441 164.872C237.042 159.802 243.103 145.629 245.801 139.553C246.185 138.684 246.786 137.928 247.547 137.36C248.308 136.791 249.204 136.429 250.146 136.308C258.383 135.248 279.224 131.761 316.313 132.089C363.581 132.502 392.465 133.368 395.093 136.769C397.184 139.475 405.288 161.112 406.232 164.287C407.324 167.961 402.332 172.048 395.249 172.243C388.167 172.438 241.628 172.282 241.628 172.282Z" fill="#455A64"/>
<g opacity="0.4">
<path d="M385.031 244.12C379.626 234.074 364.853 235.54 364.853 235.54C364.853 235.54 288.709 235.283 280.683 235.54C272.657 235.797 270.582 235.836 265.66 241C260.738 246.164 245.7 276.935 245.7 276.935H400.569C400.569 276.935 391.154 255.508 385.031 244.12Z" fill="black"/>
</g>
<path d="M263.554 205.19L267.509 214.308C267.509 214.308 269.186 217.85 276.089 218.411C281.486 218.84 369.392 218.817 369.392 218.817C369.392 218.817 375.242 219.332 377.536 215.26C379.264 211.999 380.793 208.636 382.114 205.19H263.554Z" fill="#263238"/>
<path d="M209.594 216.89C209.589 212.854 209.808 208.82 210.249 204.808C210.499 203.108 213.751 197.008 223.314 195.978C225.802 195.705 227.932 195.581 229.718 195.534C232.81 195.436 235.887 196.007 238.738 197.208C241.589 198.409 244.148 200.211 246.238 202.491C247.648 204.037 248.792 205.806 249.623 207.725C253.04 215.79 254.748 225.665 254.748 225.665L209.594 216.89Z" fill="#EAEAEA"/>
<g opacity="0.3">
<path d="M210.311 216.89H209.594C209.594 216.89 207.145 224.277 212.878 227.444C216.661 229.534 229.375 231.593 237.58 232.748C239.845 233.067 242.151 232.917 244.356 232.308C246.56 231.699 248.616 230.643 250.396 229.206L254.748 225.696L210.311 216.89Z" fill="black"/>
</g>
<path d="M249.226 132.767C249.226 132.767 251.386 123.368 254.428 120.225C257.47 117.081 261.05 117.167 263.063 118.251C264.857 119.219 267.454 123.532 267.454 123.532L262.454 123.899C262.154 123.403 261.703 123.016 261.167 122.794C260.631 122.572 260.038 122.527 259.475 122.666C257.665 123.181 256.417 126.512 256.417 126.512L254.257 131.972L249.226 132.767Z" fill="#E0E0E0"/>
<path d="M389.041 132.065C389.041 132.065 386.88 122.705 383.838 119.523C380.796 116.34 377.216 116.465 375.203 117.549C373.409 118.517 370.812 122.83 370.812 122.83L375.812 123.204C376.111 122.707 376.562 122.318 377.098 122.095C377.634 121.872 378.227 121.826 378.791 121.964C380.601 122.479 381.849 125.81 381.849 125.81L384.01 131.27L389.041 132.065Z" fill="#E0E0E0"/>
<path d="M377.169 201.033C377.169 201.15 351.585 201.236 320.026 201.236C288.467 201.236 262.883 201.15 262.883 201.033C262.883 200.916 288.46 200.83 320.026 200.83C351.593 200.83 377.169 200.924 377.169 201.033Z" fill="#263238"/>
<g opacity="0.3">
<path d="M209.071 247.248C209.071 247.248 208.572 265.414 218.681 266.319L225.545 266.966C227.104 267.113 228.673 266.827 230.08 266.139C231.486 265.451 232.676 264.387 233.516 263.066L239.756 253.269L209.071 247.248Z" fill="black"/>
</g>
<g opacity="0.3">
<path d="M203.369 276.95L440.739 276.802C439.39 283.362 437.229 289.352 433.867 294.477L209.804 293.096C207.262 287.881 205.111 282.484 203.369 276.95Z" fill="black"/>
</g>
<path d="M191.396 179.435C191.396 179.435 192.496 184.115 198.167 184.481C203.837 184.848 213.244 184.895 213.244 184.895L221.091 181.541L224.336 170.574L215.249 174.544L191.396 179.435Z" fill="#263238"/>
<path d="M191.396 179.435C191.396 179.435 187.184 172.508 195.14 168.101C203.096 163.694 215.896 167.103 215.896 167.103L214.765 180.043L191.396 179.435Z" fill="#FF725E"/>
<path d="M353.535 246.195H291.291C287.099 246.195 283.702 249.593 283.702 253.784V255.438C283.702 259.629 287.099 263.027 291.291 263.027H353.535C357.726 263.027 361.124 259.629 361.124 255.438V253.784C361.124 249.593 357.726 246.195 353.535 246.195Z" fill="#EAEAEA"/>
<path d="M231.301 172.469C231.348 172.547 229.913 173.296 227.932 174.95C227.388 175.399 226.867 175.875 226.372 176.377C225.81 176.9 225.295 177.524 224.734 178.155C223.572 179.59 222.548 181.13 221.676 182.757C220.831 184.402 220.152 186.126 219.648 187.905C219.434 188.676 219.26 189.457 219.125 190.245C218.99 190.934 218.894 191.629 218.837 192.328C218.611 194.902 218.837 196.509 218.728 196.509C218.635 196.144 218.583 195.77 218.572 195.393C218.524 194.953 218.503 194.51 218.509 194.067C218.488 193.482 218.501 192.896 218.548 192.312C218.588 191.601 218.669 190.893 218.79 190.191C218.915 189.382 219.082 188.58 219.289 187.788C219.78 185.979 220.457 184.225 221.309 182.555C222.187 180.892 223.233 179.324 224.429 177.875C224.96 177.25 225.522 176.654 226.114 176.088C226.621 175.589 227.158 175.12 227.721 174.684C228.175 174.311 228.649 173.962 229.141 173.639C229.5 173.381 229.875 173.147 230.264 172.937C230.595 172.75 230.942 172.593 231.301 172.469Z" fill="#263238"/>
<path d="M386.857 225.696C386.857 225.813 357.404 225.962 321.087 226.032C284.77 226.102 255.302 226.071 255.302 225.954C255.302 225.837 284.747 225.696 321.087 225.626C357.427 225.556 386.857 225.587 386.857 225.696Z" fill="#263238"/>
<path d="M332.912 137.993C332.966 138.087 322.358 144.459 309.223 152.213C296.088 159.966 285.394 166.182 285.332 166.081C285.269 165.98 295.877 159.623 309.02 151.862C322.163 144.101 332.849 137.9 332.912 137.993Z" fill="#E0E0E0"/>
<path d="M310.846 140.24C310.908 140.333 303.046 145.466 293.303 151.706C283.561 157.946 275.597 162.922 275.543 162.828C275.488 162.735 283.343 157.602 293.085 151.362C302.827 145.122 310.791 140.146 310.846 140.24Z" fill="#E0E0E0"/>
<path d="M344.549 139.07C344.612 139.163 337.6 143.945 328.895 149.74C320.19 155.535 313.076 160.169 313.014 160.075C312.952 159.981 319.956 155.208 328.669 149.405C337.381 143.601 344.487 138.976 344.549 139.07Z" fill="#E0E0E0"/>
<path d="M440.739 276.802C440.739 276.911 387.598 277.036 322.062 277.075C256.526 277.114 203.369 277.075 203.369 276.95C203.369 276.825 256.495 276.716 322.062 276.669C387.629 276.623 440.739 276.693 440.739 276.802Z" fill="#263238"/>
<path d="M422.955 201.048C423.033 200.621 423.14 200.198 423.275 199.785C423.601 198.646 423.861 197.49 424.055 196.322C424.333 194.594 424.417 192.841 424.304 191.096C424.209 188.961 423.715 186.863 422.846 184.91C421.911 182.983 420.742 181.178 419.367 179.536C418.268 178.179 417.023 176.947 415.654 175.862C414.732 175.098 413.673 174.516 412.534 174.146C412.233 174.044 411.922 173.976 411.606 173.943C411.494 173.935 411.384 173.911 411.278 173.873C411.278 173.873 411.388 173.873 411.614 173.873C411.941 173.875 412.267 173.922 412.581 174.014C413.739 174.338 414.821 174.889 415.763 175.636C417.18 176.709 418.468 177.941 419.601 179.31C421.015 180.971 422.21 182.806 423.158 184.77C423.658 185.777 424.02 186.848 424.234 187.952C424.443 188.981 424.576 190.024 424.632 191.072C424.734 192.844 424.624 194.622 424.304 196.368C424.091 197.542 423.796 198.699 423.423 199.832C423.29 200.229 423.173 200.534 423.095 200.744C423.017 200.955 422.971 201.056 422.955 201.048Z" fill="#263238"/>
<path d="M432.034 216.89C432.038 212.854 431.817 208.82 431.371 204.808C431.129 203.108 427.877 197.008 418.306 195.978C415.826 195.705 413.696 195.581 411.91 195.534C408.815 195.433 405.735 196.002 402.881 197.203C400.027 198.404 397.466 200.208 395.374 202.491C393.962 204.037 392.816 205.805 391.981 207.725C388.565 215.79 386.857 225.665 386.857 225.665L432.034 216.89Z" fill="#EAEAEA"/>
<g opacity="0.3">
<path d="M431.293 216.89H432.034C432.034 216.89 434.476 224.277 428.743 227.444C424.96 229.534 412.246 231.593 404.04 232.748C401.775 233.066 399.469 232.917 397.265 232.307C395.06 231.698 393.004 230.643 391.225 229.206L386.872 225.696L431.293 216.89Z" fill="black"/>
</g>
<g opacity="0.3">
<path d="M432.533 247.248C432.533 247.248 433.04 265.414 422.932 266.319L416.06 266.966C414.501 267.112 412.932 266.824 411.526 266.136C410.12 265.448 408.93 264.386 408.088 263.066L401.848 253.269L432.533 247.248Z" fill="black"/>
</g>
<path d="M105.401 48.6599H97.8042V65.1257H105.401V48.6599Z" fill="#263238"/>
<path d="M156.954 15.8022H45.5542V49.3344H156.954V15.8022Z" fill="#F5F5F5"/>
<path d="M157.172 49.5528C157.172 49.5528 157.172 49.35 157.172 48.9678C157.172 48.5856 157.172 48.0006 157.172 47.2596C157.172 45.7542 157.172 43.5468 157.172 40.6764C157.172 34.9356 157.133 26.5662 157.102 16.0206L157.227 16.1532L45.835 16.2234L46.0378 16.0206C46.0378 27.6192 46.0378 38.8902 46.0378 49.5606L45.8428 49.3578L125.457 49.4514L148.779 49.506H155.019H156.642H157.203H156.673H155.066H148.826L125.543 49.5606L45.796 49.6542H45.5542V15.8022H45.757L157.172 15.8724H157.305V16.0128C157.305 26.5896 157.25 34.9824 157.235 40.7466C157.235 43.6014 157.235 45.801 157.235 47.2986C157.235 48.0318 157.235 48.5934 157.235 48.9834C157.235 49.3734 157.172 49.5528 157.172 49.5528Z" fill="#263238"/>
<path d="M175.391 291.567H4.875V323.134H175.391V291.567Z" fill="#263238"/>
<path d="M149.214 59.6656H55.2864V291.567H149.214V59.6656Z" fill="#455A64"/>
<path d="M149.214 108.299H55.2864V190.854H149.214V108.299Z" fill="#263238"/>
<path d="M131.329 291.567H83.187V225.868C83.187 219.484 85.723 213.362 90.2372 208.847C94.7513 204.333 100.874 201.797 107.258 201.797C110.419 201.797 113.549 202.42 116.469 203.63C119.39 204.839 122.043 206.612 124.278 208.847C126.514 211.083 128.287 213.736 129.496 216.657C130.706 219.577 131.329 222.707 131.329 225.868V291.567Z" fill="#263238"/>
<path d="M306.579 235.665H104.855C102.368 235.654 99.9862 234.659 98.2317 232.895C96.4773 231.132 95.4933 228.745 95.4954 226.258C95.4933 223.771 96.4773 221.384 98.2317 219.621C99.9862 217.857 102.368 216.862 104.855 216.851H306.579C309.066 216.864 311.446 217.86 313.2 219.623C314.954 221.386 315.939 223.771 315.939 226.258C315.939 228.745 314.954 231.13 313.2 232.893C311.446 234.656 309.066 235.652 306.579 235.665Z" fill="#FF725E"/>
<g opacity="0.5">
<path d="M105.004 232.599C108.506 232.599 111.345 229.76 111.345 226.258C111.345 222.756 108.506 219.917 105.004 219.917C101.501 219.917 98.6622 222.756 98.6622 226.258C98.6622 229.76 101.501 232.599 105.004 232.599Z" fill="white"/>
</g>
<path d="M120.58 235.665L134.737 216.859H157.786L142.795 235.665H120.58Z" fill="white"/>
<path d="M170.157 235.665L184.314 216.859H207.363L192.371 235.665H170.157Z" fill="white"/>
<path d="M219.734 235.665L233.891 216.859H256.94L241.948 235.665H219.734Z" fill="white"/>
<path d="M269.311 235.665L283.468 216.859H306.517L291.525 235.665H269.311Z" fill="white"/>
<path d="M306.579 235.665H306.875C307.173 235.654 307.47 235.628 307.765 235.587C308.922 235.437 310.041 235.072 311.064 234.51C311.811 234.08 312.501 233.556 313.115 232.95C313.844 232.219 314.452 231.376 314.917 230.454C315.568 229.155 315.905 227.721 315.902 226.268C315.899 224.814 315.556 223.382 314.9 222.085C314.244 220.788 313.294 219.662 312.126 218.798C310.957 217.934 309.602 217.355 308.17 217.109C307.277 216.976 306.374 216.926 305.471 216.96H296.618H268.375L104.871 217.015C102.914 217.021 101.008 217.647 99.4291 218.803C97.8497 219.959 96.6773 221.586 96.0804 223.45C95.8038 224.374 95.6619 225.333 95.6592 226.297C95.674 227.256 95.8317 228.208 96.1272 229.121C96.735 230.938 97.8939 232.521 99.4428 233.649C100.992 234.777 102.854 235.394 104.77 235.415H121.93H165.344L238.852 235.454L288.413 235.524L301.883 235.563H305.393H306.587C306.587 235.563 306.181 235.563 305.393 235.563H301.883H288.413L238.852 235.626L165.344 235.673H104.77C102.768 235.651 100.824 235.006 99.2064 233.827C97.5889 232.649 96.379 230.995 95.745 229.097C95.4372 228.144 95.2716 227.15 95.2536 226.149C95.257 225.142 95.4068 224.141 95.6982 223.177C96.3224 221.233 97.546 219.536 99.1937 218.329C100.842 217.123 102.829 216.469 104.871 216.461L268.375 216.524H296.618H305.471C306.387 216.493 307.303 216.545 308.209 216.68C309.697 216.923 311.104 217.518 312.316 218.415C313.527 219.312 314.507 220.485 315.175 221.836C315.842 223.187 316.177 224.679 316.153 226.186C316.129 227.693 315.745 229.172 315.034 230.501C314.561 231.433 313.939 232.281 313.193 233.013C312.568 233.619 311.868 234.143 311.111 234.573C310.076 235.128 308.946 235.485 307.78 235.626C307.381 235.663 306.98 235.677 306.579 235.665Z" fill="#263238"/>
<path d="M140.4 85.6708C140.4 85.78 124.231 85.8736 104.286 85.8736C84.3414 85.8736 68.1642 85.78 68.1642 85.6708C68.1642 85.5616 84.3336 85.468 104.286 85.468C124.238 85.468 140.4 85.5538 140.4 85.6708Z" fill="#263238"/>
<path d="M140.4 79.0096C140.4 79.1188 124.231 79.2124 104.286 79.2124C84.3414 79.2124 68.1642 79.1422 68.1642 79.0096C68.1642 78.877 84.3336 78.8068 104.286 78.8068C124.238 78.8068 140.4 78.8926 140.4 79.0096Z" fill="#263238"/>
<path d="M140.4 92.0746C140.4 92.1838 124.231 92.2774 104.286 92.2774C84.3414 92.2774 68.1642 92.1838 68.1642 92.0746C68.1642 91.9654 84.3336 91.8718 104.286 91.8718C124.238 91.8718 140.4 91.9576 140.4 92.0746Z" fill="#263238"/>
<path d="M175.414 291.567C175.414 291.677 137.241 291.77 90.168 291.77C43.095 291.77 4.90619 291.677 4.90619 291.567C4.90619 291.458 43.0716 291.365 90.168 291.365C137.264 291.365 175.414 291.45 175.414 291.567Z" fill="#455A64"/>
<path d="M40.5444 323.61C40.4274 323.61 40.3416 316.403 40.3416 307.511C40.3416 298.619 40.4274 291.411 40.5444 291.411C40.6614 291.411 40.7472 298.619 40.7472 307.511C40.7472 316.403 40.6536 323.61 40.5444 323.61Z" fill="#455A64"/>
<path d="M59.7948 323.61C59.6778 323.61 59.592 316.403 59.592 307.511C59.592 298.619 59.6778 291.411 59.7948 291.411C59.9118 291.411 59.9976 298.619 59.9976 307.511C59.9976 316.403 59.904 323.61 59.7948 323.61Z" fill="#455A64"/>
<path d="M79.0374 323.61C78.9282 323.61 78.8346 316.403 78.8346 307.511C78.8346 298.619 78.9282 291.411 79.0374 291.411C79.1466 291.411 79.248 298.619 79.248 307.511C79.248 316.403 79.1544 323.61 79.0374 323.61Z" fill="#455A64"/>
<path d="M98.2878 323.61C98.1786 323.61 98.085 316.403 98.085 307.511C98.085 298.619 98.1786 291.411 98.2878 291.411C98.397 291.411 98.4906 298.619 98.4906 307.511C98.4906 316.403 98.4048 323.61 98.2878 323.61Z" fill="#455A64"/>
<path d="M117.538 323.61C117.429 323.61 117.335 316.403 117.335 307.511C117.335 298.619 117.429 291.411 117.538 291.411C117.647 291.411 117.741 298.619 117.741 307.511C117.741 316.403 117.694 323.61 117.538 323.61Z" fill="#455A64"/>
<path d="M136.789 323.61C136.679 323.61 136.586 316.403 136.586 307.511C136.586 298.619 136.679 291.411 136.789 291.411C136.898 291.411 136.991 298.619 136.991 307.511C136.991 316.403 136.906 323.61 136.789 323.61Z" fill="#455A64"/>
<path d="M156.039 323.61C155.93 323.61 155.836 316.403 155.836 307.511C155.836 298.619 155.93 291.411 156.039 291.411C156.148 291.411 156.242 298.619 156.242 307.511C156.242 316.403 156.148 323.61 156.039 323.61Z" fill="#455A64"/>
<path d="M22.581 323.446C22.464 323.446 22.3782 316.239 22.3782 307.347C22.3782 298.455 22.464 291.248 22.581 291.248C22.698 291.248 22.7838 298.455 22.7838 307.347C22.7838 316.239 22.6902 323.446 22.581 323.446Z" fill="#455A64"/>
<path d="M132.662 118.517H74.8098V178.616H132.662V118.517Z" fill="white"/>
<path d="M114.052 153.281C114.664 151.899 114.996 150.409 115.027 148.898C116.017 148.118 119.574 147.455 119.574 147.455L119.371 146.121C117.804 146.195 116.233 146.085 114.691 145.793C114.402 144.643 113.933 143.545 113.303 142.541C113.809 141.601 114.505 140.778 115.346 140.123L114.488 139.077C113.669 139.721 112.763 140.246 111.797 140.637C111.18 140.005 110.494 139.443 109.754 138.96C109.567 137.751 110.791 134.28 110.791 134.28L109.535 133.789C108.805 135.175 107.915 136.471 106.883 137.65C105.796 137.317 104.666 137.149 103.529 137.151C102.987 136.225 102.629 135.202 102.476 134.14L101.143 134.351C101.283 135.365 101.283 136.394 101.143 137.408C100.167 137.613 99.2228 137.946 98.3346 138.399C97.149 137.884 94.7856 135.17 94.7856 135.17L93.7248 136.028C94.5659 137.325 95.2493 138.718 95.7606 140.177C94.8218 141.044 94.0314 142.058 93.4206 143.18C92.4348 143.172 91.459 142.981 90.5424 142.619L90.0588 143.898C90.9435 144.25 91.7796 144.714 92.547 145.278C92.2396 146.262 92.069 147.283 92.04 148.313C90.652 148.892 89.2059 149.321 87.7266 149.592L87.9372 150.941C89.4047 150.86 90.8765 150.957 92.3208 151.23C92.6024 152.476 93.0929 153.665 93.7716 154.748C93.2661 155.586 92.6134 156.326 91.845 156.932L92.703 157.992C93.4533 157.405 94.2765 156.917 95.1522 156.542C96.2783 157.735 97.6448 158.676 99.1614 159.303C99.528 160.637 99.2238 163.983 99.2238 163.983L100.581 164.162C100.895 162.754 101.385 161.392 102.04 160.106C103.06 160.239 104.093 160.239 105.113 160.106C105.639 160.031 106.16 159.921 106.673 159.779C107.236 160.555 107.661 161.423 107.929 162.345L109.239 161.947C108.963 160.97 108.819 159.96 108.81 158.944C110.251 158.205 111.522 157.171 112.538 155.91C113.975 156.379 115.356 157.004 116.657 157.774L117.382 156.62C116.136 155.652 115.017 154.53 114.052 153.281Z" fill="#FF725E"/>
<g opacity="0.2">
<path d="M111.587 151.862C111.025 151.659 110.978 150.489 110.612 148.944C110.612 148.757 110.51 148.554 110.464 148.352C110.417 148.149 110.339 147.938 110.276 147.728C110.129 147.284 109.957 146.849 109.762 146.425C109.338 145.495 108.763 144.641 108.061 143.898C107.345 143.169 106.515 142.56 105.604 142.096C105.188 141.886 104.761 141.698 104.325 141.534C104.114 141.464 103.912 141.378 103.709 141.316C103.506 141.254 103.311 141.191 103.116 141.144C101.595 140.715 100.425 140.63 100.246 140.06C100.225 139.984 100.221 139.904 100.235 139.825C100.248 139.747 100.279 139.673 100.324 139.608C100.46 139.397 100.638 139.217 100.846 139.077C101.549 138.612 102.35 138.316 103.186 138.212C103.451 138.165 103.732 138.157 104.029 138.134C104.325 138.11 104.629 138.134 104.949 138.134C105.631 138.191 106.306 138.319 106.961 138.516C107.698 138.737 108.403 139.052 109.06 139.452C109.783 139.883 110.446 140.408 111.033 141.012C112.146 142.185 112.95 143.616 113.373 145.177C113.544 145.841 113.643 146.52 113.669 147.205C113.685 147.512 113.685 147.819 113.669 148.125C113.647 148.405 113.611 148.684 113.56 148.96C113.428 149.804 113.099 150.606 112.601 151.3C112.454 151.504 112.265 151.674 112.047 151.799C111.98 151.843 111.904 151.872 111.824 151.883C111.744 151.893 111.663 151.886 111.587 151.862Z" fill="white"/>
</g>
<path d="M95.0274 134.429C95.1834 134.616 94.8402 135.209 94.2474 135.653C94.0675 135.805 93.8744 135.941 93.6702 136.059C93.3036 136.254 93.0072 136.316 92.8902 136.191C92.7732 136.067 93.0774 135.45 93.6702 134.967C94.263 134.483 94.8714 134.234 95.0274 134.429Z" fill="#FF725E"/>
<path opacity="0.3" d="M93.717 136.028C94.1106 135.792 94.4635 135.494 94.7622 135.146C94.9338 135.333 95.121 135.552 95.3238 135.762C94.8802 136.011 94.3975 136.183 93.8964 136.269L93.717 136.028Z" fill="black"/>
<path d="M90.3942 141.846C90.6282 141.924 90.6048 142.58 90.3474 143.297C90.2704 143.52 90.1711 143.734 90.051 143.937C89.8404 144.288 89.6142 144.498 89.4582 144.444C89.3022 144.389 89.2476 143.711 89.505 142.993C89.7624 142.275 90.1446 141.761 90.3942 141.846Z" fill="#FF725E"/>
<path opacity="0.3" d="M90.0666 143.882C90.3131 143.493 90.4678 143.053 90.519 142.595C90.753 142.689 91.0182 142.775 91.299 142.86C91.0456 143.291 90.7212 143.676 90.3396 143.999L90.0666 143.882Z" fill="black"/>
<path d="M87.2196 148.976C87.4614 148.937 87.7578 149.514 87.8904 150.263C87.9262 150.498 87.9445 150.735 87.945 150.972C87.945 151.386 87.8358 151.674 87.672 151.706C87.5082 151.737 87.126 151.167 87.0012 150.419C86.8764 149.67 86.97 149.022 87.2196 148.976Z" fill="#FF725E"/>
<path opacity="0.3" d="M87.945 150.902C87.9337 150.445 87.8522 149.993 87.7032 149.561L88.4832 149.389C88.4745 149.895 88.3796 150.397 88.2024 150.871L87.945 150.902Z" fill="black"/>
<path d="M91.104 156.651C91.2912 156.495 91.884 156.838 92.3364 157.431C92.4863 157.611 92.6194 157.804 92.7342 158.008C92.937 158.375 92.9994 158.671 92.8746 158.788C92.7498 158.905 92.0946 158.609 91.6422 158.008C91.1898 157.407 90.909 156.807 91.104 156.651Z" fill="#FF725E"/>
<path opacity="0.3" d="M92.7342 157.922C92.5212 157.511 92.2171 157.153 91.845 156.877C92.04 156.721 92.2506 156.534 92.4612 156.339C92.7079 156.772 92.8794 157.244 92.9682 157.735L92.7342 157.922Z" fill="black"/>
<path d="M98.4984 164.232C98.4984 163.991 99.1692 163.858 99.9258 163.952C100.161 163.974 100.394 164.021 100.62 164.092C101.01 164.217 101.267 164.388 101.244 164.552C101.221 164.716 100.581 164.927 99.8244 164.841C99.0678 164.755 98.475 164.482 98.4984 164.232Z" fill="#FF725E"/>
<path opacity="0.3" d="M100.534 164.076C100.089 163.958 99.6291 163.908 99.1692 163.928C99.1692 163.679 99.216 163.39 99.2316 163.101C99.7166 163.25 100.173 163.479 100.581 163.78L100.534 164.076Z" fill="black"/>
<path d="M107.367 162.86C107.289 162.618 107.819 162.243 108.545 162.009C108.768 161.935 108.998 161.883 109.231 161.853C109.645 161.807 109.941 161.853 110.011 162.009C110.081 162.165 109.559 162.626 108.833 162.86C108.108 163.094 107.437 163.094 107.367 162.86Z" fill="#FF725E"/>
<path opacity="0.3" d="M109.177 161.861C108.715 161.903 108.27 162.049 107.874 162.29C107.804 162.048 107.71 161.783 107.609 161.51C108.103 161.446 108.604 161.467 109.091 161.573L109.177 161.861Z" fill="black"/>
<path d="M116.587 158.484C116.368 158.359 116.524 157.704 116.922 157.072C117.042 156.868 117.183 156.677 117.343 156.503C117.616 156.198 117.881 156.042 118.022 156.128C118.162 156.214 118.084 156.908 117.686 157.54C117.289 158.172 116.797 158.616 116.587 158.484Z" fill="#FF725E"/>
<path opacity="0.3" d="M117.296 156.549C117.006 156.901 116.772 157.296 116.602 157.719L115.869 157.314C116.21 156.938 116.61 156.622 117.055 156.378L117.296 156.549Z" fill="black"/>
<path opacity="0.3" d="M98.8572 150.949C98.9742 151.83 98.592 152.618 97.9992 152.696C97.4064 152.774 96.8214 152.127 96.7044 151.245C96.5874 150.364 96.9618 149.576 97.5624 149.498C98.163 149.42 98.7324 150.068 98.8572 150.949Z" fill="black"/>
<path d="M98.3268 150.122C98.4516 151.004 98.0616 151.791 97.4688 151.869C96.876 151.947 96.2988 151.3 96.174 150.419C96.0492 149.537 96.4392 148.749 97.032 148.671C97.6248 148.593 98.1942 149.217 98.3268 150.122Z" fill="#FF725E"/>
<path opacity="0.2" d="M98.3268 150.122C98.4516 151.004 98.0616 151.791 97.4688 151.869C96.876 151.947 96.2988 151.3 96.174 150.419C96.0492 149.537 96.4392 148.749 97.032 148.671C97.6248 148.593 98.1942 149.217 98.3268 150.122Z" fill="white"/>
<path opacity="0.3" d="M97.1568 141.815C97.8822 141.293 98.7168 141.269 99.099 141.753C99.4812 142.236 99.1536 143.055 98.4282 143.578C97.7028 144.101 96.8292 144.124 96.4782 143.64C96.1272 143.157 96.4314 142.322 97.1568 141.815Z" fill="black"/>
<path d="M96.5718 141.043C97.2894 140.52 98.1318 140.489 98.514 140.981C98.8962 141.472 98.5608 142.283 97.8354 142.806C97.11 143.328 96.2754 143.352 95.8932 142.868C95.511 142.385 95.8542 141.542 96.5718 141.043Z" fill="#FF725E"/>
<path opacity="0.2" d="M96.5718 141.043C97.2894 140.52 98.1318 140.489 98.514 140.981C98.8962 141.472 98.5608 142.283 97.8354 142.806C97.11 143.328 96.2754 143.352 95.8932 142.868C95.511 142.385 95.8542 141.542 96.5718 141.043Z" fill="white"/>
<path opacity="0.3" d="M102.679 155.325C102.699 155.463 102.691 155.603 102.656 155.738C102.621 155.873 102.56 155.999 102.476 156.11C102.392 156.221 102.286 156.315 102.166 156.385C102.046 156.455 101.913 156.5 101.774 156.518C101.566 156.547 101.355 156.514 101.166 156.422C100.977 156.331 100.819 156.185 100.713 156.004C100.607 155.823 100.557 155.614 100.569 155.405C100.582 155.195 100.656 154.994 100.783 154.827C100.91 154.659 101.083 154.533 101.282 154.465C101.48 154.396 101.694 154.388 101.898 154.442C102.101 154.495 102.283 154.607 102.422 154.765C102.562 154.922 102.651 155.117 102.679 155.325Z" fill="black"/>
<path d="M102.601 154.755C102.622 154.894 102.615 155.035 102.581 155.171C102.546 155.307 102.485 155.434 102.401 155.546C102.317 155.658 102.211 155.752 102.09 155.822C101.969 155.893 101.835 155.938 101.696 155.957C101.489 155.985 101.277 155.952 101.089 155.861C100.9 155.769 100.743 155.624 100.637 155.443C100.53 155.263 100.48 155.055 100.492 154.845C100.504 154.636 100.578 154.435 100.704 154.268C100.83 154.1 101.003 153.974 101.201 153.905C101.398 153.835 101.612 153.826 101.815 153.878C102.018 153.931 102.201 154.042 102.341 154.198C102.481 154.354 102.571 154.548 102.601 154.755Z" fill="#FF725E"/>
<path opacity="0.3" d="M102.601 154.755C102.622 154.894 102.615 155.035 102.581 155.171C102.546 155.307 102.485 155.434 102.401 155.546C102.317 155.658 102.211 155.752 102.09 155.822C101.969 155.893 101.835 155.938 101.696 155.957C101.489 155.985 101.277 155.952 101.089 155.861C100.9 155.769 100.743 155.624 100.637 155.443C100.53 155.263 100.48 155.055 100.492 154.845C100.504 154.636 100.578 154.435 100.704 154.268C100.83 154.1 101.003 153.974 101.201 153.905C101.398 153.835 101.612 153.826 101.815 153.878C102.018 153.931 102.201 154.042 102.341 154.198C102.481 154.354 102.571 154.548 102.601 154.755Z" fill="white"/>
<path opacity="0.3" d="M108.389 144.998C108.241 145.209 108.035 145.371 107.795 145.465C107.556 145.559 107.294 145.579 107.042 145.524C106.791 145.469 106.561 145.341 106.383 145.156C106.204 144.97 106.085 144.736 106.039 144.483C105.993 144.23 106.024 143.969 106.126 143.733C106.229 143.497 106.399 143.296 106.615 143.157C106.832 143.018 107.085 142.945 107.342 142.95C107.599 142.954 107.849 143.034 108.061 143.18C108.202 143.278 108.323 143.402 108.416 143.547C108.509 143.691 108.572 143.852 108.603 144.021C108.633 144.19 108.63 144.363 108.593 144.531C108.557 144.698 108.487 144.857 108.389 144.998Z" fill="black"/>
<path d="M108.787 144.42C108.639 144.631 108.433 144.794 108.193 144.888C107.953 144.982 107.691 145.002 107.44 144.947C107.189 144.892 106.959 144.764 106.78 144.579C106.602 144.393 106.482 144.159 106.437 143.906C106.391 143.653 106.421 143.391 106.524 143.155C106.627 142.919 106.797 142.719 107.013 142.58C107.229 142.44 107.482 142.368 107.74 142.372C107.997 142.376 108.247 142.457 108.459 142.603C108.6 142.701 108.721 142.825 108.814 142.969C108.907 143.114 108.97 143.275 109.001 143.444C109.031 143.613 109.028 143.786 108.991 143.953C108.954 144.121 108.885 144.28 108.787 144.42Z" fill="#FF725E"/>
<path opacity="0.3" d="M108.787 144.42C108.639 144.631 108.433 144.794 108.193 144.888C107.953 144.982 107.691 145.002 107.44 144.947C107.189 144.892 106.959 144.764 106.78 144.579C106.602 144.393 106.482 144.159 106.437 143.906C106.391 143.653 106.421 143.391 106.524 143.155C106.627 142.919 106.797 142.719 107.013 142.58C107.229 142.44 107.482 142.368 107.74 142.372C107.997 142.376 108.247 142.457 108.459 142.603C108.6 142.701 108.721 142.825 108.814 142.969C108.907 143.114 108.97 143.275 109.001 143.444C109.031 143.613 109.028 143.786 108.991 143.953C108.954 144.121 108.885 144.28 108.787 144.42Z" fill="white"/>
<path opacity="0.3" d="M108.186 155.621C108.215 155.826 108.161 156.034 108.037 156.199C107.913 156.365 107.728 156.474 107.523 156.503C107.316 156.531 107.107 156.475 106.941 156.349C106.775 156.222 106.666 156.035 106.638 155.828C106.61 155.621 106.665 155.412 106.792 155.246C106.918 155.08 107.106 154.971 107.312 154.943C107.414 154.93 107.518 154.937 107.617 154.964C107.716 154.991 107.809 155.037 107.89 155.1C107.971 155.163 108.039 155.242 108.09 155.331C108.141 155.421 108.173 155.519 108.186 155.621Z" fill="black"/>
<path d="M108.131 155.208C108.153 155.361 108.129 155.516 108.062 155.655C107.995 155.794 107.888 155.91 107.756 155.989C107.623 156.067 107.47 156.105 107.316 156.096C107.162 156.087 107.014 156.033 106.89 155.941C106.767 155.848 106.674 155.721 106.623 155.575C106.572 155.429 106.565 155.272 106.604 155.122C106.642 154.973 106.724 154.838 106.839 154.736C106.954 154.633 107.097 154.566 107.25 154.545C107.455 154.516 107.663 154.57 107.828 154.694C107.993 154.818 108.102 155.003 108.131 155.208Z" fill="#FF725E"/>
<path opacity="0.3" d="M108.131 155.208C108.153 155.361 108.129 155.516 108.062 155.655C107.995 155.794 107.888 155.91 107.756 155.989C107.623 156.067 107.47 156.105 107.316 156.096C107.162 156.087 107.014 156.033 106.89 155.941C106.767 155.848 106.674 155.721 106.623 155.575C106.572 155.429 106.565 155.272 106.604 155.122C106.642 154.973 106.724 154.838 106.839 154.736C106.954 154.633 107.097 154.566 107.25 154.545C107.455 154.516 107.663 154.57 107.828 154.694C107.993 154.818 108.102 155.003 108.131 155.208Z" fill="white"/>
<path d="M120.034 148.04C119.792 148.04 119.496 147.509 119.371 146.76C119.327 146.532 119.309 146.299 119.317 146.066C119.317 145.661 119.418 145.372 119.582 145.349C119.746 145.325 120.12 145.871 120.245 146.62C120.37 147.369 120.299 147.993 120.034 148.04Z" fill="#FF725E"/>
<path opacity="0.3" d="M119.34 146.129C119.347 146.58 119.426 147.028 119.574 147.455L118.794 147.626C118.803 147.126 118.895 146.63 119.067 146.16L119.34 146.129Z" fill="black"/>
<path d="M116.033 140.38C115.846 140.536 115.307 140.201 114.824 139.6C114.672 139.42 114.536 139.227 114.418 139.023C114.223 138.664 114.161 138.368 114.286 138.243C114.41 138.118 115.019 138.43 115.502 139.023C115.986 139.616 116.228 140.224 116.033 140.38Z" fill="#FF725E"/>
<path opacity="0.3" d="M114.449 139.101C114.66 139.505 114.961 139.855 115.331 140.123C115.128 140.279 114.925 140.466 114.715 140.661C114.472 140.232 114.303 139.765 114.215 139.28L114.449 139.101Z" fill="black"/>
<path d="M111.517 134.132C111.431 134.358 110.791 134.335 110.089 134.07C109.87 133.985 109.658 133.88 109.457 133.758C109.106 133.547 108.911 133.321 108.966 133.173C109.021 133.025 109.691 132.97 110.401 133.235C111.111 133.5 111.602 133.906 111.517 134.132Z" fill="#FF725E"/>
<path opacity="0.3" d="M109.504 133.789C109.901 134.011 110.33 134.169 110.776 134.257C110.698 134.491 110.604 134.764 110.518 135.037C110.089 134.778 109.707 134.448 109.387 134.062L109.504 133.789Z" fill="black"/>
<path d="M103.038 133.633C103.038 133.875 102.508 134.171 101.767 134.304C101.537 134.344 101.305 134.362 101.072 134.358C100.667 134.358 100.378 134.257 100.347 134.093C100.316 133.929 100.877 133.555 101.618 133.43C102.359 133.305 102.999 133.391 103.038 133.633Z" fill="#FF725E"/>
<path opacity="0.3" d="M101.127 134.358C101.584 134.381 102.041 134.298 102.461 134.117C102.498 134.379 102.55 134.64 102.617 134.897C102.122 134.891 101.631 134.801 101.166 134.631L101.127 134.358Z" fill="black"/>
<path opacity="0.3" d="M110.674 152.509C110.37 153.344 109.66 153.858 109.114 153.656C108.568 153.453 108.334 152.603 108.646 151.76C108.958 150.918 109.66 150.411 110.206 150.621C110.752 150.832 110.939 151.682 110.674 152.509Z" fill="black"/>
<path d="M111.033 152.01C110.729 152.852 110.027 153.359 109.473 153.156C108.919 152.954 108.693 152.103 109.013 151.269C109.333 150.434 110.019 149.919 110.573 150.122C111.127 150.325 111.337 151.175 111.033 152.01Z" fill="#FF725E"/>
<path opacity="0.3" d="M111.033 152.01C110.729 152.852 110.027 153.359 109.473 153.156C108.919 152.954 108.693 152.103 109.013 151.269C109.333 150.434 110.019 149.919 110.573 150.122C111.127 150.325 111.337 151.175 111.033 152.01Z" fill="white"/>
<path opacity="0.3" d="M105.074 148.079C105.117 148.395 105.066 148.717 104.926 149.004C104.786 149.292 104.564 149.531 104.289 149.692C104.013 149.853 103.695 149.929 103.377 149.91C103.058 149.89 102.752 149.777 102.497 149.584C102.243 149.39 102.052 149.126 101.948 148.824C101.844 148.522 101.831 148.196 101.913 147.887C101.994 147.578 102.165 147.3 102.404 147.089C102.643 146.877 102.94 146.741 103.256 146.698C103.68 146.64 104.11 146.753 104.451 147.012C104.792 147.271 105.016 147.655 105.074 148.079Z" fill="black"/>
<path d="M104.949 147.15C104.992 147.467 104.941 147.788 104.801 148.075C104.661 148.362 104.44 148.601 104.165 148.762C103.889 148.923 103.572 148.999 103.254 148.98C102.935 148.962 102.63 148.849 102.375 148.656C102.121 148.464 101.929 148.2 101.824 147.899C101.719 147.598 101.706 147.272 101.786 146.963C101.866 146.654 102.036 146.376 102.274 146.164C102.512 145.951 102.808 145.814 103.124 145.77C103.549 145.712 103.979 145.825 104.321 146.083C104.663 146.342 104.889 146.726 104.949 147.15Z" fill="#FF725E"/>
<path opacity="0.2" d="M104.949 147.15C104.992 147.467 104.941 147.788 104.801 148.075C104.661 148.362 104.44 148.601 104.165 148.762C103.889 148.923 103.572 148.999 103.254 148.98C102.935 148.962 102.63 148.849 102.375 148.656C102.121 148.464 101.929 148.2 101.824 147.899C101.719 147.598 101.706 147.272 101.786 146.963C101.866 146.654 102.036 146.376 102.274 146.164C102.512 145.951 102.808 145.814 103.124 145.77C103.549 145.712 103.979 145.825 104.321 146.083C104.663 146.342 104.889 146.726 104.949 147.15Z" fill="white"/>
<g opacity="0.2">
<path d="M110.425 156.261C110.51 156.37 110.425 156.643 110.066 157.041C109.583 157.558 109.022 157.998 108.404 158.343C107.982 158.588 107.541 158.799 107.086 158.975C106.558 159.177 106.016 159.338 105.464 159.459C102.875 160.008 100.175 159.58 97.8822 158.258C97.3911 157.98 96.9241 157.662 96.486 157.306C96.1086 156.994 95.7541 156.655 95.4252 156.292C94.9452 155.774 94.5479 155.184 94.2474 154.545C94.0524 154.085 94.0212 153.765 94.1382 153.71C94.3956 153.546 95.121 154.287 96.408 155.2C96.7278 155.426 97.0866 155.66 97.4766 155.894C97.8666 156.128 98.3034 156.354 98.7636 156.565C100.754 157.493 102.965 157.841 105.144 157.571C105.624 157.515 106.1 157.434 106.571 157.329C107.016 157.228 107.437 157.119 107.812 157.002C109.309 156.51 110.237 156.019 110.425 156.261Z" fill="black"/>
</g>
<g opacity="0.2">
<path d="M93.4362 149.678C93.6266 149.653 93.82 149.686 93.9924 149.77C94.1648 149.854 94.3087 149.988 94.4064 150.153C94.504 150.318 94.551 150.508 94.5417 150.7C94.5324 150.892 94.4671 151.077 94.354 151.232C94.2408 151.387 94.0847 151.506 93.9049 151.573C93.7251 151.64 93.5296 151.654 93.3423 151.611C93.1551 151.568 92.9845 151.472 92.8514 151.334C92.7184 151.195 92.6288 151.021 92.5938 150.832C92.5727 150.701 92.5778 150.567 92.6088 150.438C92.6398 150.308 92.6961 150.187 92.7745 150.079C92.8528 149.972 92.9516 149.881 93.0651 149.812C93.1787 149.743 93.3048 149.698 93.4362 149.678Z" fill="black"/>
</g>
<path d="M79.521 115.982H77.5554V120.35H79.521V115.982Z" fill="#E0E0E0"/>
<path d="M130.712 115.982H128.747V120.35H130.712V115.982Z" fill="#E0E0E0"/>
<path d="M78.3198 175.8H76.3542V180.168H78.3198V175.8Z" fill="#E0E0E0"/>
<path d="M130.712 175.8H128.747V180.168H130.712V175.8Z" fill="#E0E0E0"/>
<path d="M528.224 210.408C528.044 210.923 527.826 211.524 527.537 212.218C527.277 212.811 526.924 213.358 526.492 213.84C525.969 214.452 525.366 214.99 524.698 215.439C524.571 215.514 524.467 215.622 524.399 215.753C524.331 215.884 524.301 216.031 524.313 216.178C524.325 216.325 524.379 216.466 524.468 216.584C524.557 216.701 524.677 216.791 524.815 216.843C525.478 216.937 527.303 216.024 528.715 214.129C530.127 212.234 530.275 215.985 530.353 217.35C530.431 218.715 530.829 222.927 531.266 223.239C531.905 223.7 532.514 223.099 532.412 221.734C532.311 220.369 532.303 216.274 533.021 216.274C533.738 216.274 533.988 223.224 533.988 223.224C533.988 223.224 533.801 224.721 534.635 224.784C536.141 224.831 535.33 217.452 535.236 216.758C535.174 216.266 535.954 216.235 536.016 216.758C536.078 217.28 536.102 223.7 537.638 223.778C538.808 223.832 537.022 217.709 537.755 216.375C538.489 215.042 538.637 221.157 539.76 221.157C540.181 221.157 540.493 221.094 539.9 217.6C539.612 215.9 538.684 208.014 538.684 208.014L540.797 201.984L531.726 198.178L528.224 210.408Z" fill="#263238"/>
<path d="M533.005 138.173C533.005 138.173 539.081 142.416 540.251 148.484C541.094 152.821 543.005 180.69 543.005 180.69C543.005 180.69 544.658 188.88 544.822 191.525C544.986 194.169 542.194 200.105 542.194 200.105L540.914 206.345L535.298 206.688L529.932 192.086L533.005 138.173Z" fill="#455A64"/>
<path d="M548.09 307.901L551.897 322.003L539.503 323.134L536.905 309.71L548.09 307.901Z" fill="#FF725E"/>
<path d="M539.144 321.987C539.75 322.031 540.359 322.01 540.961 321.925C542.077 321.839 543.613 321.668 545.314 321.449L549.643 320.864C550.245 320.813 550.843 320.711 551.429 320.56C550.822 320.516 550.213 320.537 549.611 320.622C548.496 320.716 546.959 320.888 545.267 321.106L540.938 321.683C540.332 321.731 539.732 321.833 539.144 321.987Z" fill="#263238"/>
<g opacity="0.6">
<path d="M551.897 322.003L539.503 323.134L539.308 322.104L551.546 320.544L551.889 321.863" fill="white"/>
</g>
<path d="M545.743 321.379C545.444 319.558 545.051 317.754 544.565 315.974C544.173 314.171 543.686 312.39 543.106 310.638C543.4 312.46 543.794 314.265 544.284 316.044C544.676 317.847 545.163 319.627 545.743 321.379Z" fill="#263238"/>
<path d="M539.83 321.894C539.639 321.031 539.639 320.136 539.83 319.273C540.05 318.35 540.517 317.503 541.18 316.824C542.024 316.003 543.126 315.501 544.3 315.404C545.46 315.29 546.627 315.564 547.615 316.184C548.421 316.695 549.086 317.4 549.549 318.236C549.959 319.019 550.223 319.87 550.329 320.747C550.329 320.747 550.329 320.685 550.329 320.56C550.329 320.435 550.329 320.256 550.329 320.022C550.22 319.2 549.935 318.412 549.494 317.71C549.052 317.009 548.464 316.411 547.771 315.958C546.731 315.299 545.5 315.01 544.276 315.139C543.164 315.226 542.111 315.675 541.278 316.417C540.446 317.16 539.88 318.155 539.666 319.25C539.532 319.903 539.532 320.577 539.666 321.231C539.704 321.406 539.756 321.579 539.822 321.746C539.791 321.839 539.822 321.902 539.83 321.894Z" fill="#263238"/>
<path d="M496.915 304.118L497.741 316.644C497.741 316.644 485.261 320.786 485.199 323.118L509.566 323.29L509.075 303.72L496.915 304.118Z" fill="#FF725E"/>
<g opacity="0.6">
<path d="M505.237 315.365C505.474 315.43 505.679 315.579 505.813 315.785C505.947 315.99 506 316.238 505.963 316.481C505.905 316.718 505.759 316.925 505.555 317.06C505.351 317.194 505.104 317.246 504.863 317.206C504.608 317.141 504.387 316.984 504.243 316.764C504.099 316.545 504.042 316.28 504.083 316.02C504.165 315.777 504.339 315.575 504.568 315.459C504.797 315.342 505.062 315.32 505.307 315.396" fill="white"/>
</g>
<g opacity="0.6">
<path d="M509.566 323.282L509.512 321.309L485.987 321.964C485.736 322.089 485.521 322.275 485.361 322.506C485.201 322.736 485.103 323.003 485.074 323.282H509.566Z" fill="white"/>
</g>
<path d="M497.344 316.535C497.344 316.652 497.952 316.691 498.545 317.058C499.138 317.424 499.465 317.908 499.574 317.838C499.684 317.768 499.489 317.105 498.755 316.676C498.022 316.247 497.312 316.426 497.344 316.535Z" fill="#263238"/>
<path d="M494.824 317.666C494.824 317.783 495.323 317.97 495.737 318.446C496.15 318.922 496.291 319.468 496.408 319.46C496.525 319.452 496.579 318.774 496.049 318.173C495.518 317.573 494.824 317.557 494.824 317.666Z" fill="#263238"/>
<path d="M493.467 320.771C493.576 320.771 493.724 320.193 493.397 319.554C493.069 318.914 492.508 318.665 492.461 318.774C492.414 318.883 492.765 319.211 493.022 319.741C493.28 320.271 493.35 320.763 493.467 320.771Z" fill="#263238"/>
<path d="M497.468 313.657C497.523 313.766 498.069 313.587 498.74 313.61C499.411 313.634 499.941 313.836 500.003 313.727C500.066 313.618 499.543 313.22 498.748 313.197C497.952 313.173 497.414 313.571 497.468 313.657Z" fill="#263238"/>
<g opacity="0.3">
<path d="M497.078 306.598L497.227 308.837L509.184 308.361L509.145 306.348L497.078 306.598Z" fill="black"/>
</g>
<path d="M497.351 311.13C497.754 311.225 498.174 311.208 498.568 311.083C499.006 310.995 499.431 310.851 499.832 310.654C500.07 310.537 500.302 310.407 500.526 310.264C500.659 310.182 500.78 310.083 500.885 309.968C500.956 309.876 500.994 309.764 500.994 309.648C500.994 309.532 500.956 309.42 500.885 309.328C500.823 309.247 500.743 309.181 500.65 309.138C500.558 309.095 500.456 309.074 500.354 309.078C500.201 309.079 500.048 309.103 499.902 309.149C499.633 309.219 499.372 309.316 499.122 309.437C498.715 309.635 498.344 309.899 498.022 310.217C497.468 310.755 497.289 311.208 497.328 311.223C497.367 311.239 497.648 310.88 498.209 310.443C498.535 310.181 498.895 309.964 499.278 309.796C499.503 309.701 499.735 309.622 499.972 309.562C500.23 309.484 500.448 309.476 500.518 309.562C500.588 309.648 500.518 309.624 500.518 309.702C500.439 309.786 500.35 309.86 500.253 309.921C500.049 310.062 499.839 310.192 499.621 310.311C499.249 310.506 498.86 310.668 498.459 310.794C498.083 310.882 497.713 310.994 497.351 311.13Z" fill="#263238"/>
<path d="M497.507 311.294C497.554 311.294 497.78 310.88 497.796 310.108C497.801 309.655 497.733 309.205 497.593 308.774C497.504 308.523 497.392 308.28 497.258 308.049C497.19 307.891 497.082 307.754 496.945 307.65C496.809 307.546 496.648 307.48 496.478 307.456C496.37 307.461 496.266 307.497 496.177 307.559C496.089 307.621 496.02 307.707 495.979 307.807C495.92 307.952 495.883 308.104 495.869 308.259C495.826 308.533 495.826 308.812 495.869 309.086C495.946 309.54 496.137 309.967 496.423 310.326C496.922 310.943 497.422 311.067 497.429 311.028C497.437 310.989 497.047 310.748 496.649 310.155C496.429 309.813 496.285 309.427 496.228 309.024C496.197 308.788 496.197 308.55 496.228 308.314C496.228 308.057 496.353 307.846 496.447 307.869C496.54 307.893 496.782 308.049 496.883 308.252C497.011 308.46 497.121 308.68 497.211 308.907C497.356 309.296 497.448 309.702 497.484 310.116C497.554 310.802 497.445 311.278 497.507 311.294Z" fill="#263238"/>
<path d="M496.915 195.292L534.027 195.011L551.967 312.815L536.562 314.772L516.82 217.904L510.908 315.116L510.892 315.404L494.239 315.116L496.915 195.292Z" fill="#263238"/>
<path d="M513.794 204.839H512.959H510.689L502.765 204.777L502.944 204.605C502.944 206.945 502.944 209.535 502.944 212.296L502.889 212.156L504.286 213.443L508.396 217.226H508.147L513.677 212.39L513.63 212.499C513.63 210.206 513.692 208.31 513.708 206.937C513.708 206.306 513.708 205.791 513.708 205.377C513.696 205.19 513.696 205.003 513.708 204.816C513.729 204.984 513.729 205.154 513.708 205.323C513.708 205.713 513.708 206.22 513.708 206.836C513.708 208.24 513.755 210.159 513.786 212.491V212.553L513.731 212.6L508.271 217.499L508.147 217.616L508.022 217.499L503.903 213.723L502.507 212.436L502.445 212.382V212.296C502.445 209.535 502.445 206.93 502.445 204.605V204.426H502.616L510.814 204.722L513.045 204.816C513.295 204.804 513.545 204.812 513.794 204.839Z" fill="#455A64"/>
<path d="M531.266 204.324C531.009 204.38 530.748 204.419 530.486 204.441L528.458 204.691L521.36 205.471L521.508 205.284C521.789 207.554 522.116 210.151 522.467 212.912L522.397 212.787L524.074 214.082C525.439 215.166 526.757 216.227 527.974 217.202H527.709L532.077 211.789V211.906C531.827 209.628 531.632 207.756 531.484 206.384C531.422 205.752 531.367 205.237 531.328 204.824C531.316 204.634 531.316 204.444 531.328 204.254C531.371 204.418 531.402 204.585 531.422 204.753C531.476 205.151 531.554 205.65 531.648 206.267C531.835 207.655 532.093 209.558 532.428 211.859V211.922V211.976L528.115 217.436L527.998 217.584L527.849 217.467L523.903 214.347L522.343 213.076L522.28 213.021V212.943C521.945 210.182 521.641 207.585 521.368 205.307V205.136H521.539L528.77 204.488L530.759 204.332C530.928 204.32 531.097 204.318 531.266 204.324Z" fill="#455A64"/>
<path d="M508.552 222.21C509.032 221.804 509.555 221.454 510.112 221.165C511.103 220.572 512.499 219.792 514.082 219.004C515.666 218.216 517.124 217.569 518.193 217.132C518.758 216.86 519.352 216.653 519.964 216.516C519.438 216.856 518.882 217.145 518.302 217.382C517.265 217.881 515.83 218.567 514.254 219.355C512.678 220.143 511.267 220.876 510.245 221.406C509.708 221.729 509.141 221.998 508.552 222.21Z" fill="#455A64"/>
<path d="M509.036 225.065C510.347 224.315 511.574 223.426 512.694 222.413C513.717 221.304 514.624 220.094 515.401 218.801C514.9 220.266 514.064 221.593 512.958 222.676C511.853 223.76 510.51 224.57 509.036 225.041V225.065Z" fill="#455A64"/>
<path d="M498.553 259.104C498.623 259.104 498.896 259.954 499.715 261.14C500.763 262.696 502.242 263.913 503.97 264.643C505.699 265.373 507.603 265.584 509.449 265.25C510.869 265.008 511.688 264.595 511.711 264.657C511.735 264.72 511.532 264.806 511.157 264.977C510.627 265.216 510.073 265.397 509.504 265.515C507.601 265.943 505.612 265.765 503.815 265.007C502.018 264.249 500.503 262.949 499.481 261.288C499.163 260.799 498.901 260.276 498.701 259.728C498.614 259.531 498.563 259.319 498.553 259.104Z" fill="#455A64"/>
<path d="M500.994 258.105C501.5 258.191 501.998 258.317 502.484 258.48C503.675 258.77 504.893 258.938 506.119 258.979C508.997 259.08 511.321 258.644 511.345 258.768C510.863 258.963 510.356 259.087 509.839 259.135C508.604 259.332 507.353 259.408 506.103 259.361C504.848 259.325 503.604 259.118 502.406 258.745C501.9 258.619 501.422 258.403 500.994 258.105Z" fill="#455A64"/>
<path d="M528.59 258.807C530.184 259.941 531.9 260.891 533.707 261.639C535.562 262.261 537.484 262.664 539.432 262.84C538.86 262.954 538.272 262.973 537.693 262.895C534.868 262.693 532.16 261.683 529.893 259.985C529.399 259.664 528.959 259.267 528.59 258.807Z" fill="#455A64"/>
<path d="M531.874 258.659C531.874 258.542 533.434 258.729 535.252 258.581C537.069 258.433 538.559 258.012 538.598 258.129C537.567 258.646 536.435 258.931 535.283 258.963C534.138 259.116 532.974 259.012 531.874 258.659Z" fill="#455A64"/>
<path d="M517.054 218.715C520.973 220.075 525.099 220.737 529.246 220.673C528.649 220.826 528.035 220.896 527.42 220.884C525.943 220.936 524.465 220.845 523.006 220.611C521.545 220.379 520.11 220.002 518.723 219.488C518.133 219.31 517.571 219.05 517.054 218.715Z" fill="#455A64"/>
<path d="M518.053 214.737C518.162 214.737 518.248 215.065 518.24 215.517C518.232 215.97 518.146 216.258 518.037 216.258C517.928 216.258 517.85 215.923 517.85 215.478C517.85 215.034 517.951 214.73 518.053 214.737Z" fill="#455A64"/>
<path d="M518.045 211.742C518.146 211.742 518.24 212.078 518.24 212.522C518.24 212.967 518.162 213.302 518.06 213.302C517.959 213.302 517.858 212.967 517.858 212.561C517.858 212.156 517.936 211.742 518.045 211.742Z" fill="#455A64"/>
<path d="M517.967 208.786C518.076 208.786 518.17 209.114 518.185 209.566C518.201 210.018 518.123 210.307 518.014 210.346C517.904 210.385 517.811 210.018 517.795 209.605C517.78 209.192 517.834 208.794 517.967 208.786Z" fill="#455A64"/>
<path d="M517.834 205.814C517.936 205.814 518.045 206.142 518.06 206.547C518.076 206.953 518.014 207.327 517.912 207.327C517.811 207.327 517.702 207 517.678 206.594C517.655 206.189 517.717 205.822 517.834 205.814Z" fill="#455A64"/>
<path d="M517.616 202.85C517.725 202.85 517.834 203.17 517.865 203.576C517.897 203.981 517.865 204.356 517.725 204.356C517.585 204.356 517.507 204.036 517.475 203.63C517.444 203.225 517.507 202.858 517.616 202.85Z" fill="#455A64"/>
<path d="M517.343 199.894C517.444 199.894 517.569 200.206 517.608 200.612C517.647 201.017 517.608 201.392 517.483 201.392C517.358 201.392 517.257 201.08 517.218 200.674C517.179 200.268 517.234 199.902 517.343 199.894Z" fill="#455A64"/>
<path d="M538.278 312.011C538.379 312.011 538.528 312.3 538.613 312.698C538.699 313.095 538.668 313.478 538.567 313.478C538.465 313.478 538.309 313.189 538.231 312.791C538.153 312.393 538.169 312.027 538.278 312.011Z" fill="#455A64"/>
<path d="M537.693 309.094C537.794 309.094 537.943 309.383 538.028 309.78C538.114 310.178 538.091 310.56 537.982 310.56C537.872 310.56 537.724 310.272 537.646 309.866C537.568 309.461 537.584 309.11 537.693 309.094Z" fill="#455A64"/>
<path d="M537.108 306.177C537.209 306.177 537.365 306.465 537.443 306.871C537.521 307.277 537.506 307.651 537.397 307.651C537.287 307.651 537.147 307.362 537.061 306.957C536.975 306.551 537.007 306.2 537.108 306.177Z" fill="#455A64"/>
<path d="M536.554 303.26C536.663 303.26 536.812 303.548 536.89 303.954C536.968 304.359 536.952 304.695 536.89 304.734C536.827 304.773 536.632 304.445 536.554 304.04C536.476 303.634 536.422 303.283 536.554 303.26Z" fill="#455A64"/>
<path d="M535.938 300.342C536.047 300.342 536.195 300.631 536.273 301.037C536.351 301.442 536.336 301.817 536.273 301.817C536.211 301.817 536.016 301.528 535.938 301.13C535.86 300.732 535.837 300.366 535.938 300.342Z" fill="#455A64"/>
<path d="M535.361 297.433C535.462 297.433 535.61 297.722 535.696 298.119C535.782 298.517 535.751 298.899 535.649 298.899C535.548 298.899 535.392 298.619 535.314 298.213C535.236 297.807 535.252 297.449 535.361 297.433Z" fill="#455A64"/>
<path d="M534.776 294.516C534.877 294.516 535.033 294.804 535.111 295.202C535.189 295.6 535.174 295.982 535.064 295.982C534.955 295.982 534.815 295.694 534.729 295.288C534.643 294.882 534.667 294.539 534.776 294.516Z" fill="#455A64"/>
<path d="M534.214 291.599C534.323 291.599 534.472 291.887 534.55 292.293C534.628 292.698 534.612 293.073 534.55 293.073C534.487 293.073 534.292 292.784 534.206 292.379C534.121 291.973 534.089 291.622 534.214 291.599Z" fill="#455A64"/>
<path d="M533.606 288.681C533.715 288.681 533.863 288.97 533.941 289.376C534.019 289.781 534.004 290.156 533.941 290.156C533.879 290.156 533.684 289.867 533.606 289.469C533.528 289.071 533.504 288.705 533.606 288.681Z" fill="#455A64"/>
<path d="M533.029 285.764C533.13 285.764 533.278 286.053 533.364 286.458C533.45 286.864 533.419 287.238 533.317 287.238C533.216 287.238 533.06 286.95 532.982 286.552C532.904 286.154 532.919 285.788 533.029 285.764Z" fill="#455A64"/>
<path d="M532.444 282.855C532.545 282.855 532.693 283.143 532.779 283.541C532.865 283.939 532.841 284.321 532.732 284.321C532.623 284.321 532.475 284.033 532.397 283.627C532.319 283.221 532.334 282.87 532.444 282.855Z" fill="#455A64"/>
<path d="M531.874 279.938C531.976 279.938 532.132 280.226 532.21 280.624C532.288 281.022 532.272 281.404 532.163 281.404C532.054 281.404 531.913 281.115 531.827 280.71C531.742 280.304 531.757 279.961 531.874 279.938Z" fill="#455A64"/>
<path d="M531.274 277.02C531.383 277.02 531.531 277.309 531.609 277.715C531.687 278.12 531.671 278.456 531.609 278.495C531.547 278.534 531.352 278.206 531.274 277.8C531.196 277.395 531.172 277.044 531.274 277.02Z" fill="#455A64"/>
<path d="M530.689 274.142C530.798 274.142 530.946 274.431 531.024 274.836C531.102 275.242 531.086 275.616 531.024 275.616C530.962 275.616 530.767 275.328 530.689 274.93C530.611 274.532 530.587 274.142 530.689 274.142Z" fill="#455A64"/>
<path d="M530.111 271.194C530.213 271.194 530.361 271.475 530.447 271.88C530.533 272.286 530.509 272.66 530.4 272.66C530.291 272.66 530.143 272.372 530.065 271.974C529.987 271.576 530.002 271.209 530.111 271.194Z" fill="#455A64"/>
<path d="M529.534 268.277C529.636 268.277 529.792 268.565 529.87 268.963C529.948 269.361 529.932 269.743 529.823 269.743C529.714 269.743 529.573 269.454 529.487 269.049C529.402 268.643 529.417 268.292 529.534 268.277Z" fill="#455A64"/>
<path d="M528.941 265.359C529.051 265.359 529.199 265.648 529.277 266.054C529.355 266.459 529.339 266.795 529.277 266.834C529.214 266.873 529.019 266.545 528.941 266.139C528.863 265.734 528.84 265.383 528.941 265.359Z" fill="#455A64"/>
<path d="M528.356 262.442C528.466 262.442 528.614 262.731 528.692 263.136C528.77 263.542 528.754 263.877 528.692 263.916C528.629 263.955 528.434 263.628 528.356 263.222C528.278 262.817 528.255 262.442 528.356 262.442Z" fill="#455A64"/>
<path d="M527.779 259.525C527.881 259.525 528.029 259.814 528.115 260.219C528.2 260.625 528.169 260.999 528.068 260.999C527.966 260.999 527.81 260.711 527.732 260.313C527.654 259.915 527.67 259.548 527.779 259.525Z" fill="#455A64"/>
<path d="M527.194 256.616C527.296 256.616 527.452 256.904 527.53 257.302C527.608 257.7 527.592 258.082 527.483 258.082C527.374 258.082 527.233 257.801 527.147 257.396C527.062 256.99 527.085 256.631 527.194 256.616Z" fill="#455A64"/>
<path d="M526.609 253.698C526.711 253.698 526.867 253.987 526.945 254.385C527.023 254.783 527.007 255.165 526.898 255.165C526.789 255.165 526.648 254.876 526.562 254.471C526.477 254.065 526.508 253.714 526.609 253.698Z" fill="#455A64"/>
<path d="M526.024 250.781C526.133 250.781 526.282 251.07 526.36 251.475C526.438 251.881 526.422 252.216 526.36 252.255C526.297 252.294 526.102 251.967 526.024 251.561C525.946 251.156 525.923 250.805 526.024 250.781Z" fill="#455A64"/>
<path d="M525.439 247.864C525.548 247.864 525.697 248.153 525.782 248.558C525.868 248.964 525.837 249.299 525.736 249.338C525.634 249.377 525.478 249.05 525.4 248.652C525.322 248.254 525.338 247.887 525.439 247.864Z" fill="#455A64"/>
<path d="M524.854 244.947C524.956 244.947 525.104 245.235 525.19 245.641C525.275 246.047 525.252 246.421 525.143 246.421C525.034 246.421 524.885 246.132 524.807 245.735C524.729 245.337 524.753 244.97 524.854 244.947Z" fill="#455A64"/>
<path d="M524.277 242.037C524.378 242.037 524.534 242.326 524.612 242.724C524.69 243.122 524.675 243.504 524.566 243.504C524.456 243.504 524.316 243.215 524.23 242.81C524.144 242.404 524.176 242.053 524.277 242.037Z" fill="#455A64"/>
<path d="M523.692 239.12C523.801 239.12 523.949 239.409 524.027 239.807C524.105 240.204 524.09 240.587 523.988 240.587C523.887 240.587 523.731 240.298 523.653 239.892C523.575 239.487 523.591 239.144 523.692 239.12Z" fill="#455A64"/>
<path d="M523.107 236.203C523.216 236.203 523.364 236.492 523.442 236.897C523.52 237.303 523.505 237.638 523.403 237.677C523.302 237.716 523.146 237.389 523.068 236.983C522.99 236.577 523.006 236.226 523.107 236.203Z" fill="#455A64"/>
<path d="M522.514 233.286C522.616 233.286 522.764 233.574 522.85 233.98C522.935 234.386 522.904 234.76 522.803 234.76C522.701 234.76 522.545 234.471 522.467 234.074C522.389 233.676 522.421 233.309 522.514 233.286Z" fill="#455A64"/>
<path d="M521.945 230.376C522.046 230.376 522.202 230.657 522.28 231.063C522.358 231.468 522.343 231.843 522.233 231.843C522.124 231.843 521.984 231.554 521.898 231.156C521.812 230.759 521.836 230.392 521.945 230.376Z" fill="#455A64"/>
<path d="M521.36 227.459C521.469 227.459 521.617 227.748 521.695 228.146C521.773 228.543 521.758 228.926 521.648 228.926C521.539 228.926 521.399 228.637 521.313 228.231C521.227 227.826 521.258 227.475 521.36 227.459Z" fill="#455A64"/>
<path d="M520.775 224.542C520.884 224.542 521.032 224.831 521.11 225.236C521.188 225.642 521.173 225.977 521.071 226.016C520.97 226.055 520.814 225.728 520.736 225.322C520.658 224.916 520.673 224.565 520.775 224.542Z" fill="#455A64"/>
<path d="M520.174 221.625C520.276 221.625 520.424 221.913 520.51 222.319C520.595 222.725 520.564 223.06 520.463 223.099C520.361 223.138 520.205 222.81 520.127 222.405C520.049 221.999 520.088 221.648 520.174 221.625Z" fill="#455A64"/>
<path d="M519.691 219.09C519.792 219.09 519.925 219.293 519.987 219.589C520.049 219.885 519.987 220.151 519.901 220.166C519.815 220.182 519.667 219.963 519.605 219.667C519.542 219.371 519.581 219.113 519.691 219.09Z" fill="#455A64"/>
<path d="M519.394 103.743L519.488 134.998L506.08 135.638L505.697 128.033C505.697 128.033 500.932 128.984 499.699 124.562C498.919 121.73 499.114 99.8981 499.114 99.8981L519.394 103.743Z" fill="#FFBE9D"/>
<path d="M497.336 102.098C499.442 102.698 499.902 106.154 499.902 106.154L503.217 113.47C504.902 112.152 507.172 112.222 507.601 115.194C507.913 117.331 505.261 117.768 505.261 117.768C506.821 120.404 507.866 122.541 510.12 125.053C512.569 127.767 513.934 128.048 516.586 128.087H519.511C519.511 128.087 520.939 123.446 523.591 111.824C526.531 98.9386 511.29 100.6 508.466 97.3084C503.849 91.9576 490.675 100.202 497.336 102.098Z" fill="#263238"/>
<path d="M523.294 113.041C525.767 111.387 525.993 106.739 524.55 103.954C523.808 102.567 522.714 101.4 521.377 100.57C520.041 99.7401 518.509 99.277 516.937 99.2273C516.519 99.2514 516.099 99.2039 515.697 99.0869C515.148 98.7919 514.687 98.3556 514.363 97.8233C512.156 94.9529 509.987 92.1293 505.869 92.1293C504.965 92.0883 504.068 92.3104 503.287 92.7689C502.557 93.2669 502.009 93.99 501.727 94.8281C500.973 94.4228 500.164 94.1311 499.325 93.9623C498.903 93.8814 498.468 93.8925 498.051 93.9948C497.634 94.0971 497.243 94.2882 496.907 94.5551C496.573 94.8349 496.352 95.2255 496.283 95.6552C496.214 96.085 496.303 96.5252 496.532 96.8951C495.835 96.8867 495.158 97.1271 494.622 97.5731C494.086 98.0191 493.726 98.6415 493.607 99.3287C493.389 100.701 495.362 101.669 495.565 101.77C495.565 101.77 494.481 104.032 497.055 105.389C497.469 105.538 497.909 105.597 498.347 105.563C498.785 105.53 499.212 105.404 499.598 105.194" fill="#263238"/>
<path d="M513.505 116.052C513.688 116.808 513.832 117.574 513.934 118.345C514.215 119.585 514.628 120.545 514.535 120.599C514.007 119.983 513.669 119.227 513.56 118.423C513.32 117.653 513.301 116.832 513.505 116.052Z" fill="#455A64"/>
<path d="M511.883 114.515C512.129 115.232 512.291 115.976 512.366 116.73C512.565 117.464 512.683 118.217 512.717 118.977C512.313 118.315 512.063 117.572 511.984 116.801C511.783 116.056 511.748 115.275 511.883 114.515Z" fill="#455A64"/>
<path d="M507.242 109.359C507.242 109.32 507.702 109.523 508.256 110.069C508.947 110.796 509.479 111.659 509.816 112.604C510.161 113.539 510.402 114.51 510.533 115.498C510.623 115.902 510.649 116.318 510.611 116.73C510.435 116.358 510.317 115.961 510.26 115.553C510.059 114.601 509.798 113.664 509.48 112.745C509.141 111.842 508.656 111.002 508.045 110.256C507.577 109.687 507.203 109.406 507.242 109.359Z" fill="#455A64"/>
<path d="M505.354 105.842C505.319 106.811 505.39 107.781 505.565 108.735C505.862 109.659 506.257 110.548 506.743 111.387C505.979 110.711 505.438 109.819 505.191 108.829C504.943 107.84 505 106.798 505.354 105.842Z" fill="#455A64"/>
<path d="M521.368 113.649C521.313 113.556 521.648 113.275 522.148 113.018C522.647 112.76 523.021 112.628 523.076 112.721C523.13 112.815 522.795 113.096 522.335 113.353C521.875 113.61 521.422 113.743 521.368 113.649Z" fill="#455A64"/>
<path d="M514.886 110.342C514.995 110.342 515.198 110.896 515.58 111.52C515.962 112.144 516.36 112.589 516.298 112.674C516.235 112.76 515.666 112.409 515.252 111.715C514.839 111.021 514.784 110.342 514.886 110.342Z" fill="#455A64"/>
<path d="M512.897 109.242C513.006 109.242 513.287 109.913 513.794 110.67C514.301 111.426 514.831 111.965 514.761 112.05C514.691 112.136 513.981 111.699 513.474 110.88C513.09 110.422 512.885 109.84 512.897 109.242Z" fill="#455A64"/>
<path d="M503.014 96.154C503.014 96.154 503.061 96.0838 503.17 95.9746C503.326 95.8237 503.496 95.6878 503.677 95.569C504.38 95.1265 505.187 94.8788 506.017 94.8514C507.238 94.7812 508.452 95.0773 509.504 95.7016C510.758 96.5015 511.776 97.6216 512.452 98.9464C512.954 99.902 513.344 100.912 513.614 101.957L513.341 101.848C514.214 101.406 515.169 101.152 516.145 101.101C517.122 101.05 518.098 101.203 519.012 101.552C519.534 101.743 520.028 102.006 520.478 102.332C520.648 102.439 520.798 102.573 520.923 102.729C520.292 102.343 519.626 102.017 518.934 101.754C518.05 101.457 517.116 101.339 516.186 101.409C515.256 101.479 514.35 101.734 513.521 102.16L513.31 102.261L513.256 102.043C512.983 101.03 512.601 100.049 512.117 99.118C511.47 97.8523 510.505 96.7769 509.317 95.998C508.332 95.3889 507.191 95.0799 506.033 95.1088C505.25 95.1186 504.48 95.3137 503.786 95.6782C503.248 95.9668 503.014 96.1852 503.014 96.154Z" fill="#455A64"/>
<path d="M495.94 97.8623C495.678 97.9301 495.448 98.084 495.284 98.2991C495.101 98.5478 495.022 98.8588 495.066 99.1649C495.105 99.3608 495.188 99.5452 495.31 99.7035C495.432 99.8618 495.589 99.9898 495.768 100.077C496.209 100.312 496.723 100.368 497.203 100.233C497.77 100.08 498.301 99.8151 498.763 99.4535C499.294 99.0311 499.852 98.6429 500.432 98.2913C501.083 97.9203 501.788 97.6569 502.523 97.5113C503.931 97.2583 505.38 97.3656 506.735 97.8233C507.827 98.1998 508.852 98.7502 509.769 99.4535C510.384 99.9216 510.955 100.444 511.477 101.013C511.685 101.208 511.862 101.435 512 101.684C511.236 100.974 510.437 100.302 509.605 99.6719C508.694 99.0222 507.689 98.5146 506.626 98.1665C505.325 97.7441 503.94 97.6477 502.593 97.8857C501.904 98.0172 501.239 98.2512 500.62 98.5799C500.051 98.9235 499.501 99.2985 498.974 99.7031C498.472 100.09 497.896 100.368 497.281 100.522C496.727 100.663 496.139 100.581 495.643 100.296C495.435 100.179 495.257 100.017 495.122 99.8209C494.987 99.6248 494.898 99.4004 494.863 99.1649C494.836 98.8079 494.951 98.4547 495.183 98.1821C495.565 97.7453 495.994 97.8623 495.94 97.8623Z" fill="#455A64"/>
<path d="M538.84 225.634C538.73 225.634 537.849 221.555 536.874 216.477C535.899 211.399 535.197 207.265 535.314 207.242C535.431 207.218 536.305 211.321 537.28 216.399C538.255 221.477 538.949 225.611 538.84 225.634Z" fill="#455A64"/>
<path d="M439.834 154.35C439.834 154.35 436.16 152.493 434.554 151.472C434.008 151.121 432.12 149.428 431.137 148.539C431.08 148.489 431.009 148.456 430.934 148.445C430.858 148.433 430.781 148.443 430.711 148.473C430.641 148.503 430.581 148.552 430.538 148.615C430.495 148.678 430.47 148.751 430.466 148.827C430.424 149.515 430.572 150.201 430.895 150.809C431.551 151.83 431.909 152.548 431.909 152.548C431.909 152.548 425.014 149.537 424.109 149.912C423.205 150.286 423.454 151.05 424.109 151.409C424.765 151.768 428.431 153.632 428.431 153.632C428.431 153.632 423.056 152.626 422.627 152.603C421.325 152.509 421.847 153.991 422.495 154.108C423.142 154.225 428.072 155.972 428.072 155.972C428.072 155.972 421.964 155.504 421.723 156.066C421.348 156.932 422.128 157.29 422.612 157.345C423.095 157.4 428.002 158.289 428.002 158.289C428.002 158.289 428.969 158.749 428.314 158.866C427.658 158.983 424.414 158.609 423.704 158.936C423.462 159.053 422.924 159.896 424.484 160.052C425.342 160.137 433.126 161.908 438.711 161.791L439.834 154.35Z" fill="#263238"/>
<path d="M439.405 153.546L438.711 162.984L441.441 163.764C441.441 163.764 442.276 165.839 445.442 166.775C448.609 167.711 469.318 170.777 487.453 162.532C499.637 156.994 501.743 153.749 501.743 153.749C501.743 153.749 503.537 138.656 495.768 136.441L486.408 138.703L480.269 144.732L475.94 143.25L450.887 151.76L443.001 153.874L439.405 153.546Z" fill="#455A64"/>
<path d="M486.431 138.68C485.987 139.314 485.483 139.905 484.926 140.442C483.656 141.811 482.315 143.113 480.909 144.342C479.502 145.58 478 146.704 476.416 147.704C475.781 148.151 475.095 148.52 474.373 148.804C474.974 148.32 475.605 147.872 476.26 147.462C477.782 146.4 479.245 145.257 480.644 144.038C482.282 142.611 483.694 141.238 484.723 140.24C485.248 139.673 485.819 139.151 486.431 138.68Z" fill="#263238"/>
<path d="M474.474 162.836C474.241 162.92 473.996 162.967 473.749 162.977C473.273 163.039 472.586 163.094 471.728 163.117C467.262 163.228 462.831 162.304 458.78 160.418C458.169 160.137 457.573 159.825 456.994 159.482C456.769 159.376 456.561 159.237 456.378 159.069C456.378 159.006 457.337 159.506 458.897 160.161C462.959 161.881 467.318 162.79 471.728 162.836C473.421 162.852 474.466 162.774 474.474 162.836Z" fill="#263238"/>
<path d="M494.434 193.607C494.434 193.607 494.021 196.556 493.529 199.894C493.132 202.546 493.015 206.173 495.869 207.429C495.869 207.429 530.189 206.649 535.15 206.976C539.05 207.242 536.398 196.173 536.398 196.173L494.434 193.607Z" fill="#455A64"/>
<path d="M523.419 204.824C522.946 203.889 522.657 202.872 522.569 201.828C522.342 200.803 522.321 199.742 522.506 198.708C522.726 199.714 522.879 200.733 522.967 201.758C523.19 202.768 523.341 203.792 523.419 204.824Z" fill="#263238"/>
<path d="M525.759 203.084C525.005 201.6 524.497 200.004 524.254 198.357C524.695 199.081 525.016 199.871 525.205 200.697C525.516 201.458 525.703 202.264 525.759 203.084Z" fill="#263238"/>
<path d="M536.78 197.601C536.851 197.601 536.851 198.194 537.069 199.091C537.465 200.276 537.699 201.509 537.763 202.757C537.779 203.461 537.655 204.161 537.397 204.816C537.184 205.354 536.86 205.84 536.445 206.243C536.095 206.65 535.605 206.912 535.072 206.976C535.491 206.708 535.88 206.397 536.234 206.048C537.014 205.134 537.415 203.957 537.358 202.757C537.285 201.54 537.094 200.333 536.788 199.153C536.66 198.644 536.657 198.111 536.78 197.601Z" fill="#263238"/>
<path d="M494.263 159.693C494.263 159.693 491.72 195.495 493.483 199.894C493.483 199.894 517.265 198.607 525.759 198.233C534.097 197.858 536.944 197.585 536.944 197.585L535.252 158.874L533.294 137.814L523.154 132.284L504.863 131.628C499.122 134.101 493.537 135.872 491.478 137.439L494.263 159.693Z" fill="#FF725E"/>
<path d="M527.467 176.159C527.257 176.524 527.017 176.871 526.75 177.196C526.266 177.859 525.525 178.756 524.55 179.864C523.411 181.136 522.203 182.344 520.931 183.483C519.368 184.881 517.722 186.184 516.001 187.383C514.271 188.561 512.471 189.634 510.611 190.596C509.09 191.374 507.527 192.069 505.931 192.679C504.566 193.194 503.443 193.56 502.655 193.771C502.257 193.908 501.847 194.007 501.431 194.067C501.812 193.891 502.206 193.743 502.609 193.623C503.389 193.365 504.481 192.96 505.822 192.406C507.164 191.852 508.739 191.142 510.44 190.261C512.277 189.29 514.058 188.217 515.775 187.047C517.478 185.863 519.116 184.587 520.681 183.225C522.116 181.946 523.357 180.745 524.339 179.684C525.322 178.623 526.11 177.742 526.625 177.118C526.879 176.775 527.16 176.455 527.467 176.159Z" fill="#263238"/>
<path d="M493.568 154.139L534.573 151.417L535.33 160.387L494.021 163.328L494.263 159.693L493.568 154.139Z" fill="#F5F5F5"/>
<g opacity="0.2">
<path d="M504.847 131.644C508.443 135.107 514.816 139.007 519.878 137.845C521.015 137.718 522.077 137.216 522.896 136.418C523.84 135.466 523.676 133.539 523.138 132.299L504.847 131.644Z" fill="black"/>
</g>
<g opacity="0.2">
<path d="M526.414 177.937C527.194 177.024 524.394 176.65 523.294 176.962C522.17 177.337 521.172 178.014 520.408 178.92C519.652 179.822 518.825 180.661 517.936 181.431C516.245 182.589 514.277 183.275 512.234 183.42C510.199 183.568 508.178 183.871 506.189 184.325C505.194 184.561 504.259 184.999 503.442 185.612C502.624 186.225 501.942 187.001 501.439 187.89C500.557 189.723 501.033 192.281 502.827 193.256C502.804 193.256 514.761 192.351 526.414 177.937Z" fill="black"/>
</g>
<path d="M500.487 133.422C500.487 133.422 502.148 124.211 511.212 123.08C520.276 121.949 523.559 126.519 523.942 126.98C524.324 127.44 526.282 130.365 522.694 132.26L504.847 131.621L500.487 133.422Z" fill="#455A64"/>
<path d="M521.859 127.557C521.559 127.639 521.25 127.681 520.939 127.682C520.094 127.732 519.248 127.732 518.404 127.682C517.335 127.627 516.064 127.502 514.675 127.385C513.168 127.244 511.651 127.244 510.143 127.385C507.402 127.67 504.827 128.836 502.804 130.708C501.989 131.509 501.238 132.372 500.557 133.29C500.67 133.013 500.817 132.751 500.994 132.51C501.452 131.795 501.991 131.136 502.601 130.544C504.629 128.556 507.271 127.313 510.097 127.019C511.631 126.883 513.175 126.901 514.706 127.073L518.427 127.455C519.48 127.549 520.338 127.58 520.931 127.596C521.238 127.55 521.549 127.537 521.859 127.557Z" fill="#263238"/>
<path d="M521.812 130.778C521.195 131.021 520.546 131.176 519.886 131.238C516.715 131.719 513.479 131.517 510.393 130.646C509.745 130.499 509.12 130.263 508.537 129.944C509.188 130.039 509.832 130.179 510.463 130.365C512.003 130.716 513.568 130.943 515.143 131.043C516.703 131.137 518.268 131.109 519.823 130.958C520.481 130.853 521.146 130.793 521.812 130.778Z" fill="#263238"/>
<path d="M560.157 323.282C560.157 323.399 435.841 323.485 282.524 323.485C129.207 323.485 4.84381 323.399 4.84381 323.282C4.84381 323.165 129.129 323.079 282.524 323.079C435.919 323.079 560.157 323.181 560.157 323.282Z" fill="#263238"/>
<path d="M67.7862 37.8022V26.0262H72.4742C72.8155 26.0262 73.1622 26.0742 73.5142 26.1702C73.8769 26.2556 74.2129 26.4316 74.5222 26.6982C74.8315 26.9542 75.0769 27.3329 75.2582 27.8342C75.4502 28.3249 75.5462 28.9756 75.5462 29.7862C75.5462 30.6182 75.4449 31.2902 75.2422 31.8022C75.0502 32.3036 74.7942 32.6929 74.4742 32.9702C74.1649 33.2369 73.8289 33.4182 73.4662 33.5142C73.1035 33.6102 72.7515 33.6582 72.4102 33.6582C72.2502 33.6582 72.0155 33.6529 71.7062 33.6422C71.3969 33.6316 71.0662 33.6209 70.7142 33.6102C70.3729 33.5889 70.0529 33.5676 69.7542 33.5462C69.4555 33.5249 69.2262 33.5089 69.0662 33.4982V37.8022H67.7862ZM69.0662 32.5222H72.2502C72.6235 32.5222 72.9649 32.4422 73.2742 32.2822C73.5835 32.1222 73.8235 31.8449 73.9942 31.4502C74.1755 31.0556 74.2662 30.5062 74.2662 29.8022C74.2662 29.1089 74.1755 28.5756 73.9942 28.2022C73.8235 27.8182 73.5942 27.5516 73.3062 27.4022C73.0182 27.2529 72.7035 27.1782 72.3622 27.1782H69.0662V32.5222ZM79.9384 37.8662C79.6824 37.8662 79.4104 37.8449 79.1224 37.8022C78.8344 37.7489 78.5624 37.6476 78.3064 37.4982C78.0504 37.3489 77.8424 37.1249 77.6824 36.8262C77.5224 36.5169 77.4424 36.1009 77.4424 35.5782V28.3942C77.4424 27.9356 77.5064 27.5569 77.6344 27.2582C77.7731 26.9489 77.9544 26.7089 78.1784 26.5382C78.4024 26.3569 78.6531 26.2289 78.9304 26.1542C79.2078 26.0689 79.4851 26.0262 79.7624 26.0262C80.4238 26.0369 81.0371 26.0529 81.6024 26.0742C82.1678 26.0849 82.7011 26.1009 83.2024 26.1222C83.7144 26.1329 84.2104 26.1489 84.6904 26.1702V27.1942H80.0824C79.6664 27.1942 79.3358 27.3062 79.0904 27.5302C78.8451 27.7542 78.7224 28.1116 78.7224 28.6022V31.3862L83.9864 31.4662V32.4422L78.7224 32.5222V35.2902C78.7224 35.6849 78.7864 35.9836 78.9144 36.1862C79.0531 36.3889 79.2344 36.5222 79.4584 36.5862C79.6824 36.6502 79.9118 36.6822 80.1464 36.6822H84.6904V37.7062C84.1998 37.7382 83.6824 37.7649 83.1384 37.7862C82.6051 37.8076 82.0664 37.8236 81.5224 37.8342C80.9891 37.8449 80.4611 37.8556 79.9384 37.8662ZM90.1771 37.8982C89.9424 37.8982 89.6597 37.8876 89.3291 37.8662C89.0091 37.8556 88.6784 37.8342 88.3371 37.8022C87.9957 37.7809 87.6704 37.7542 87.3611 37.7222C87.0624 37.6902 86.8117 37.6529 86.6091 37.6102V36.6342C86.8757 36.6556 87.2011 36.6769 87.5851 36.6982C87.9691 36.7196 88.3797 36.7356 88.8171 36.7462C89.2651 36.7569 89.7024 36.7622 90.1291 36.7622C90.6091 36.7622 91.0411 36.7142 91.4251 36.6182C91.8091 36.5222 92.1131 36.3462 92.3371 36.0902C92.5717 35.8342 92.6891 35.4662 92.6891 34.9862V34.1862C92.6891 33.6422 92.5504 33.2316 92.2731 32.9542C91.9957 32.6662 91.5477 32.5222 90.9291 32.5222H89.6651C88.6944 32.5222 87.9317 32.3089 87.3771 31.8822C86.8331 31.4556 86.5611 30.7196 86.5611 29.6742V29.0022C86.5611 27.8929 86.8597 27.1036 87.4571 26.6342C88.0544 26.1649 88.8971 25.9302 89.9851 25.9302C90.3264 25.9302 90.7104 25.9516 91.1371 25.9942C91.5637 26.0262 91.9744 26.0689 92.3691 26.1222C92.7744 26.1649 93.1104 26.2129 93.3771 26.2662V27.2422C92.9077 27.1996 92.3744 27.1622 91.7771 27.1302C91.1904 27.0982 90.6357 27.0822 90.1131 27.0822C89.6331 27.0822 89.2171 27.1409 88.8651 27.2582C88.5131 27.3649 88.2411 27.5622 88.0491 27.8502C87.8677 28.1276 87.7771 28.5276 87.7771 29.0502V29.5942C87.7771 30.2449 87.9477 30.6929 88.2891 30.9382C88.6304 31.1836 89.1051 31.3062 89.7131 31.3062H91.0731C91.7237 31.3062 92.2571 31.4236 92.6731 31.6582C93.0891 31.8929 93.3984 32.2182 93.6011 32.6342C93.8037 33.0396 93.9051 33.5089 93.9051 34.0422V34.9542C93.9051 35.7436 93.7344 36.3516 93.3931 36.7782C93.0624 37.2049 92.6144 37.4982 92.0491 37.6582C91.4944 37.8182 90.8704 37.8982 90.1771 37.8982ZM98.7391 37.8022V27.1782H95.1071V26.0262H103.651V27.1782H100.019V37.8022H98.7391ZM103.661 37.8022L107.693 26.0262H109.325L113.357 37.8022H112.045L110.861 34.4422H106.125L104.973 37.8022H103.661ZM106.445 33.2902H110.541L108.509 27.1462L106.445 33.2902ZM115.354 37.8022V26.0262H116.394L122.538 35.6102V26.0262H123.802V37.8022H122.762L116.618 28.2182V37.8022H115.354ZM125.364 37.8022L129.396 26.0262H131.028L135.06 37.8022H133.748L132.564 34.4422H127.828L126.676 37.8022H125.364ZM128.148 33.2902H132.244L130.212 27.1462L128.148 33.2902Z" fill="#455A64"/>
<rect x="82.5542" y="127.802" width="42" height="40" fill="white"/>
</svg>
